<svg xmlns="http://www.w3.org/2000/svg" viewBox="0 0 67.09 27.32"><defs><style>.cls-1{fill:#fff;}.cls-2{fill:#ff7900;}.cls-3{font-size:6.6px;fill:#9e9e9e;font-family:Biennale-BoldIt, Biennale;font-weight:700;font-style:italic;}</style></defs><g id="Layer_2" data-name="Layer 2"><g id="Layer_1-2" data-name="Layer 1"><path class="cls-1" d="M.54,5.72,0,8.45H4.37L2,20.76H5L7.44,8.45h4.35l.55-2.73Z"/><path class="cls-1" d="M19.71,13.75A4.63,4.63,0,0,0,14.78,9.1a6.81,6.81,0,0,0-6.73,6.81A5,5,0,0,0,13.29,21a6.27,6.27,0,0,0,5.15-2.57L16.4,17a3.18,3.18,0,0,1-2.77,1.56A2.48,2.48,0,0,1,11,16H19.3A6.94,6.94,0,0,0,19.71,13.75ZM16.92,14H11.3a3.58,3.58,0,0,1,3.35-2.56,2.13,2.13,0,0,1,2.27,2.38Z"/><path class="cls-1" d="M25.14,18.31a2.5,2.5,0,0,1-2.48-2.79,3.56,3.56,0,0,1,3.42-3.7,2.14,2.14,0,0,1,2.29,2l2.88-1C31.05,10.65,29,9.1,26.44,9.1a6.86,6.86,0,0,0-6.88,6.77A5,5,0,0,0,24.8,21a6.27,6.27,0,0,0,5.71-3.7L28,16.28A3.18,3.18,0,0,1,25.14,18.31Z"/><path class="cls-1" d="M38.67,9.08a5.32,5.32,0,0,0-3.4,1.25l1.06-5.39h-3L30.21,20.76h3L34.58,14a2.75,2.75,0,0,1,2.66-2.17c1.32,0,2.12.85,1.8,2.51L37.8,20.76h3.05l1.37-7C42.78,10.94,41.27,9.08,38.67,9.08Z"/><path class="cls-1" d="M50.42,9.08a5.35,5.35,0,0,0-3.6,1.43L47,9.36H44.16l-1.36,7h3.05L46.33,14A2.75,2.75,0,0,1,49,11.8c1.32,0,2.12.85,1.79,2.51l-.29,1.56h3.06L54,13.75C54.53,10.94,53,9.08,50.42,9.08Z"/><path class="cls-1" d="M61,9.1a6.87,6.87,0,0,0-6.9,6.79,5.23,5.23,0,0,0,.88,3h1l-.18.93a5,5,0,0,0,1.76.93L58,18.91h3.08l-.24,1.25a3.88,3.88,0,0,1,3.28-1.43,5.17,5.17,0,0,1,.57,0,6.8,6.8,0,0,0,1.75-4.53C66.43,11,64,9.1,61,9.1Zm-1.15,9.21a2.53,2.53,0,0,1-2.61-2.77,3.61,3.61,0,0,1,3.44-3.74,2.53,2.53,0,0,1,2.59,2.75A3.61,3.61,0,0,1,59.89,18.31Z"/><path class="cls-2" d="M50,19.66c0,2.15-1.73,3.7-4.18,3.7h-2l-.73,3.77H40.7l2-10.38h4.08C48.76,16.75,50,17.9,50,19.66Zm-2.46.28a1.06,1.06,0,0,0-1.2-1.12H44.68l-.47,2.47H46A1.38,1.38,0,0,0,47.51,19.94Z"/><path class="cls-2" d="M50.88,16.21h2.38L51.14,27.13H48.76Z"/><path class="cls-2" d="M60.65,19.26l-1.52,7.87H56.89l.14-.78a3.5,3.5,0,0,1-2.37,1c-1.66,0-2.7-1.3-2.33-3.19l.93-4.87h2.37l-.85,4.42c-.19,1,.3,1.52,1,1.52a1.67,1.67,0,0,0,1.6-1.49l.86-4.45Z"/><path class="cls-2" d="M59.68,25.22l2-.72a1.36,1.36,0,0,0,1.44,1c.58,0,1-.26,1-.73,0-1.22-3.46-.71-3.46-3.15,0-1.52,1.39-2.58,3.4-2.58,1.6,0,2.8.69,3,1.75L65,21.57a1,1,0,0,0-1-.76c-.52,0-.93.25-.93.64,0,1.11,3.48.66,3.48,3.15,0,1.63-1.49,2.72-3.61,2.72C61.13,27.32,59.84,26.53,59.68,25.22Z"/><text class="cls-3" transform="translate(54.14 5.59)">230</text></g></g></svg>