<svg xmlns="http://www.w3.org/2000/svg" viewBox="0 0 77.79 26.32"><defs><style>.cls-1{fill:#ff7900;}.cls-2{fill:#fff;}</style></defs><g id="Layer_2" data-name="Layer 2"><g id="Layer_1-2" data-name="Layer 1"><path class="cls-1" d="M39.62,9.19a5.83,5.83,0,0,0-3.74,1.38L37,4.64H33.69l-1.11,5.72a7.27,7.27,0,0,1,1.36,4.38A8.94,8.94,0,0,1,30.32,22l0,.07h3.36l1.46-7.48a3,3,0,0,1,2.93-2.38c1.45,0,2.33.93,2,2.76l-1.35,7.1H42l1.5-7.72C44.15,11.24,42.48,9.19,39.62,9.19Z"/><path class="cls-1" d="M54.85,12.3a5.72,5.72,0,0,0-5.39-3.09,7.57,7.57,0,0,0-7.6,7.48c0,3.53,2.52,5.67,5.93,5.67a7.54,7.54,0,0,0,6.14-3.08,7.44,7.44,0,0,0,1.46-4.42A5.88,5.88,0,0,0,54.85,12.3Zm-6.66,7.06a2.8,2.8,0,0,1-2.88-3.05,4,4,0,0,1,3.79-4.12,2.79,2.79,0,0,1,2.86,3A4,4,0,0,1,48.19,19.36Z"/><path class="cls-1" d="M61,9.21a7.64,7.64,0,0,0-6.14,3.09,7.35,7.35,0,0,0-1.46,4.39,6.05,6.05,0,0,0,.54,2.59,5.65,5.65,0,0,0,5.39,3.08,7.54,7.54,0,0,0,7.6-7.5C66.92,11.26,64.25,9.21,61,9.21ZM59.72,19.36a2.8,2.8,0,0,1-2.88-3.05,4,4,0,0,1,3.79-4.12,2.79,2.79,0,0,1,2.86,3A4,4,0,0,1,59.72,19.36Z"/><path class="cls-1" d="M77.66,14.33l-1.5,7.72H72.8L74.16,15c.36-1.83-.52-2.76-2-2.76a3,3,0,0,0-2.93,2.38L67.8,22.05H64.44L66.87,9.5H70l-.24,1.26a5.92,5.92,0,0,1,4-1.57C76.62,9.19,78.28,11.24,77.66,14.33Z"/><path class="cls-2" d="M27.8,9.21a6,6,0,0,0-4.14,1.65l.26-1.36H20.8L17.53,26.32h3.36L22,20.79a4.56,4.56,0,0,0,3.58,1.57,7.43,7.43,0,0,0,7.22-7.62C32.76,11.57,30.78,9.21,27.8,9.21ZM25.59,19.38a2.79,2.79,0,0,1-2.84-3,4,4,0,0,1,3.72-4.17,2.85,2.85,0,0,1,2.88,3.05A4,4,0,0,1,25.59,19.38Z"/><polygon class="cls-2" points="12.98 8.5 8.2 8.5 5.55 22.05 2.17 22.05 4.81 8.5 0 8.5 0.59 5.5 13.58 5.5 12.98 8.5"/><polygon class="cls-2" points="22.49 9.5 15.53 22.05 13.15 26.32 9.81 26.32 12.32 22.05 11.6 22.05 9.51 9.5 12.87 9.5 14.18 18.81 18.75 9.5 22.49 9.5"/><path class="cls-2" d="M64.11,1.45A1.91,1.91,0,0,1,62,3.3H60.83l-.42,2.1h-.94L60.52,0h2A1.42,1.42,0,0,1,64.11,1.45Zm-1,.1c0-.45-.27-.72-.79-.72h-1L61,2.46h1.1A.93.93,0,0,0,63.12,1.55Z"/><path class="cls-2" d="M66.85,1.21l-.17.89a1.26,1.26,0,0,0-1.34,1.06L64.9,5.4H64l.8-4.09h.89l-.1.52A1.82,1.82,0,0,1,66.85,1.21Z"/><path class="cls-2" d="M66.75,3.66a2.47,2.47,0,0,1,2.46-2.45A1.77,1.77,0,0,1,71.1,3.05a2.44,2.44,0,0,1-2.45,2.44A1.76,1.76,0,0,1,66.75,3.66Zm3.39-.52a1,1,0,0,0-1-1.08,1.44,1.44,0,0,0-1.39,1.49,1,1,0,0,0,1,1.1A1.45,1.45,0,0,0,70.14,3.14Z"/><path class="cls-2" d="M77.59.85H76L75.11,5.4h-1L75.05.85h-1.6L73.61,0h4.15Z"/></g></g></svg>