<svg width="0" height="0" aria-hidden="true"><defs><clipPath id="svgPath"><path transform="scale(1.211111111111111,1.211111111111111)" fill-rule="evenodd" clip-rule="evenodd" d="M1440 3.59767C1439.66 3.8093 1439.36 4.06325 1439.07 4.35953C1437.25 6.01023 1435.09 6.34883 1432.8 6.17953C1431.61 6.09488 1430.51 6.26418 1429.28 5.75628C1427.21 4.95209 1425.93 5.92558 1424.54 8.59209C1423.73 8.63441 1422.93 8.71906 1422.04 8.76139C1421.61 9.65023 1421.19 10.4967 1420.68 11.5972C1420.05 11.2163 1419.45 10.8353 1418.77 10.5814C1416.4 9.65023 1413.99 7.91488 1411.61 10.793C1411.32 11.1739 1410.39 11.2163 1409.79 11.0893C1407.84 10.7507 1406.23 11.3856 1404.84 12.5707C1403.01 14.1367 1401.11 15.1102 1398.65 15.6181C1396.57 16.0414 1394.63 17.5228 1392.72 18.6232C1391.28 19.4698 1390.01 20.5702 1388.61 21.5014C1388.23 21.7553 1387.63 22.0093 1387.34 21.8823C1385.9 21.2474 1384.71 21.84 1383.31 22.2209C1381.92 22.6442 1380.35 22.3902 1378.82 22.3902C1378.74 22.3902 1378.65 22.3056 1378.57 22.3056C1374.92 22.3056 1371.2 21.713 1367.68 22.3902C1363.49 23.1944 1359.29 23.9139 1355.14 23.406C1352.39 23.0674 1350.44 24.3372 1348.19 25.226C1347.77 25.3953 1347.22 25.9456 1346.96 25.8186C1344.93 24.7604 1343.02 25.9879 1341.24 26.4111C1338.19 27.1307 1335.35 28.5274 1332.05 28.6121C1331.12 28.6121 1330.14 29.7125 1328.91 30.0935C1326.8 30.7707 1324.97 30.8977 1322.98 29.8395C1322.39 29.5432 1321.37 29.8395 1320.61 30.1358C1319.81 30.4321 1319.17 31.0246 1318.41 31.3632C1316.92 32.0404 1315.82 31.7018 1314.64 30.6014C1313.54 29.5856 1312.31 28.7814 1311.12 27.8502C1310.27 28.4851 1309.6 28.9507 1308.79 29.5432C1307.1 28.0618 1305.49 28.1465 1303.92 29.7972C1303.45 30.2628 1302.48 30.559 1301.84 30.3897C1299.94 29.9665 1298.07 29.2893 1296.21 28.7391C1295.49 28.5274 1294.77 28.3581 1294.05 28.3581C1293.03 28.3158 1291.46 28.866 1291.04 28.3581C1288.67 25.7339 1286.08 28.1465 1283.67 27.7656C1282.14 27.5116 1280.57 27.5539 1279.01 27.5539C1277.31 27.5539 1275.36 26.5381 1274.22 28.7814C1272.69 28.9084 1271.13 29.3316 1269.64 29.12C1268.33 28.9084 1266.97 28.9084 1265.66 28.1042C1264.81 27.5963 1263.33 28.1042 1262.1 28.3581C1260.83 28.5697 1260.15 29.3316 1260.03 30.686C1259.94 31.6172 1259.22 32.0828 1258.25 32.1674C1254.35 32.5907 1250.54 33.7335 1246.51 32.9293C1245.37 32.7177 1244.1 33.1832 1242.78 33.3949C1241.43 31.1516 1238.76 31.2786 1236.72 30.2628C1236 29.9242 1235.07 29.9665 1234.27 29.6702C1232.7 29.12 1231.3 29.3316 1230.07 30.4744C1229.65 30.8553 1229.18 31.1939 1228.72 31.5325C1226.26 33.2679 1223.93 32.8023 1222.32 30.1781C1222.11 29.8818 1221.94 29.5432 1221.81 29.247C1219.99 29.0353 1218.21 28.8237 1216.47 28.6544C1216.13 28.6544 1215.75 28.866 1215.41 28.9507C1214.06 29.3316 1212.75 30.0088 1211.39 30.0935C1209.53 30.2204 1207.87 30.559 1206.35 31.6595C1205.88 31.9558 1205.12 31.9135 1204.48 31.8711C1202.62 31.7018 1200.71 31.3209 1198.85 31.2786C1196.39 31.1516 1193.98 31.1939 1191.73 29.7549C1191.01 29.2893 1189.78 29.0777 1189.02 29.3739C1186.48 30.3474 1183.81 29.5009 1181.27 30.0935C1180.93 30.1781 1180.46 30.2628 1180.17 30.0935C1178.39 29.0353 1176.9 29.9665 1175.38 30.7707C1174.66 31.1516 1173.77 31.6172 1173.05 31.5325C1171.06 31.1939 1169.32 31.7865 1167.54 32.4637C1164.45 33.6911 1161.48 33.3949 1158.56 31.9981C1156.44 30.9823 1154.53 31.4902 1152.75 32.76C1151.31 33.8181 1149.92 34.6646 1148.18 33.1409C1147.84 32.8023 1146.99 33.0139 1146.36 33.0139C1143.94 33.1832 1141.53 34.1567 1139.11 33.0563C1139.03 33.0139 1138.9 32.9716 1138.86 33.0139C1135.64 34.6646 1132.42 32.5907 1129.11 32.887C1127 33.0986 1124.62 32.3367 1122.55 31.4902C1119.79 30.3474 1117.12 29.5432 1114.12 29.8395C1113.31 29.9242 1112.17 29.5009 1111.57 28.866C1110.51 27.7656 1109.5 26.7921 1108.01 26.3688C1107.76 26.2842 1107.63 25.7763 1107.63 25.8186C1105.39 25.6493 1103.35 25.3953 1101.32 25.3953C1100.6 25.3953 1099.8 25.8609 1099.16 26.3265C1098.27 26.9614 1097.55 27.8502 1096.66 28.4851C1096.36 28.6967 1095.52 28.7391 1095.39 28.5697C1094.46 27.2153 1093.48 28.1042 1092.68 28.4851C1091.45 29.0777 1090.18 29.12 1088.91 29.3316C1086.87 29.6279 1084.93 30.4321 1083.02 31.1939C1082.13 31.5325 1081.54 31.6172 1080.65 31.1939C1078.19 30.0511 1075.73 29.0353 1073.91 26.7074C1072.64 25.0991 1070.56 24.3372 1068.27 25.5646C1067.64 25.9032 1066.67 25.607 1065.86 25.5646C1064.97 25.5646 1063.95 25.1414 1063.19 25.48C1059.93 26.7498 1056.84 26.4111 1053.36 25.1414C1053.57 25.9456 1053.96 26.5804 1053.87 27.173C1053.7 28.1465 1053.53 29.4163 1052.85 29.8818C1052.18 30.3051 1050.82 30.1358 1049.97 29.7549C1048.45 29.0353 1047.18 27.8925 1045.74 27.0037C1044.76 26.4111 1043.74 25.9032 1042.69 25.607C1042.01 25.4377 1040.86 25.4377 1040.57 25.8186C1039.17 27.6386 1036.92 27.7656 1035.1 28.4428C1033.32 29.0777 1030.74 29.2046 1029.13 28.3581C1026.42 26.9191 1023.83 27.2153 1021.16 27.5116C1018.41 27.8079 1016.46 26.8767 1015.06 24.5911C1014.68 23.9563 1014.22 23.3637 1013.71 22.6865C1012.99 22.8981 1012.39 23.2791 1011.76 23.2367C1010.57 23.2367 1009.05 23.4484 1008.28 22.8135C1004.73 19.8507 1000.83 19.4274 996.633 20.5702C992.947 21.586 989.558 21.0781 986.338 19.2158C985.872 18.9618 985.067 18.4539 984.897 18.5809C983.415 19.8507 982.271 18.5809 981.042 18.1577C978.331 17.2688 975.492 17.3958 972.696 17.6498C970.196 17.8614 967.697 18.4539 965.197 18.9195C964.095 19.1312 963.036 19.5544 961.977 19.893C961.087 20.1893 960.24 20.5702 959.35 20.8242C957.868 21.2051 956.427 21.5437 955.537 22.9828C954.817 24.1679 953.631 24.0832 952.487 23.8293C951.301 23.533 950.114 23.1521 948.971 24.0409C948.674 24.2525 948.081 24.0832 947.615 24.0409C945.962 23.9563 944.268 23.9139 942.616 23.7446C941.514 23.6177 940.412 23.0674 939.311 23.1098C936.049 23.1098 932.786 21.967 929.482 23.1521C928.931 23.3637 928.168 23.1098 927.533 23.0674C925.796 22.9828 924.228 23.1944 922.83 24.4642C921.602 25.5646 920.034 26.3688 918.551 27.1307C916.433 28.2311 914.018 28.0195 912.281 26.7498C909.697 24.8874 907.832 26.4111 905.884 27.3846C904.57 28.0195 903.469 29.1623 902.113 30.2628C901.096 29.6702 899.995 28.6967 898.766 30.4321C898.342 31.0246 896.69 30.813 895.589 30.8553C895.038 30.8553 894.36 30.3474 893.979 30.5591C891.479 31.6595 888.852 31.7442 886.183 32.1251C882.497 32.5907 879.574 31.6595 876.354 29.7972C874.448 30.5167 872.541 31.3209 870.635 31.9981C869.448 32.4214 868.347 32.2097 867.203 31.4902C863.941 29.5009 860.636 27.6386 857.289 25.8609C854.366 24.2949 851.104 24.5488 847.926 24.5488C847.46 24.5488 846.994 24.7604 846.528 24.6758C844.028 24.2102 841.571 23.66 839.114 23.1098C838.732 23.0251 838.394 22.8558 838.012 22.8558C835.216 22.6865 832.42 22.6442 829.624 22.3479C828.437 22.2209 827.082 21.84 826.277 21.1205C823.269 18.3693 819.498 17.9884 815.812 17.2265C815.558 17.1842 815.177 17.0995 814.965 17.2265C812.635 18.4539 810.77 17.0995 808.949 16.0414C808.822 15.9567 808.737 15.8721 808.61 15.7874C807.508 16.253 806.449 16.6763 805.348 17.1418C805.093 17.2688 804.797 17.3958 804.543 17.3535C801.746 16.9302 799.543 18.4963 797.128 19.4698C795.646 20.1046 794.12 20.4856 792.595 20.9511C792.256 21.0781 791.748 20.9935 791.536 21.2051C789.545 23.3214 787.257 22.2209 785.181 21.6707C783.571 21.2474 782.173 20.7818 780.563 21.6707C778.572 22.7711 776.623 21.84 774.674 21.3321C774.039 21.1628 773.445 20.9511 772.81 20.7395C770.819 20.147 770.268 20.2739 769.209 22.0516C768.234 23.66 766.709 24.1679 765.057 24.6758C763.447 25.1837 761.879 25.5223 760.269 24.8451C759.846 24.6758 759.337 24.5488 758.998 24.2525C755.948 21.8823 755.313 21.6284 751.457 21.7977C751.118 21.7977 750.779 21.5014 750.44 21.4167C749.085 21.2051 747.898 21.0358 746.5 21.9246C744.721 23.0674 742.645 23.1521 740.315 22.6442C737.264 21.967 734.765 20.6549 732.223 19.1312C731.46 18.6656 730.231 18.8772 729.215 18.9195C726.673 19.0465 724.131 19.4698 721.631 19.3428C720.106 19.2581 718.411 18.6656 717.225 17.7344C715.657 16.507 714.047 16.8032 712.438 16.7609C711.209 16.7609 709.98 16.9725 708.794 16.7609C706.591 16.38 704.684 16.7609 703.032 18.5386C700.999 16.7609 699.346 18.1153 697.694 19.2581C696.423 16.4223 694.008 17.6074 691.932 17.3958C691.593 16.8879 691.254 16.38 690.746 15.6605C687.907 17.3958 684.772 17.2688 681.679 17.4805C680.535 17.5651 679.392 18.327 678.29 18.7502C676.722 18.2 675.07 17.4381 673.333 17.0995C671.554 16.7186 669.774 17.0995 668.291 18.7502C667.825 17.946 667.486 17.3112 667.148 16.6339C666.385 17.1842 665.749 17.6498 665.029 18.1577C664.563 17.8614 664.097 17.7344 663.758 17.3958C662.53 16.0837 661.089 16.0414 659.606 16.6763C657.657 17.5228 655.709 17.8191 653.59 17.5651C652.743 17.4805 651.896 17.7767 651.048 17.8191C648.93 17.946 646.769 18.4963 644.99 16.5916C644.566 16.126 643.634 15.9991 642.914 15.9144C640.499 15.6181 638.084 15.3642 635.627 15.1102C635.373 15.1102 634.991 15.1102 634.822 14.8986C632.322 12.3167 628.679 12.8246 625.628 11.8512C623.425 11.1316 621.392 12.74 619.57 14.0944C619.189 14.3907 618.722 14.6446 618.256 14.687C616.096 14.9832 614.02 15.3219 611.944 14.0944C611.393 13.7558 610.249 14.0944 609.487 14.3484C607.538 15.0256 605.758 15.4065 603.64 14.6023C602.665 14.2214 600.929 14.3907 599.785 15.5758C599.149 16.253 598.259 16.6763 597.327 17.3112C595.463 14.8139 592.54 15.9991 590.125 15.2372C589.362 14.9832 587.837 15.8721 587.202 16.6763C586.227 17.9037 585.041 18.0307 583.728 17.9884C581.652 17.9037 579.576 17.8614 577.669 18.7079C577.415 18.2 577.288 17.8614 577.118 17.5228C576.907 17.5651 576.61 17.5228 576.568 17.6498C574.958 19.9353 572.289 19.2581 570.128 20.0623C568.179 20.7818 566.103 21.0781 564.154 21.5437C562.333 19.5121 560.638 19.3851 557.926 20.7395C556.444 21.5014 554.706 21.7977 553.266 22.6018C550.597 24.0832 547.928 25.3107 544.835 23.9986C544.793 23.9986 544.666 24.0832 544.581 24.0832C541.149 25.48 537.506 25.1837 533.904 25.226C532.633 25.226 531.32 24.7181 529.753 24.4218C529.075 25.4377 528.354 26.4958 527.507 27.7232C525.855 27.427 524.202 27.0884 522.254 26.7498C518.78 28.6121 514.882 30.6437 510.391 29.7125C507.044 28.993 503.655 29.4586 500.308 28.8237C498.952 28.5697 497.384 28.993 495.986 29.2046C492.3 29.7972 488.657 29.8395 485.056 28.6967C483.361 28.1465 482.005 28.4428 480.607 29.5856C479.633 30.3474 478.319 30.8553 477.091 31.1939C475.566 31.6172 473.956 31.7442 472.473 31.9558C471.795 31.1939 471.202 30.1358 470.354 29.7125C469.422 29.247 468.194 29.1623 467.135 29.2046C464.635 29.3316 462.093 29.5856 459.636 29.9665C458.153 30.2204 456.755 30.8553 455.23 31.3632C452.645 29.6702 450.019 29.2046 446.841 30.3474C444.511 31.1939 441.969 31.5325 439.3 30.0935C437.309 28.993 434.639 29.4586 432.479 30.5591C431.589 30.9823 430.911 31.4056 429.852 31.1516C429.259 31.0246 428.412 31.4479 427.903 31.8711C426.039 33.3949 424.302 35.0879 422.395 36.6116C420.997 37.7544 419.938 37.3311 418.667 35.8921C417.989 35.0879 416.93 34.6223 416.04 34.0297C415.574 33.7335 415.024 33.6065 414.6 33.3102C413.244 32.2944 411.677 32.0828 410.024 32.1251C408.033 32.2097 406.042 32.1251 404.093 32.2944C402.78 32.3791 401.509 32.8023 400.195 33.0139C399.179 33.1832 398.162 33.2679 397.145 33.3525C396.679 33.3525 396.043 33.1409 395.789 33.3525C394.349 34.58 392.993 34.1144 391.341 33.6065C388.375 32.76 385.325 32.3367 382.274 31.8288C380.749 31.5749 379.351 31.8288 378.165 33.0986C377.233 34.0721 376.089 34.326 374.564 34.1567C372.742 33.9874 370.878 34.58 369.013 34.7916C367.488 34.9609 365.963 35.6804 364.311 34.7916C363.76 34.4953 362.828 34.8339 362.065 34.9186C361.515 34.9609 360.879 35.2995 360.413 35.1302C358.21 34.2837 356.346 35.4688 354.397 36.1037C353.804 36.273 353.168 36.3577 352.618 36.5693C350.16 37.5428 348.042 36.273 345.881 35.4688C344.398 34.8763 343 34.5377 341.56 35.4688C340.628 36.0614 339.823 35.8497 338.891 35.4688C337.874 35.0456 336.772 34.8763 335.756 34.453C335.163 34.2414 334.739 33.7335 334.23 33.3525C333.171 32.5907 332.324 31.1939 330.672 32.2097C330.46 32.3367 329.824 31.9558 329.528 31.7018C328.384 30.686 327.155 30.3897 325.63 30.5591C324.359 30.686 323.003 30.5167 321.69 30.5167C321.054 30.5167 320.207 30.3897 319.783 30.7284C318.131 32.0404 316.479 31.5325 315.081 30.5591C312.751 28.9507 310.209 28.6121 307.539 28.866C305.93 29.0353 304.574 29.0777 303.091 28.0195C301.862 27.173 300.083 26.4535 298.473 27.7656C298.346 27.8925 298.092 27.9772 297.965 27.9772C295.804 27.5539 293.601 27.173 291.483 26.6651C290.423 26.4111 289.407 25.607 288.347 25.607C287.203 25.607 286.949 23.9139 285.721 24.4642C285.551 23.8716 285.128 23.1521 285.297 22.6442C286.526 18.7925 283.518 15.6605 280.34 14.687C278.984 14.2637 277.713 14.306 276.273 15.0679C274.155 16.253 271.909 17.3535 269.367 17.4381C268.986 17.4381 268.477 17.4805 268.308 17.7344C266.274 20.147 264.114 18.2846 261.953 18.073C260.301 17.9037 258.903 15.9991 256.954 17.3112C256.615 17.5228 255.683 16.8032 254.878 16.4223C252.971 18.2846 251.149 17.9884 249.158 16.4223C247.209 14.9409 246.659 15.1525 245.303 17.0995C244.794 17.7767 244.286 18.4539 243.735 19.1312C241.363 18.073 239.117 17.4381 236.618 18.2846C234.881 18.8349 233.652 19.5544 232.762 21.2474C231.322 24.0409 227.128 24.8874 225.306 23.9139C222.679 22.5172 219.883 21.3744 217.468 19.4698C215.223 17.6921 212.469 17.3112 209.588 17.5228C207.851 17.6921 206.071 17.5651 204.122 17.5651C203.826 15.9144 202.809 15.3642 201.072 15.6181C200.013 15.7874 198.827 15.4912 197.725 15.2795C196.581 15.0256 195.48 14.7293 194.887 16.2107C194.802 16.38 194.632 16.6339 194.505 16.5916C191.624 16.0837 189.845 18.7925 187.006 19.0888C186.159 15.9144 182.939 15.9567 180.694 15.7028C176.542 15.2795 172.22 15.2795 168.407 17.9037C167.306 18.6656 165.442 18.327 163.917 18.4116C163.662 18.4116 163.154 17.9884 163.154 17.7344C163.154 16.126 161.629 15.9567 160.739 15.1949C158.367 13.2479 155.782 12.9939 152.816 13.7981C150.359 14.4753 147.944 14.1367 146.038 11.9358C145.318 11.1316 144.258 10.4967 143.242 10.1581C141.928 9.73488 140.488 9.6079 139.132 9.6079C138.454 9.6079 137.692 9.98883 137.098 10.4121C134.472 12.2321 134.514 12.2321 132.142 9.94651C129.6 10.1158 127.015 10.4544 124.431 9.73488C122.016 9.05767 119.898 10.7507 117.567 10.92C116.678 10.9623 116 11.2586 114.983 10.7084C113.924 10.1158 112.272 10.5814 110.831 10.5814C110.407 10.0312 109.899 9.39627 109.179 8.46511C107.95 10.92 106.213 10.7084 104.137 10.1581C101.638 9.52325 99.138 9.18464 96.5536 10.5391C95.3673 11.1316 93.6303 10.7084 92.1475 10.7084C91.1307 10.7084 90.0291 10.3698 89.0971 10.666C87.6566 11.0893 86.8516 10.6237 85.8348 9.69255C84.352 8.38046 82.6573 7.23767 80.9627 6.17953C80.539 5.92558 79.734 6.34883 79.0985 6.39116C77.531 6.56046 76.0058 6.68744 74.4382 6.81441C73.1248 6.89907 71.7691 6.94139 70.4134 6.98372C69.3118 6.98372 68.1679 6.98372 67.0664 6.85674C65.5836 6.64511 64.2702 6.43348 62.745 7.32232C61.8129 7.87255 60.0335 7.6186 58.932 7.11069C56.9831 6.22186 54.9919 6.01023 52.9159 5.88325C51.6873 5.7986 50.501 5.6293 49.2724 5.37535C48.8911 5.29069 48.3403 4.99442 48.2132 4.65581C47.5354 3.13209 46.222 3.04744 44.9086 3.17442C40.7567 3.68232 36.5624 3.85163 32.3681 4.10558C31.1395 4.1479 29.8685 4.90976 28.6822 5.46C27.7502 5.88325 26.9028 6.47581 25.7166 7.15302C25.5047 5.07907 25.7589 3.04744 23.2593 2.87814C21.7765 1.18512 20.0394 0.38093 18.2177 0H10.5493C9.19356 0.169302 7.8802 0.338604 6.56683 0.0423256H0V810H1439.66L1440 3.59767Z" fill="black"></path></clipPath></defs></svg>