<svg xmlns="http://www.w3.org/2000/svg" viewBox="0 0 66.63 23.49"><defs><style>.cls-1{fill:#ff7900;}.cls-2{fill:#fff;}.cls-3{fill:#9e9e9e;}</style></defs><g id="Layer_2" data-name="Layer 2"><g id="Layer_1-2" data-name="Layer 1"><path class="cls-1" d="M33.33,9.08a5,5,0,0,0-3.15,1.16l1-5H28.34l-.93,4.82a6.07,6.07,0,0,1,1.15,3.68,7.5,7.5,0,0,1-3.06,6.1v.06h2.83l1.22-6.3a2.55,2.55,0,0,1,2.47-2c1.22,0,2,.78,1.66,2.32l-1.14,6h2.83l1.26-6.5C37.14,10.81,35.74,9.08,33.33,9.08Z"/><path class="cls-1" d="M46.14,11.7a4.8,4.8,0,0,0-4.53-2.6,6.37,6.37,0,0,0-6.4,6.3c0,3,2.13,4.77,5,4.77a6.36,6.36,0,0,0,5.17-2.6,6.29,6.29,0,0,0,1.23-3.72A5,5,0,0,0,46.14,11.7Zm-5.6,5.94a2.35,2.35,0,0,1-2.42-2.56,3.33,3.33,0,0,1,3.19-3.47,2.34,2.34,0,0,1,2.4,2.54A3.35,3.35,0,0,1,40.54,17.64Z"/><path class="cls-1" d="M51.31,9.1a6.41,6.41,0,0,0-5.17,2.6,6.23,6.23,0,0,0-1.23,3.7,5,5,0,0,0,.46,2.17,4.76,4.76,0,0,0,4.53,2.6,6.35,6.35,0,0,0,6.4-6.32C56.3,10.83,54.05,9.1,51.31,9.1Zm-1.07,8.54a2.35,2.35,0,0,1-2.42-2.56A3.33,3.33,0,0,1,51,11.61a2.34,2.34,0,0,1,2.4,2.54A3.35,3.35,0,0,1,50.24,17.64Z"/><path class="cls-1" d="M65.34,13.41l-1.27,6.5H61.25l1.14-6c.3-1.54-.44-2.32-1.66-2.32a2.55,2.55,0,0,0-2.47,2L57,19.91H54.21l2-10.57h2.66l-.2,1.07a4.94,4.94,0,0,1,3.33-1.33C64.45,9.08,65.86,10.81,65.34,13.41Z"/><path class="cls-2" d="M23.39,9.1a5.06,5.06,0,0,0-3.49,1.39l.22-1.15H17.5L14.75,23.49h2.83l.9-4.65a3.79,3.79,0,0,0,3,1.33,6.26,6.26,0,0,0,6.08-6.42C27.56,11.09,25.89,9.1,23.39,9.1Zm-1.87,8.56a2.34,2.34,0,0,1-2.38-2.54,3.35,3.35,0,0,1,3.13-3.51,2.39,2.39,0,0,1,2.42,2.56A3.37,3.37,0,0,1,21.52,17.66Z"/><polygon class="cls-2" points="10.92 8.5 6.89 8.5 4.67 19.91 1.82 19.91 4.05 8.5 0 8.5 0.5 5.98 11.43 5.98 10.92 8.5"/><polygon class="cls-2" points="18.92 9.34 13.07 19.91 11.06 23.49 8.26 23.49 10.36 19.91 9.76 19.91 8 9.34 10.82 9.34 11.93 17.18 15.77 9.34 18.92 9.34"/><path class="cls-3" d="M62.18,2.62A3.35,3.35,0,0,1,58.64,6H56.3l1.16-6h2.12A2.46,2.46,0,0,1,62.18,2.62Zm-1.27,0a1.39,1.39,0,0,0-1.49-1.55h-1l-.74,3.81h1A2.17,2.17,0,0,0,60.91,2.63Z"/><path class="cls-3" d="M63.93,4.78h2.19l-.18.89H62.18L62.32,5l2.16-1.79c.71-.57,1-.92,1-1.36a.58.58,0,0,0-.64-.59,1.12,1.12,0,0,0-1,.75L63,1.65A2.16,2.16,0,0,1,65,.3c1,0,1.62.53,1.62,1.3s-.39,1.32-1.35,2.08Z"/></g></g></svg>