<svg xmlns="http://www.w3.org/2000/svg" viewBox="0 0 67.1 26.34"><defs><style>.cls-1{fill:#fff;}.cls-2{fill:#ff7900;}.cls-3{fill:#9e9e9e;}</style></defs><g id="Layer_2" data-name="Layer 2"><g id="Layer_1-2" data-name="Layer 1"><path class="cls-1" d="M.54,4.73,0,7.46H4.37L2,19.77H5L7.45,7.46h4.34l.55-2.73Z"/><path class="cls-1" d="M19.72,12.76a4.64,4.64,0,0,0-4.94-4.65,6.82,6.82,0,0,0-6.73,6.82,5,5,0,0,0,5.24,5.12,6.23,6.23,0,0,0,5.15-2.57l-2-1.51a3.21,3.21,0,0,1-2.77,1.55A2.5,2.5,0,0,1,11,15h8.29A7.22,7.22,0,0,0,19.72,12.76Zm-2.8.22H11.3a3.58,3.58,0,0,1,3.35-2.56,2.14,2.14,0,0,1,2.27,2.39Z"/><path class="cls-1" d="M25.15,17.33a2.51,2.51,0,0,1-2.49-2.79,3.56,3.56,0,0,1,3.42-3.7,2.13,2.13,0,0,1,2.29,2l2.88-1c-.19-2.16-2.23-3.72-4.8-3.72a6.86,6.86,0,0,0-6.88,6.77,5,5,0,0,0,5.23,5.17,6.29,6.29,0,0,0,5.72-3.7l-2.47-1.06A3.21,3.21,0,0,1,25.15,17.33Z"/><path class="cls-1" d="M38.67,8.09a5.37,5.37,0,0,0-3.39,1.25L36.34,4H33.29L30.21,19.77h3.06L34.59,13a2.74,2.74,0,0,1,2.66-2.16c1.32,0,2.12.84,1.8,2.51l-1.24,6.44h3l1.37-7C42.79,10,41.27,8.09,38.67,8.09Z"/><path class="cls-1" d="M50.43,8.09a5.37,5.37,0,0,0-3.6,1.43l.22-1.15H44.17l-1.36,7.05h3.06L46.34,13A2.75,2.75,0,0,1,49,10.82c1.32,0,2.12.84,1.79,2.51l-.29,1.55h3.06L54,12.76C54.54,10,53,8.09,50.43,8.09Z"/><path class="cls-1" d="M61.06,8.11a6.87,6.87,0,0,0-6.91,6.79,5.24,5.24,0,0,0,.88,3h1l-.18.92a5,5,0,0,0,1.76.93L58,17.93h3.08l-.24,1.24a3.9,3.9,0,0,1,3.29-1.42,5.12,5.12,0,0,1,.56,0,6.83,6.83,0,0,0,1.75-4.54C66.44,10,64,8.11,61.06,8.11Zm-1.15,9.22a2.55,2.55,0,0,1-2.62-2.77,3.6,3.6,0,0,1,3.44-3.74,2.53,2.53,0,0,1,2.6,2.74A3.62,3.62,0,0,1,59.91,17.33Z"/><path class="cls-2" d="M50,18.67c0,2.16-1.73,3.71-4.18,3.71h-2l-.73,3.76H40.71l2-10.38H46.8C48.77,15.76,50,16.91,50,18.67ZM47.52,19a1.06,1.06,0,0,0-1.2-1.12H44.69l-.47,2.46H46A1.37,1.37,0,0,0,47.52,19Z"/><path class="cls-2" d="M50.89,15.22h2.38L51.15,26.14H48.77Z"/><path class="cls-2" d="M60.66,18.27l-1.52,7.87H56.9l.15-.77a3.55,3.55,0,0,1-2.38,1c-1.66,0-2.7-1.3-2.33-3.2l.93-4.87h2.37l-.85,4.42c-.19,1,.3,1.53,1,1.53a1.67,1.67,0,0,0,1.6-1.5l.87-4.45Z"/><path class="cls-2" d="M59.69,24.23l2.05-.72a1.34,1.34,0,0,0,1.43,1c.58,0,1-.27,1-.73,0-1.23-3.47-.72-3.47-3.15,0-1.53,1.39-2.59,3.41-2.59,1.6,0,2.79.69,3,1.75L65,20.59a.94.94,0,0,0-1-.77c-.52,0-.92.26-.92.65,0,1.1,3.48.65,3.48,3.15,0,1.63-1.5,2.72-3.62,2.72C61.14,26.34,59.86,25.54,59.69,24.23Z"/><path class="cls-3" d="M56.16,3.87h1.89l-.15.78H54.64L54.77,4l1.87-1.55c.61-.49.88-.8.88-1.18A.49.49,0,0,0,57,.8a1,1,0,0,0-.86.64l-.8-.28A1.87,1.87,0,0,1,57.1,0c.84,0,1.4.45,1.4,1.12s-.35,1.15-1.17,1.8Z"/><path class="cls-3" d="M62.19.81,60.88,1.93A1.21,1.21,0,0,1,62,3.18a1.71,1.71,0,0,1-1.9,1.55c-.9,0-1.55-.45-1.61-1.06l.89-.32a.74.74,0,0,0,.8.59A.79.79,0,0,0,61,3.19a.66.66,0,0,0-.73-.67h-.6l.12-.61L61.13.81h-1.9l.14-.73h3Z"/><path class="cls-3" d="M62.55,2.79A2.56,2.56,0,0,1,64.93,0a1.67,1.67,0,0,1,1.75,1.9,2.61,2.61,0,0,1-2.39,2.83A1.7,1.7,0,0,1,62.55,2.79Zm3.16-.73c0-.77-.33-1.17-.89-1.17-.81,0-1.31.85-1.31,1.79,0,.75.32,1.17.89,1.17C65.21,3.85,65.71,3,65.71,2.06Z"/></g></g></svg>