<svg width="94" height="135" viewBox="0 0 94 135" fill="none" xmlns="http://www.w3.org/2000/svg">
<path d="M40.2617 57.4234C33.9367 57.4234 27.6127 57.4144 21.2877 57.4284C16.2647 57.4394 13.3617 61.3694 14.6997 66.2554C14.9397 67.1314 15.5707 66.8404 16.0657 66.8434C20.6237 66.8664 25.1817 66.8564 29.7407 66.8594C30.1956 66.8345 30.6519 66.8519 31.1036 66.9114C31.3903 66.9521 31.652 67.0969 31.8387 67.3183C32.0254 67.5396 32.1239 67.822 32.1157 68.1115C32.1306 68.4012 32.036 68.6859 31.8508 68.9091C31.6655 69.1323 31.4031 69.2777 31.1157 69.3164C30.7786 69.3712 30.437 69.3939 30.0956 69.3844C23.885 69.3884 17.6744 69.3884 11.4637 69.3844C11.2357 69.3844 11.0077 69.3764 10.7797 69.3694C9.97967 69.3464 9.42469 68.9514 9.40369 68.1554C9.38154 67.982 9.39969 67.8057 9.45673 67.6404C9.51378 67.4751 9.60813 67.3253 9.73255 67.2024C9.85697 67.0795 10.0081 66.987 10.1741 66.932C10.3401 66.8771 10.5165 66.8611 10.6896 66.8854C12.0636 67.0314 12.1517 66.2765 12.0797 65.2475C12.0376 64.5077 12.0376 63.7661 12.0797 63.0264C12.0884 61.94 12.313 60.8661 12.7403 59.8672C13.1676 58.8683 13.7892 57.9644 14.5689 57.2078C15.3485 56.4512 16.2708 55.857 17.2821 55.4599C18.2934 55.0627 19.3735 54.8705 20.4597 54.8944C25.5307 54.8564 30.6027 54.8394 35.6727 54.9154C36.9727 54.9344 37.3166 54.5484 37.2836 53.2824C37.1986 49.9824 37.2717 46.6734 37.2487 43.3694C37.165 42.7717 37.2412 42.1626 37.4696 41.604C37.6979 41.0454 38.0702 40.5573 38.5487 40.1895C39.7317 39.4585 39.7877 38.5075 39.7827 37.3255C39.7487 29.4065 39.7646 21.4854 39.7676 13.5664C39.7412 13.0546 39.7616 12.5415 39.8287 12.0335C39.867 11.7311 40.0133 11.4528 40.2407 11.25C40.4682 11.0472 40.7613 10.9335 41.066 10.93C41.3708 10.9264 41.6664 11.0332 41.8985 11.2307C42.1306 11.4282 42.2834 11.7031 42.3287 12.0044C42.3972 12.5124 42.4196 13.0254 42.3956 13.5374C42.3956 21.5144 42.4266 29.4914 42.3696 37.4684C42.3606 38.7774 42.6637 39.2955 44.0547 39.1845C45.6475 39.0903 47.2443 39.0856 48.8377 39.1704C49.7047 39.2004 50.0377 38.9484 50.0377 38.0274C50.0137 26.688 50.0137 15.3494 50.0377 4.01137C50.0377 3.01937 49.6847 2.72747 48.7457 2.75747C47.0387 2.81047 45.3267 2.81647 43.6187 2.75747C42.6247 2.72247 42.3106 3.12339 42.3826 4.05739C42.4341 4.73943 42.4211 5.42481 42.3436 6.10439C42.3327 6.4244 42.1976 6.72762 41.9668 6.94961C41.736 7.17159 41.4279 7.29496 41.1077 7.29348C40.9486 7.30831 40.7882 7.29025 40.6364 7.24062C40.4845 7.19099 40.3445 7.11082 40.2249 7.0049C40.1053 6.89899 40.0087 6.76963 39.941 6.6249C39.8734 6.48017 39.8362 6.32316 39.8317 6.16347C39.7477 4.57125 39.7477 2.97567 39.8317 1.38344C39.8817 0.512443 40.5687 0.188427 41.4227 0.191427C44.6133 0.203427 47.804 0.203427 50.9946 0.191427C52.4126 0.191427 52.6567 1.08438 52.6537 2.24038C52.6427 7.19738 52.6537 12.1545 52.6537 17.1115C52.6537 24.0635 52.6637 31.0115 52.6417 37.9655C52.5859 38.3496 52.6459 38.7416 52.8141 39.0914C52.9822 39.4413 53.2509 39.733 53.5856 39.9295C54.1321 40.3002 54.5679 40.8121 54.8466 41.4108C55.1254 42.0095 55.2367 42.6725 55.1686 43.3294C55.1416 46.5774 55.2557 49.8294 55.1207 53.0714C55.0701 53.3455 55.079 53.6272 55.1468 53.8976C55.2146 54.168 55.3397 54.4207 55.5137 54.6384C56.0207 55.1174 56.8567 54.9694 60.1227 54.8814C60.3964 54.8398 60.6758 54.8571 60.9424 54.9319C61.209 55.0067 61.4565 55.1375 61.6686 55.3154C61.8576 55.558 61.9509 55.8616 61.9307 56.1685C61.9307 57.3615 60.9886 57.4154 60.0936 57.4154C53.4816 57.4214 46.871 57.424 40.2617 57.4234ZM39.7717 48.5554C39.7717 50.1504 39.7946 51.7465 39.7626 53.3405C39.7446 54.2685 39.7326 54.9404 41.0566 54.9404C42.3186 54.9334 42.4566 54.3694 42.3926 53.3844C42.3505 52.7588 42.3589 52.1307 42.4177 51.5064C42.4951 50.556 42.9269 49.6696 43.6274 49.0228C44.328 48.3761 45.2461 48.0163 46.1996 48.0149C47.1531 48.0135 48.0722 48.3707 48.7747 49.0154C49.4771 49.6601 49.9115 50.5453 49.9916 51.4954C50.0666 52.2328 50.0747 52.9755 50.0157 53.7144C49.9157 54.7754 50.4637 54.9084 51.3447 54.9144C52.2527 54.9224 52.6777 54.7274 52.6597 53.6944C52.6037 50.3344 52.6227 46.9725 52.6477 43.6115C52.6576 42.3405 52.1217 41.6954 50.8247 41.6994C47.7487 41.7074 44.6727 41.7074 41.5967 41.6994C40.3067 41.6994 39.7407 42.3234 39.7647 43.5994C39.7987 45.2514 39.7727 46.9024 39.7717 48.5554ZM44.9717 54.5554L47.2966 54.5674C47.302 53.1421 47.3067 51.7167 47.3107 50.2914L44.9967 50.3704C44.9867 51.7677 44.9773 53.1631 44.9686 54.5564L44.9717 54.5554Z" fill="white"/>
<path d="M59.1755 69.3924C52.1715 69.3924 45.1672 69.3924 38.1625 69.3924C37.6505 69.4053 37.1382 69.3866 36.6285 69.3364C36.3392 69.3221 36.0671 69.1943 35.8715 68.9807C35.6758 68.7671 35.5723 68.4849 35.5835 68.1954C35.5635 68.0382 35.576 67.8785 35.6203 67.7263C35.6646 67.5741 35.7397 67.4327 35.841 67.3108C35.9423 67.1888 36.0676 67.089 36.2091 67.0175C36.3506 66.9461 36.5052 66.9045 36.6635 66.8954C37.1736 66.8465 37.6866 66.8341 38.1985 66.8584C50.7835 66.8584 63.3685 66.8334 75.9535 66.8894C77.3645 66.8964 77.9365 66.5374 77.7285 65.1074C77.6875 64.5396 77.6824 63.9698 77.7135 63.4013C77.6565 59.8013 75.4855 57.5643 71.8685 57.4373C70.3325 57.3833 68.7935 57.4214 67.2565 57.4214C66.3755 57.4214 65.5955 57.2133 65.6065 56.1523C65.6165 55.1123 66.3615 54.8784 67.2625 54.8874C68.8565 54.9034 70.4515 54.8713 72.0455 54.8973C74.1784 54.8762 76.2355 55.6869 77.7805 57.1576C79.3254 58.6282 80.2365 60.643 80.3205 62.7744C80.3653 63.4565 80.3717 64.1405 80.3395 64.8233C80.2895 65.9973 80.1845 67.1233 81.9755 66.9233C82.6015 66.8553 82.9965 67.4644 83.0145 68.0714C83.0293 68.2292 83.0116 68.3885 82.9624 68.5392C82.9132 68.6899 82.8336 68.8288 82.7285 68.9475C82.6235 69.0662 82.4951 69.162 82.3515 69.2291C82.2078 69.2962 82.0519 69.333 81.8935 69.3374C81.3831 69.3818 80.8707 69.3991 80.3585 69.3894C73.2972 69.3934 66.2362 69.3944 59.1755 69.3924Z" fill="white"/>
<path d="M25.365 74.3574C24.6362 78.9688 22.857 83.351 20.165 87.1653C20.0797 87.3173 19.9609 87.4478 19.8175 87.5468C19.6741 87.6458 19.51 87.7108 19.3376 87.7366C19.1653 87.7625 18.9893 87.7487 18.8232 87.6961C18.657 87.6435 18.5051 87.5536 18.379 87.4333C17.647 86.8523 17.773 86.1663 18.236 85.4723C20.219 82.553 21.6453 79.2921 22.443 75.8543C22.605 75.1343 22.763 74.4133 22.901 73.6883C22.9082 73.5163 22.9517 73.3478 23.0286 73.1938C23.1054 73.0398 23.214 72.9038 23.3472 72.7946C23.4803 72.6855 23.6349 72.6057 23.801 72.5605C23.9671 72.5153 24.1409 72.5056 24.311 72.5323C25.121 72.6263 25.463 73.1894 25.365 74.3574Z" fill="white"/>
<path d="M67.0379 74.3415C66.9579 73.1415 67.3319 72.5914 68.1319 72.5274C69.0399 72.4544 69.4059 73.0645 69.5499 73.8925C70.246 78.0518 71.8284 82.0125 74.1899 85.5064C74.2529 85.5994 74.2999 85.7065 74.3539 85.8065C74.4501 85.9501 74.5139 86.1131 74.5407 86.2839C74.5675 86.4547 74.5567 86.6293 74.5091 86.7955C74.4615 86.9617 74.3782 87.1155 74.265 87.2463C74.1519 87.377 74.0116 87.4815 73.8539 87.5524C73.721 87.6397 73.5713 87.6984 73.4145 87.7248C73.2577 87.7512 73.0972 87.7448 72.943 87.7059C72.7888 87.667 72.6443 87.5964 72.5188 87.4987C72.3933 87.4011 72.2895 87.2784 72.2139 87.1385C69.5383 83.3217 67.7682 78.9451 67.0379 74.3415Z" fill="white"/>
<path d="M34.2729 73.6059C33.8608 77.9894 32.8778 82.3002 31.3489 86.4289C31.0489 87.2209 30.6189 87.969 29.6289 87.646C28.5669 87.3 28.5929 86.438 28.9289 85.546C30.345 81.7711 31.2582 77.8262 31.6449 73.813C31.7349 72.908 32.0329 72.052 33.1809 72.213C33.3482 72.2222 33.5116 72.267 33.6602 72.3445C33.8088 72.4219 33.9391 72.5302 34.0425 72.6621C34.1459 72.794 34.2199 72.9463 34.2596 73.1091C34.2994 73.2719 34.3039 73.4413 34.2729 73.6059Z" fill="white"/>
<path d="M42.9219 76.9421C42.7879 79.9471 42.4939 82.9371 42.1399 85.9231C42.0229 86.9141 41.8079 87.8461 40.5869 87.6671C39.4759 87.5041 39.5049 86.5761 39.6019 85.6621C40.0169 81.7701 40.3949 77.8752 40.4599 73.9562C40.4759 73.0162 40.5869 71.9841 41.8449 72.0371C43.0859 72.0891 43.1289 73.0941 43.0789 74.0531C43.0289 75.0121 42.9749 75.9791 42.9219 76.9421Z" fill="white"/>
<path d="M49.4845 76.9757C49.4315 75.8987 49.3734 74.8226 49.3244 73.7456C49.2844 72.8616 49.5245 72.0996 50.5345 72.0266C51.5705 71.9516 51.8785 72.7146 51.9345 73.5816C52.0565 75.5636 52.1185 77.5487 52.2605 79.5277C52.4055 81.5647 52.5945 83.5977 52.8095 85.6277C52.9095 86.6087 52.9384 87.5836 51.6944 87.6806C50.5864 87.7676 50.3874 86.8806 50.2774 85.9566C49.9194 82.9696 49.6255 79.9797 49.4845 76.9757Z" fill="white"/>
<path d="M58.1879 74.0228C58.0879 73.1508 58.2189 72.3539 59.2449 72.2099C60.2709 72.0659 60.6449 72.7848 60.7389 73.6588C61.1376 77.7847 62.0818 81.8393 63.5469 85.7168C63.8689 86.5518 63.7379 87.3608 62.7699 87.6548C61.8849 87.9228 61.4269 87.3288 61.1279 86.5668C59.5974 82.5339 58.6088 78.3158 58.1879 74.0228Z" fill="white"/>
<path d="M1.66374 116.707H0.492352L3.88036 107.48H5.03372L8.42173 116.707H7.25034L4.49308 108.94H4.421L1.66374 116.707ZM2.09625 113.103H6.81783V114.094H2.09625V113.103ZM12.5261 116.851C11.8773 116.851 11.3187 116.698 10.8501 116.392C10.3815 116.085 10.0211 115.663 9.76882 115.126C9.51652 114.588 9.39037 113.974 9.39037 113.283C9.39037 112.58 9.51953 111.96 9.77783 111.422C10.0391 110.882 10.4026 110.46 10.8681 110.156C11.3367 109.85 11.8833 109.697 12.5081 109.697C12.9946 109.697 13.4332 109.787 13.8236 109.967C14.2141 110.147 14.534 110.4 14.7832 110.724C15.0325 111.048 15.1872 111.427 15.2473 111.859H14.184C14.1029 111.544 13.9227 111.265 13.6434 111.021C13.3671 110.775 12.9946 110.652 12.5261 110.652C12.1116 110.652 11.7482 110.76 11.4358 110.976C11.1264 111.19 10.8846 111.491 10.7104 111.882C10.5392 112.269 10.4536 112.724 10.4536 113.247C10.4536 113.782 10.5377 114.247 10.7059 114.644C10.8771 115.04 11.1174 115.348 11.4268 115.567C11.7391 115.786 12.1056 115.896 12.5261 115.896C12.8024 115.896 13.0532 115.848 13.2785 115.752C13.5037 115.656 13.6945 115.518 13.8506 115.337C14.0068 115.157 14.118 114.941 14.184 114.689H15.2473C15.1872 115.097 15.0386 115.465 14.8013 115.792C14.567 116.117 14.2561 116.375 13.8687 116.567C13.4842 116.757 13.0367 116.851 12.5261 116.851ZM19.613 116.851C18.9642 116.851 18.4055 116.698 17.937 116.392C17.4684 116.085 17.108 115.663 16.8557 115.126C16.6034 114.588 16.4773 113.974 16.4773 113.283C16.4773 112.58 16.6064 111.96 16.8647 111.422C17.126 110.882 17.4894 110.46 17.955 110.156C18.4236 109.85 18.9702 109.697 19.5949 109.697C20.0815 109.697 20.52 109.787 20.9105 109.967C21.301 110.147 21.6208 110.4 21.8701 110.724C22.1194 111.048 22.2741 111.427 22.3342 111.859H21.2709C21.1898 111.544 21.0096 111.265 20.7303 111.021C20.454 110.775 20.0815 110.652 19.613 110.652C19.1985 110.652 18.835 110.76 18.5227 110.976C18.2133 111.19 17.9715 111.491 17.7973 111.882C17.6261 112.269 17.5405 112.724 17.5405 113.247C17.5405 113.782 17.6246 114.247 17.7928 114.644C17.964 115.04 18.2043 115.348 18.5137 115.567C18.826 115.786 19.1925 115.896 19.613 115.896C19.8893 115.896 20.1401 115.848 20.3653 115.752C20.5906 115.656 20.7813 115.518 20.9375 115.337C21.0937 115.157 21.2048 114.941 21.2709 114.689H22.3342C22.2741 115.097 22.1254 115.465 21.8882 115.792C21.6539 116.117 21.343 116.375 20.9555 116.567C20.5711 116.757 20.1236 116.851 19.613 116.851ZM26.7899 116.851C26.1232 116.851 25.548 116.704 25.0644 116.41C24.5838 116.112 24.2129 115.698 23.9516 115.166C23.6933 114.632 23.5641 114.01 23.5641 113.301C23.5641 112.592 23.6933 111.967 23.9516 111.427C24.2129 110.883 24.5763 110.46 25.0419 110.156C25.5104 109.85 26.0571 109.697 26.6818 109.697C27.0422 109.697 27.3982 109.757 27.7496 109.877C28.101 109.997 28.4209 110.192 28.7092 110.463C28.9976 110.73 29.2273 111.084 29.3985 111.526C29.5697 111.967 29.6553 112.511 29.6553 113.157V113.607H24.321V112.688H28.5741C28.5741 112.298 28.496 111.949 28.3398 111.643C28.1866 111.337 27.9673 111.095 27.682 110.918C27.3997 110.74 27.0663 110.652 26.6818 110.652C26.2583 110.652 25.8919 110.757 25.5825 110.967C25.2762 111.174 25.0404 111.445 24.8752 111.778C24.71 112.112 24.6274 112.469 24.6274 112.85V113.463C24.6274 113.986 24.7175 114.429 24.8977 114.792C25.0809 115.153 25.3347 115.428 25.6591 115.617C25.9835 115.803 26.3604 115.896 26.7899 115.896C27.0693 115.896 27.3216 115.857 27.5468 115.779C27.7751 115.698 27.9718 115.578 28.137 115.419C28.3022 115.256 28.4299 115.055 28.52 114.815L29.5472 115.103C29.4391 115.452 29.2574 115.758 29.0021 116.022C28.7468 116.284 28.4314 116.488 28.0559 116.635C27.6805 116.779 27.2585 116.851 26.7899 116.851ZM36.1745 111.337L35.2194 111.607C35.1593 111.448 35.0707 111.293 34.9536 111.143C34.8395 110.99 34.6833 110.864 34.485 110.765C34.2868 110.665 34.033 110.616 33.7236 110.616C33.3001 110.616 32.9472 110.713 32.6649 110.909C32.3856 111.101 32.2459 111.346 32.2459 111.643C32.2459 111.907 32.342 112.116 32.5342 112.269C32.7265 112.422 33.0268 112.55 33.4353 112.652L34.4625 112.905C35.0812 113.055 35.5423 113.284 35.8457 113.594C36.149 113.9 36.3007 114.295 36.3007 114.779C36.3007 115.175 36.1866 115.53 35.9583 115.842C35.733 116.154 35.4176 116.401 35.0122 116.581C34.6067 116.761 34.1351 116.851 33.5975 116.851C32.8917 116.851 32.3075 116.698 31.8449 116.392C31.3824 116.085 31.0895 115.638 30.9664 115.049L31.9756 114.797C32.0717 115.169 32.2534 115.449 32.5207 115.635C32.791 115.821 33.144 115.914 33.5795 115.914C34.0751 115.914 34.4685 115.809 34.7599 115.599C35.0542 115.385 35.2014 115.13 35.2014 114.833C35.2014 114.593 35.1173 114.391 34.9491 114.229C34.7809 114.064 34.5226 113.941 34.1742 113.86L33.0208 113.589C32.3871 113.439 31.9215 113.206 31.6242 112.891C31.3298 112.573 31.1826 112.175 31.1826 111.697C31.1826 111.307 31.2923 110.961 31.5115 110.661C31.7338 110.361 32.0356 110.125 32.4171 109.954C32.8016 109.782 33.2371 109.697 33.7236 109.697C34.4085 109.697 34.9461 109.847 35.3366 110.147C35.73 110.448 36.0093 110.844 36.1745 111.337ZM42.803 111.337L41.8479 111.607C41.7878 111.448 41.6992 111.293 41.5821 111.143C41.4679 110.99 41.3117 110.864 41.1135 110.765C40.9153 110.665 40.6615 110.616 40.3521 110.616C39.9286 110.616 39.5757 110.713 39.2934 110.909C39.014 111.101 38.8744 111.346 38.8744 111.643C38.8744 111.907 38.9705 112.116 39.1627 112.269C39.3549 112.422 39.6553 112.55 40.0638 112.652L41.091 112.905C41.7097 113.055 42.1708 113.284 42.4741 113.594C42.7775 113.9 42.9292 114.295 42.9292 114.779C42.9292 115.175 42.815 115.53 42.5867 115.842C42.3615 116.154 42.0461 116.401 41.6406 116.581C41.2351 116.761 40.7636 116.851 40.226 116.851C39.5201 116.851 38.9359 116.698 38.4734 116.392C38.0108 116.085 37.718 115.638 37.5948 115.049L38.604 114.797C38.7002 115.169 38.8819 115.449 39.1492 115.635C39.4195 115.821 39.7724 115.914 40.2079 115.914C40.7035 115.914 41.097 115.809 41.3883 115.599C41.6827 115.385 41.8299 115.13 41.8299 114.833C41.8299 114.593 41.7458 114.391 41.5776 114.229C41.4094 114.064 41.151 113.941 40.8026 113.86L39.6493 113.589C39.0155 113.439 38.55 113.206 38.2526 112.891C37.9583 112.573 37.8111 112.175 37.8111 111.697C37.8111 111.307 37.9207 110.961 38.14 110.661C38.3623 110.361 38.6641 110.125 39.0456 109.954C39.43 109.782 39.8655 109.697 40.3521 109.697C41.0369 109.697 41.5745 109.847 41.965 110.147C42.3585 110.448 42.6378 110.844 42.803 111.337ZM47.341 116.851C46.7163 116.851 46.1681 116.703 45.6965 116.405C45.228 116.108 44.8616 115.692 44.5972 115.157C44.3359 114.623 44.2053 113.998 44.2053 113.283C44.2053 112.562 44.3359 111.933 44.5972 111.395C44.8616 110.858 45.228 110.44 45.6965 110.143C46.1681 109.845 46.7163 109.697 47.341 109.697C47.9657 109.697 48.5124 109.845 48.9809 110.143C49.4525 110.44 49.8189 110.858 50.0802 111.395C50.3445 111.933 50.4767 112.562 50.4767 113.283C50.4767 113.998 50.3445 114.623 50.0802 115.157C49.8189 115.692 49.4525 116.108 48.9809 116.405C48.5124 116.703 47.9657 116.851 47.341 116.851ZM47.341 115.896C47.8156 115.896 48.206 115.774 48.5124 115.531C48.8187 115.288 49.0455 114.968 49.1927 114.572C49.3399 114.175 49.4134 113.746 49.4134 113.283C49.4134 112.82 49.3399 112.389 49.1927 111.99C49.0455 111.59 48.8187 111.268 48.5124 111.021C48.206 110.775 47.8156 110.652 47.341 110.652C46.8664 110.652 46.476 110.775 46.1696 111.021C45.8632 111.268 45.6365 111.59 45.4893 111.99C45.3421 112.389 45.2685 112.82 45.2685 113.283C45.2685 113.746 45.3421 114.175 45.4893 114.572C45.6365 114.968 45.8632 115.288 46.1696 115.531C46.476 115.774 46.8664 115.896 47.341 115.896ZM52.0997 116.707V109.787H53.127V110.832H53.199C53.3252 110.49 53.5535 110.212 53.8839 109.999C54.2142 109.785 54.5867 109.679 55.0012 109.679C55.0793 109.679 55.1769 109.68 55.294 109.683C55.4112 109.686 55.4998 109.691 55.5598 109.697V110.778C55.5238 110.769 55.4412 110.755 55.312 110.737C55.1859 110.716 55.0522 110.706 54.9111 110.706C54.5747 110.706 54.2743 110.777 54.01 110.918C53.7487 111.056 53.5414 111.248 53.3883 111.494C53.2381 111.738 53.163 112.015 53.163 112.328V116.707H52.0997ZM56.8202 116.707V109.787H57.8835V116.707H56.8202ZM57.3608 108.633C57.1536 108.633 56.9749 108.563 56.8247 108.422C56.6775 108.281 56.6039 108.111 56.6039 107.913C56.6039 107.714 56.6775 107.545 56.8247 107.404C56.9749 107.262 57.1536 107.192 57.3608 107.192C57.5681 107.192 57.7453 107.262 57.8925 107.404C58.0426 107.545 58.1177 107.714 58.1177 107.913C58.1177 108.111 58.0426 108.281 57.8925 108.422C57.7453 108.563 57.5681 108.633 57.3608 108.633ZM62.7323 116.851C62.0655 116.851 61.4903 116.704 61.0068 116.41C60.5262 116.112 60.1553 115.698 59.894 115.166C59.6357 114.632 59.5065 114.01 59.5065 113.301C59.5065 112.592 59.6357 111.967 59.894 111.427C60.1553 110.883 60.5187 110.46 60.9842 110.156C61.4528 109.85 61.9994 109.697 62.6242 109.697C62.9846 109.697 63.3405 109.757 63.692 109.877C64.0434 109.997 64.3632 110.192 64.6516 110.463C64.9399 110.73 65.1697 111.084 65.3409 111.526C65.5121 111.967 65.5977 112.511 65.5977 113.157V113.607H60.2634V112.688H64.5164C64.5164 112.298 64.4383 111.949 64.2821 111.643C64.129 111.337 63.9097 111.095 63.6244 110.918C63.342 110.74 63.0086 110.652 62.6242 110.652C62.2007 110.652 61.8343 110.757 61.5249 110.967C61.2185 111.174 60.9827 111.445 60.8176 111.778C60.6524 112.112 60.5698 112.469 60.5698 112.85V113.463C60.5698 113.986 60.6599 114.429 60.8401 114.792C61.0233 115.153 61.2771 115.428 61.6015 115.617C61.9259 115.803 62.3028 115.896 62.7323 115.896C63.0116 115.896 63.2639 115.857 63.4892 115.779C63.7175 115.698 63.9142 115.578 64.0794 115.419C64.2446 115.256 64.3723 115.055 64.4624 114.815L65.4896 115.103C65.3814 115.452 65.1997 115.758 64.9444 116.022C64.6891 116.284 64.3738 116.488 63.9983 116.635C63.6229 116.779 63.2009 116.851 62.7323 116.851ZM72.1169 111.337L71.1618 111.607C71.1017 111.448 71.0131 111.293 70.896 111.143C70.7818 110.99 70.6256 110.864 70.4274 110.765C70.2292 110.665 69.9754 110.616 69.666 110.616C69.2425 110.616 68.8896 110.713 68.6073 110.909C68.3279 111.101 68.1883 111.346 68.1883 111.643C68.1883 111.907 68.2844 112.116 68.4766 112.269C68.6688 112.422 68.9692 112.55 69.3777 112.652L70.4049 112.905C71.0236 113.055 71.4847 113.284 71.788 113.594C72.0914 113.9 72.2431 114.295 72.2431 114.779C72.2431 115.175 72.1289 115.53 71.9007 115.842C71.6754 116.154 71.36 116.401 70.9545 116.581C70.5491 116.761 70.0775 116.851 69.5399 116.851C68.834 116.851 68.2498 116.698 67.7873 116.392C67.3247 116.085 67.0319 115.638 66.9088 115.049L67.9179 114.797C68.0141 115.169 68.1958 115.449 68.4631 115.635C68.7334 115.821 69.0863 115.914 69.5218 115.914C70.0174 115.914 70.4109 115.809 70.7022 115.599C70.9966 115.385 71.1438 115.13 71.1438 114.833C71.1438 114.593 71.0597 114.391 70.8915 114.229C70.7233 114.064 70.465 113.941 70.1165 113.86L68.9632 113.589C68.3294 113.439 67.8639 113.206 67.5665 112.891C67.2722 112.573 67.125 112.175 67.125 111.697C67.125 111.307 67.2346 110.961 67.4539 110.661C67.6762 110.361 67.978 110.125 68.3595 109.954C68.7439 109.782 69.1794 109.697 69.666 109.697C70.3508 109.697 70.8885 109.847 71.2789 110.147C71.6724 110.448 71.9517 110.844 72.1169 111.337ZM80.4934 109.787V110.688H76.763V109.787H80.4934ZM77.8803 116.707V108.832C77.8803 108.435 77.9735 108.105 78.1597 107.841C78.3459 107.576 78.5877 107.378 78.885 107.246C79.1824 107.114 79.4963 107.048 79.8267 107.048C80.088 107.048 80.3012 107.069 80.4664 107.111C80.6316 107.153 80.7547 107.192 80.8358 107.228L80.5295 108.147C80.4754 108.129 80.4003 108.106 80.3042 108.079C80.2111 108.052 80.088 108.039 79.9348 108.039C79.5834 108.039 79.3296 108.127 79.1734 108.305C79.0202 108.482 78.9436 108.742 78.9436 109.084V116.707H77.8803ZM84.5099 116.851C83.8852 116.851 83.3371 116.703 82.8655 116.405C82.3969 116.108 82.0305 115.692 81.7662 115.157C81.5049 114.623 81.3742 113.998 81.3742 113.283C81.3742 112.562 81.5049 111.933 81.7662 111.395C82.0305 110.858 82.3969 110.44 82.8655 110.143C83.3371 109.845 83.8852 109.697 84.5099 109.697C85.1347 109.697 85.6813 109.845 86.1499 110.143C86.6214 110.44 86.9879 110.858 87.2492 111.395C87.5135 111.933 87.6456 112.562 87.6456 113.283C87.6456 113.998 87.5135 114.623 87.2492 115.157C86.9879 115.692 86.6214 116.108 86.1499 116.405C85.6813 116.703 85.1347 116.851 84.5099 116.851ZM84.5099 115.896C84.9845 115.896 85.375 115.774 85.6813 115.531C85.9877 115.288 86.2145 114.968 86.3616 114.572C86.5088 114.175 86.5824 113.746 86.5824 113.283C86.5824 112.82 86.5088 112.389 86.3616 111.99C86.2145 111.59 85.9877 111.268 85.6813 111.021C85.375 110.775 84.9845 110.652 84.5099 110.652C84.0354 110.652 83.6449 110.775 83.3386 111.021C83.0322 111.268 82.8054 111.59 82.6582 111.99C82.5111 112.389 82.4375 112.82 82.4375 113.283C82.4375 113.746 82.5111 114.175 82.6582 114.572C82.8054 114.968 83.0322 115.288 83.3386 115.531C83.6449 115.774 84.0354 115.896 84.5099 115.896ZM89.2687 116.707V109.787H90.2959V110.832H90.368C90.4941 110.49 90.7224 110.212 91.0528 109.999C91.3832 109.785 91.7556 109.679 92.1701 109.679C92.2482 109.679 92.3458 109.68 92.463 109.683C92.5801 109.686 92.6687 109.691 92.7288 109.697V110.778C92.6927 110.769 92.6101 110.755 92.481 110.737C92.3548 110.716 92.2212 110.706 92.08 110.706C91.7436 110.706 91.4433 110.777 91.1789 110.918C90.9176 111.056 90.7104 111.248 90.5572 111.494C90.407 111.738 90.3319 112.015 90.3319 112.328V116.707H89.2687Z" fill="white"/>
<path d="M14.8299 132.094C14.3914 132.094 13.9934 132.011 13.636 131.846C13.2785 131.678 12.9947 131.436 12.7845 131.121C12.5742 130.802 12.4691 130.418 12.4691 129.967C12.4691 129.571 12.5472 129.249 12.7034 129.003C12.8595 128.754 13.0683 128.559 13.3296 128.417C13.5909 128.276 13.8792 128.171 14.1946 128.102C14.513 128.03 14.8329 127.973 15.1543 127.931C15.5748 127.877 15.9157 127.836 16.177 127.809C16.4413 127.779 16.6335 127.73 16.7536 127.661C16.8768 127.592 16.9384 127.471 16.9384 127.3V127.264C16.9384 126.82 16.8167 126.474 16.5734 126.228C16.3331 125.982 15.9682 125.858 15.4786 125.858C14.971 125.858 14.5731 125.97 14.2847 126.192C13.9964 126.414 13.7936 126.651 13.6765 126.904L12.6673 126.543C12.8475 126.123 13.0878 125.795 13.3882 125.561C13.6915 125.324 14.0219 125.159 14.3793 125.066C14.7398 124.969 15.0942 124.921 15.4426 124.921C15.6649 124.921 15.9202 124.948 16.2085 125.002C16.4998 125.054 16.7807 125.16 17.051 125.322C17.3243 125.485 17.5511 125.729 17.7313 126.057C17.9115 126.384 18.0016 126.823 18.0016 127.372V131.932H16.9384V130.995H16.8843C16.8122 131.145 16.6921 131.305 16.5239 131.477C16.3557 131.648 16.1319 131.793 15.8526 131.914C15.5732 132.034 15.2323 132.094 14.8299 132.094ZM14.9921 131.139C15.4126 131.139 15.767 131.056 16.0553 130.891C16.3467 130.726 16.5659 130.512 16.7131 130.251C16.8633 129.99 16.9384 129.715 16.9384 129.427V128.454C16.8933 128.508 16.7942 128.557 16.641 128.602C16.4908 128.644 16.3166 128.682 16.1184 128.715C15.9232 128.745 15.7324 128.772 15.5462 128.796C15.363 128.817 15.2143 128.835 15.1002 128.85C14.8239 128.886 14.5656 128.945 14.3253 129.026C14.088 129.104 13.8958 129.222 13.7486 129.382C13.6044 129.538 13.5323 129.751 13.5323 130.021C13.5323 130.391 13.669 130.67 13.9423 130.859C14.2186 131.046 14.5686 131.139 14.9921 131.139ZM21.0055 122.705V131.932H19.9423V122.705H21.0055ZM24.0162 122.705V131.932H22.953V122.705H24.0162ZM34.722 125.011C34.668 124.555 34.4487 124.2 34.0642 123.948C33.6798 123.696 33.2082 123.57 32.6496 123.57C32.2411 123.57 31.8837 123.636 31.5773 123.768C31.2739 123.9 31.0367 124.082 30.8655 124.313C30.6973 124.544 30.6132 124.807 30.6132 125.102C30.6132 125.348 30.6717 125.56 30.7889 125.737C30.909 125.911 31.0622 126.057 31.2484 126.174C31.4346 126.288 31.6299 126.383 31.8341 126.458C32.0383 126.53 32.2261 126.588 32.3973 126.633L33.3344 126.886C33.5747 126.949 33.842 127.036 34.1363 127.147C34.4337 127.258 34.7175 127.41 34.9878 127.602C35.2612 127.791 35.4864 128.035 35.6636 128.332C35.8408 128.629 35.9294 128.994 35.9294 129.427C35.9294 129.925 35.7988 130.376 35.5375 130.778C35.2792 131.181 34.9007 131.501 34.4021 131.738C33.9066 131.975 33.3043 132.094 32.5955 132.094C31.9347 132.094 31.3625 131.987 30.879 131.774C30.3984 131.561 30.02 131.263 29.7436 130.882C29.4703 130.5 29.3156 130.057 29.2796 129.553H30.4329C30.463 129.901 30.5801 130.19 30.7844 130.418C30.9916 130.643 31.2529 130.811 31.5683 130.922C31.8867 131.031 32.2291 131.085 32.5955 131.085C33.022 131.085 33.405 131.016 33.7444 130.877C34.0838 130.736 34.3526 130.541 34.5508 130.292C34.749 130.039 34.8482 129.745 34.8482 129.409C34.8482 129.102 34.7626 128.853 34.5914 128.661C34.4202 128.469 34.1949 128.312 33.9156 128.192C33.6362 128.072 33.3344 127.967 33.01 127.877L31.8746 127.552C31.1538 127.345 30.5831 127.049 30.1626 126.665C29.7421 126.28 29.5319 125.777 29.5319 125.156C29.5319 124.639 29.6715 124.188 29.9509 123.804C30.2332 123.417 30.6117 123.116 31.0862 122.903C31.5638 122.687 32.0969 122.579 32.6856 122.579C33.2803 122.579 33.8089 122.685 34.2715 122.898C34.734 123.109 35.1005 123.397 35.3708 123.763C35.6441 124.13 35.7883 124.546 35.8033 125.011H34.722ZM41.9835 129.102V125.011H43.0467V131.932H41.9835V130.76H41.9114C41.7492 131.112 41.4969 131.411 41.1545 131.657C40.8121 131.9 40.3796 132.022 39.857 132.022C39.4244 132.022 39.04 131.927 38.7036 131.738C38.3672 131.546 38.1029 131.257 37.9107 130.873C37.7184 130.485 37.6223 129.997 37.6223 129.409V125.011H38.6856V129.337C38.6856 129.841 38.8267 130.244 39.1091 130.544C39.3944 130.844 39.7578 130.995 40.1994 130.995C40.4637 130.995 40.7325 130.927 41.0058 130.792C41.2821 130.657 41.5134 130.449 41.6996 130.17C41.8889 129.891 41.9835 129.535 41.9835 129.102ZM44.9942 131.932V125.011H46.0214V126.057H46.0935C46.2196 125.714 46.4479 125.436 46.7783 125.223C47.1087 125.01 47.4811 124.903 47.8956 124.903C47.9737 124.903 48.0713 124.905 48.1884 124.908C48.3056 124.911 48.3942 124.915 48.4543 124.921V126.003C48.4182 125.994 48.3356 125.98 48.2065 125.962C48.0803 125.941 47.9467 125.931 47.8055 125.931C47.4691 125.931 47.1687 126.001 46.9044 126.142C46.6431 126.28 46.4359 126.473 46.2827 126.719C46.1325 126.962 46.0574 127.24 46.0574 127.552V131.932H44.9942ZM53.2299 125.011V125.913H49.4995V125.011H53.2299ZM50.6168 131.932V124.056C50.6168 123.66 50.7099 123.329 50.8961 123.065C51.0824 122.801 51.3241 122.603 51.6215 122.47C51.9188 122.338 52.2327 122.272 52.5631 122.272C52.8244 122.272 53.0377 122.293 53.2029 122.335C53.3681 122.377 53.4912 122.416 53.5723 122.452L53.2659 123.372C53.2119 123.353 53.1368 123.331 53.0407 123.304C52.9476 123.277 52.8244 123.263 52.6712 123.263C52.3198 123.263 52.066 123.352 51.9098 123.529C51.7567 123.706 51.6801 123.966 51.6801 124.309V131.932H50.6168ZM56.5582 132.094C56.1197 132.094 55.7217 132.011 55.3643 131.846C55.0069 131.678 54.723 131.436 54.5128 131.121C54.3025 130.802 54.1974 130.418 54.1974 129.967C54.1974 129.571 54.2755 129.249 54.4317 129.003C54.5879 128.754 54.7966 128.559 55.0579 128.417C55.3192 128.276 55.6076 128.171 55.923 128.102C56.2413 128.03 56.5612 127.973 56.8826 127.931C57.3031 127.877 57.644 127.836 57.9053 127.809C58.1696 127.779 58.3618 127.73 58.482 127.661C58.6051 127.592 58.6667 127.471 58.6667 127.3V127.264C58.6667 126.82 58.5451 126.474 58.3018 126.228C58.0615 125.982 57.6966 125.858 57.207 125.858C56.6994 125.858 56.3014 125.97 56.0131 126.192C55.7247 126.414 55.522 126.651 55.4048 126.904L54.3957 126.543C54.5759 126.123 54.8161 125.795 55.1165 125.561C55.4199 125.324 55.7503 125.159 56.1077 125.066C56.4681 124.969 56.8225 124.921 57.1709 124.921C57.3932 124.921 57.6485 124.948 57.9368 125.002C58.2282 125.054 58.509 125.16 58.7793 125.322C59.0527 125.485 59.2794 125.729 59.4596 126.057C59.6399 126.384 59.73 126.823 59.73 127.372V131.932H58.6667V130.995H58.6126C58.5406 131.145 58.4204 131.305 58.2522 131.477C58.084 131.648 57.8602 131.793 57.5809 131.914C57.3016 132.034 56.9607 132.094 56.5582 132.094ZM56.7204 131.139C57.1409 131.139 57.4953 131.056 57.7837 130.891C58.075 130.726 58.2943 130.512 58.4414 130.251C58.5916 129.99 58.6667 129.715 58.6667 129.427V128.454C58.6216 128.508 58.5225 128.557 58.3693 128.602C58.2192 128.644 58.045 128.682 57.8467 128.715C57.6515 128.745 57.4608 128.772 57.2746 128.796C57.0913 128.817 56.9427 128.835 56.8285 128.85C56.5522 128.886 56.2939 128.945 56.0536 129.026C55.8163 129.104 55.6241 129.222 55.4769 129.382C55.3328 129.538 55.2607 129.751 55.2607 130.021C55.2607 130.391 55.3973 130.67 55.6707 130.859C55.947 131.046 56.2969 131.139 56.7204 131.139ZM64.482 132.076C63.8332 132.076 63.2745 131.923 62.806 131.616C62.3374 131.31 61.977 130.888 61.7247 130.35C61.4724 129.813 61.3462 129.198 61.3462 128.508C61.3462 127.805 61.4754 127.185 61.7337 126.647C61.995 126.106 62.3584 125.684 62.824 125.381C63.2925 125.075 63.8392 124.921 64.4639 124.921C64.9505 124.921 65.389 125.011 65.7795 125.192C66.1699 125.372 66.4898 125.624 66.7391 125.949C66.9884 126.273 67.1431 126.651 67.2032 127.084H66.1399C66.0588 126.769 65.8786 126.489 65.5993 126.246C65.3229 126 64.9505 125.876 64.482 125.876C64.0675 125.876 63.704 125.985 63.3917 126.201C63.0823 126.414 62.8405 126.716 62.6663 127.106C62.4951 127.494 62.4095 127.949 62.4095 128.472C62.4095 129.006 62.4936 129.472 62.6618 129.868C62.833 130.265 63.0733 130.573 63.3827 130.792C63.695 131.011 64.0615 131.121 64.482 131.121C64.7583 131.121 65.0091 131.073 65.2343 130.977C65.4596 130.88 65.6503 130.742 65.8065 130.562C65.9627 130.382 66.0738 130.166 66.1399 129.913H67.2032C67.1431 130.322 66.9944 130.69 66.7571 131.017C66.5229 131.341 66.212 131.6 65.8245 131.792C65.4401 131.981 64.9926 132.076 64.482 132.076ZM71.6589 132.076C70.9921 132.076 70.417 131.929 69.9334 131.634C69.4528 131.337 69.0819 130.922 68.8206 130.391C68.5623 129.856 68.4331 129.234 68.4331 128.526C68.4331 127.817 68.5623 127.192 68.8206 126.651C69.0819 126.108 69.4453 125.684 69.9109 125.381C70.3794 125.075 70.9261 124.921 71.5508 124.921C71.9112 124.921 72.2672 124.981 72.6186 125.102C72.97 125.222 73.2899 125.417 73.5782 125.687C73.8665 125.955 74.0963 126.309 74.2675 126.751C74.4387 127.192 74.5243 127.736 74.5243 128.381V128.832H69.19V127.913H73.443C73.443 127.522 73.365 127.174 73.2088 126.868C73.0556 126.561 72.8363 126.32 72.551 126.142C72.2687 125.965 71.9353 125.876 71.5508 125.876C71.1273 125.876 70.7609 125.982 70.4515 126.192C70.1451 126.399 69.9094 126.669 69.7442 127.003C69.579 127.336 69.4964 127.694 69.4964 128.075V128.688C69.4964 129.21 69.5865 129.653 69.7667 130.017C69.9499 130.377 70.2037 130.652 70.5281 130.841C70.8525 131.028 71.2294 131.121 71.6589 131.121C71.9383 131.121 72.1906 131.082 72.4158 131.004C72.6441 130.922 72.8408 130.802 73.006 130.643C73.1712 130.481 73.2989 130.28 73.389 130.039L74.4162 130.328C74.3081 130.676 74.1264 130.983 73.8711 131.247C73.6157 131.508 73.3004 131.712 72.9249 131.86C72.5495 132.004 72.1275 132.076 71.6589 132.076ZM81.0435 126.561L80.0884 126.832C80.0283 126.672 79.9397 126.518 79.8226 126.368C79.7085 126.214 79.5523 126.088 79.354 125.989C79.1558 125.89 78.902 125.84 78.5926 125.84C78.1691 125.84 77.8162 125.938 77.5339 126.133C77.2546 126.326 77.1149 126.57 77.1149 126.868C77.1149 127.132 77.211 127.341 77.4032 127.494C77.5955 127.647 77.8958 127.775 78.3043 127.877L79.3315 128.129C79.9502 128.279 80.4113 128.509 80.7146 128.818C81.018 129.125 81.1697 129.52 81.1697 130.003C81.1697 130.4 81.0555 130.754 80.8273 131.067C80.602 131.379 80.2866 131.625 79.8812 131.805C79.4757 131.986 79.0041 132.076 78.4665 132.076C77.7607 132.076 77.1765 131.923 76.7139 131.616C76.2514 131.31 75.9585 130.862 75.8354 130.274L76.8446 130.021C76.9407 130.394 77.1224 130.673 77.3897 130.859C77.66 131.046 78.0129 131.139 78.4485 131.139C78.9441 131.139 79.3375 131.034 79.6289 130.823C79.9232 130.61 80.0704 130.355 80.0704 130.057C80.0704 129.817 79.9863 129.616 79.8181 129.454C79.6499 129.289 79.3916 129.165 79.0432 129.084L77.8898 128.814C77.2561 128.664 76.7905 128.431 76.4932 128.116C76.1988 127.797 76.0516 127.399 76.0516 126.922C76.0516 126.531 76.1613 126.186 76.3805 125.885C76.6028 125.585 76.9046 125.349 77.2861 125.178C77.6705 125.007 78.1061 124.921 78.5926 124.921C79.2774 124.921 79.8151 125.072 80.2055 125.372C80.599 125.672 80.8783 126.069 81.0435 126.561Z" fill="white"/>
</svg>
