<svg width="100" height="138" viewBox="0 0 100 138" fill="none" xmlns="http://www.w3.org/2000/svg">
<path d="M45.5028 66.341C45.5028 64.284 45.4658 62.226 45.5208 60.171C45.5565 59.9919 45.555 59.8075 45.5167 59.629C45.4783 59.4505 45.4038 59.2817 45.2978 59.1331C45.1917 58.9845 45.0564 58.8592 44.9 58.765C44.7437 58.6707 44.5697 58.6095 44.3888 58.585C41.0819 57.639 38.1772 55.6332 36.121 52.8759C34.0649 50.1186 32.9711 46.7623 33.0078 43.3229C32.9588 40.7799 32.9778 38.235 33.0018 35.691C33.0278 32.991 34.1918 31.8299 36.8498 31.7719C39.2798 31.7189 39.1568 32.2949 39.1658 29.4169C39.1728 27.5229 39.1288 25.6269 39.1848 23.7339C39.1584 23.2951 39.2216 22.8554 39.3705 22.4417C39.5195 22.028 39.751 21.649 40.0512 21.3277C40.3513 21.0064 40.7137 20.7495 41.1163 20.5727C41.5189 20.3959 41.9532 20.3029 42.3929 20.2994C42.8326 20.2958 43.2684 20.3818 43.6738 20.5521C44.0791 20.7223 44.4456 20.9734 44.7509 21.2899C45.0561 21.6063 45.2938 21.9816 45.4493 22.3929C45.6049 22.8041 45.6752 23.2427 45.6558 23.6819C45.7188 25.9529 45.7158 28.2289 45.6558 30.5009C45.6308 31.5009 45.9828 31.839 46.9658 31.788C48.2649 31.7198 49.5667 31.7198 50.8658 31.788C51.8488 31.839 52.2028 31.4989 52.1758 30.4999C52.1188 28.3369 52.1368 26.1699 52.1688 24.0049C52.2028 21.7099 53.4228 20.321 55.3598 20.293C57.3598 20.264 58.6278 21.682 58.6598 24.059C58.6888 26.059 58.7448 28.069 58.6408 30.066C58.5708 31.394 58.9498 31.9429 60.3408 31.7919C60.9029 31.687 61.4811 31.7063 62.035 31.8481C62.589 31.9899 63.1053 32.2509 63.5478 32.613C63.8708 32.8633 64.1355 33.1806 64.3239 33.5432C64.5122 33.9057 64.6197 34.3048 64.6388 34.713C64.5988 38.496 65.0698 42.313 64.3988 46.056C63.2558 52.437 59.4228 56.603 53.2868 58.57C53.082 58.5967 52.8848 58.6648 52.7072 58.7702C52.5296 58.8756 52.3753 59.0159 52.2537 59.1828C52.1321 59.3497 52.0457 59.5396 51.9998 59.7409C51.954 59.9422 51.9495 60.1508 51.9868 60.3539C52.0298 64.4669 52.0238 68.582 51.9998 72.695C52.0488 74.2034 51.7455 75.7024 51.114 77.0732C50.4825 78.4439 49.5402 79.6486 48.3618 80.5916C47.1835 81.5346 45.8016 82.1899 44.3257 82.5056C42.8499 82.8212 41.3208 82.7885 39.8598 82.41C30.2286 80.2943 21.6636 74.8225 15.696 66.9725C9.72826 59.1224 6.74681 49.4059 7.28452 39.5598C7.82222 29.7136 11.8441 20.3795 18.6311 13.226C25.4182 6.07253 34.528 1.56588 44.3323 0.511658C54.1367 -0.542567 63.9964 1.92444 72.1491 7.4715C80.3018 13.0186 86.216 21.2842 88.8347 30.791C91.4534 40.2977 90.6058 50.426 86.4434 59.3653C82.281 68.3046 75.0751 75.4722 66.1138 79.587C65.4881 79.9062 64.8278 80.1525 64.1458 80.321C63.4169 80.4313 62.6723 80.2851 62.0392 79.9074C61.4062 79.5297 60.9239 78.9438 60.6748 78.2499C60.406 77.5926 60.3706 76.863 60.5744 76.1827C60.7782 75.5023 61.2089 74.9123 61.7948 74.5109C62.2963 74.1928 62.8242 73.9185 63.3728 73.691C70.2899 70.5117 75.9886 65.1739 79.613 58.4793C83.2374 51.7848 84.5919 44.095 83.4728 36.565C81.4178 21.718 69.4728 9.607 54.3828 7.065C34.8418 3.772 16.1998 17.9489 13.9438 37.8189C12.9621 46.3724 15.1618 54.9882 20.1238 62.0241C25.0858 69.0601 32.4631 74.0244 40.8498 75.971C43.7858 76.656 45.4848 75.34 45.5038 72.347C45.5138 70.347 45.5028 68.344 45.5028 66.341ZM58.1718 42.041C58.1718 40.987 58.1228 40.2799 58.1838 39.5829C58.2678 38.6389 57.9898 38.249 56.9498 38.258C51.5498 38.304 46.1498 38.2929 40.7498 38.2659C39.8628 38.2609 39.4608 38.526 39.4978 39.46C39.5638 41.078 39.4678 42.707 39.6028 44.317C39.7953 46.49 40.7481 48.5256 42.2935 50.0654C43.839 51.6051 45.878 52.5504 48.0518 52.7349C50.1695 52.8903 52.2778 52.3286 54.0373 51.1401C55.7969 49.9516 57.1052 48.2054 57.7518 46.1829C58.1215 44.8349 58.2635 43.4357 58.1718 42.041Z" fill="white"/>
<path d="M1.43373 119.211V109.984H7.00231V110.975H2.55105V114.093H6.71397V115.084H2.55105V118.22H7.0744V119.211H1.43373ZM9.93528 115.048V119.211H8.87202V112.291H9.89924V113.372H9.98934C10.1515 113.021 10.3978 112.738 10.7282 112.525C11.0586 112.309 11.4851 112.201 12.0077 112.201C12.4763 112.201 12.8863 112.297 13.2377 112.489C13.5891 112.678 13.8624 112.967 14.0577 113.354C14.2529 113.738 14.3505 114.225 14.3505 114.814V119.211H13.2872V114.886C13.2872 114.342 13.1461 113.919 12.8637 113.615C12.5814 113.309 12.1939 113.156 11.7014 113.156C11.362 113.156 11.0586 113.229 10.7913 113.377C10.527 113.524 10.3182 113.738 10.1651 114.021C10.0119 114.303 9.93528 114.646 9.93528 115.048ZM19.1949 119.355C18.5281 119.355 17.9529 119.208 17.4693 118.914C16.9887 118.616 16.6178 118.202 16.3565 117.67C16.0982 117.135 15.969 116.514 15.969 115.805C15.969 115.096 16.0982 114.471 16.3565 113.931C16.6178 113.387 16.9812 112.964 17.4468 112.66C17.9153 112.354 18.462 112.201 19.0867 112.201C19.4472 112.201 19.8031 112.261 20.1545 112.381C20.5059 112.501 20.8258 112.696 21.1141 112.967C21.4025 113.234 21.6322 113.588 21.8034 114.03C21.9746 114.471 22.0602 115.015 22.0602 115.661V116.111H16.7259V115.192H20.979C20.979 114.802 20.9009 114.453 20.7447 114.147C20.5915 113.841 20.3722 113.599 20.0869 113.422C19.8046 113.244 19.4712 113.156 19.0867 113.156C18.6632 113.156 18.2968 113.261 17.9874 113.471C17.6811 113.678 17.4453 113.949 17.2801 114.282C17.1149 114.616 17.0323 114.973 17.0323 115.354V115.967C17.0323 116.49 17.1224 116.933 17.3026 117.296C17.4858 117.657 17.7396 117.931 18.064 118.121C18.3884 118.307 18.7653 118.4 19.1949 118.4C19.4742 118.4 19.7265 118.361 19.9517 118.283C20.18 118.202 20.3767 118.082 20.5419 117.922C20.7071 117.76 20.8348 117.559 20.9249 117.319L21.9521 117.607C21.844 117.955 21.6623 118.262 21.407 118.526C21.1517 118.787 20.8363 118.992 20.4608 119.139C20.0854 119.283 19.6634 119.355 19.1949 119.355ZM23.6777 119.211V112.291H24.7049V113.336H24.777C24.9031 112.994 25.1314 112.716 25.4618 112.503C25.7922 112.289 26.1646 112.183 26.5791 112.183C26.6572 112.183 26.7548 112.184 26.8719 112.187C26.9891 112.19 27.0777 112.195 27.1377 112.201V113.282C27.1017 113.273 27.0191 113.259 26.89 113.241C26.7638 113.22 26.6301 113.21 26.489 113.21C26.1526 113.21 25.8522 113.28 25.5879 113.422C25.3266 113.56 25.1194 113.752 24.9662 113.998C24.816 114.242 24.7409 114.519 24.7409 114.832V119.211H23.6777ZM30.9808 121.95C30.4672 121.95 30.0257 121.884 29.6562 121.752C29.2868 121.623 28.9789 121.452 28.7326 121.238C28.4893 121.028 28.2956 120.803 28.1514 120.563L28.9984 119.968C29.0946 120.094 29.2162 120.238 29.3634 120.4C29.5105 120.566 29.7118 120.708 29.9671 120.828C30.2254 120.951 30.5633 121.013 30.9808 121.013C31.5394 121.013 32.0005 120.878 32.3639 120.608C32.7274 120.337 32.9091 119.914 32.9091 119.337V117.931H32.819C32.7409 118.058 32.6297 118.214 32.4856 118.4C32.3444 118.583 32.1402 118.747 31.8728 118.891C31.6085 119.032 31.2511 119.103 30.8006 119.103C30.2419 119.103 29.7403 118.971 29.2958 118.706C28.8543 118.442 28.5044 118.058 28.2461 117.553C27.9908 117.048 27.8631 116.436 27.8631 115.715C27.8631 115.006 27.9877 114.389 28.237 113.863C28.4863 113.334 28.8332 112.926 29.2778 112.638C29.7223 112.346 30.2359 112.201 30.8186 112.201C31.2691 112.201 31.6265 112.276 31.8909 112.426C32.1582 112.573 32.3624 112.741 32.5036 112.931C32.6478 113.117 32.7589 113.27 32.837 113.39H32.9451V112.291H33.9723V119.409C33.9723 120.004 33.8372 120.487 33.5668 120.86C33.2995 121.235 32.9391 121.51 32.4856 121.684C32.035 121.862 31.5334 121.95 30.9808 121.95ZM30.9447 118.148C31.3712 118.148 31.7317 118.05 32.026 117.855C32.3204 117.66 32.5441 117.379 32.6973 117.012C32.8505 116.646 32.9271 116.207 32.9271 115.697C32.9271 115.198 32.852 114.758 32.7018 114.377C32.5516 113.995 32.3294 113.696 32.035 113.48C31.7407 113.264 31.3773 113.156 30.9447 113.156C30.4942 113.156 30.1188 113.27 29.8184 113.498C29.5211 113.726 29.2973 114.033 29.1471 114.417C28.9999 114.802 28.9264 115.228 28.9264 115.697C28.9264 116.177 29.0014 116.602 29.1516 116.972C29.3048 117.338 29.5301 117.627 29.8274 117.837C30.1278 118.044 30.5002 118.148 30.9447 118.148ZM36.6034 121.806C36.4232 121.806 36.2625 121.791 36.1214 121.761C35.9802 121.734 35.8826 121.707 35.8285 121.68L36.0988 120.743C36.3571 120.809 36.5854 120.833 36.7836 120.815C36.9819 120.797 37.1576 120.708 37.3108 120.549C37.467 120.393 37.6096 120.139 37.7388 119.788L37.937 119.247L35.378 112.291H36.5313L38.4416 117.805H38.5137L40.424 112.291H41.5773L38.6398 120.22C38.5077 120.578 38.344 120.873 38.1488 121.108C37.9535 121.345 37.7268 121.521 37.4685 121.635C37.2132 121.749 36.9248 121.806 36.6034 121.806ZM46.6931 119.211V109.984H52.2617V110.975H47.8104V114.093H51.9734V115.084H47.8104V118.22H52.3338V119.211H46.6931ZM57.2131 112.291V113.192H53.4826V112.291H57.2131ZM54.6 119.211V111.336C54.6 110.939 54.6931 110.609 54.8793 110.344C55.0655 110.08 55.3073 109.882 55.6046 109.75C55.902 109.618 56.2159 109.552 56.5463 109.552C56.8076 109.552 57.0208 109.573 57.186 109.615C57.3512 109.657 57.4744 109.696 57.5555 109.732L57.2491 110.651C57.195 110.633 57.1199 110.61 57.0238 110.583C56.9307 110.556 56.8076 110.543 56.6544 110.543C56.303 110.543 56.0492 110.631 55.893 110.809C55.7398 110.986 55.6632 111.246 55.6632 111.588V119.211H54.6ZM61.7848 112.291V113.192H58.0544V112.291H61.7848ZM59.1717 119.211V111.336C59.1717 110.939 59.2649 110.609 59.4511 110.344C59.6373 110.08 59.8791 109.882 60.1764 109.75C60.4738 109.618 60.7877 109.552 61.118 109.552C61.3794 109.552 61.5926 109.573 61.7578 109.615C61.923 109.657 62.0461 109.696 62.1272 109.732L61.8209 110.651C61.7668 110.633 61.6917 110.61 61.5956 110.583C61.5025 110.556 61.3794 110.543 61.2262 110.543C60.8748 110.543 60.621 110.631 60.4648 110.809C60.3116 110.986 60.235 111.246 60.235 111.588V119.211H59.1717ZM63.275 119.211V112.291H64.3382V119.211H63.275ZM63.8156 111.137C63.6084 111.137 63.4297 111.067 63.2795 110.926C63.1323 110.784 63.0587 110.615 63.0587 110.417C63.0587 110.218 63.1323 110.049 63.2795 109.907C63.4297 109.766 63.6084 109.696 63.8156 109.696C64.0229 109.696 64.2001 109.766 64.3472 109.907C64.4974 110.049 64.5725 110.218 64.5725 110.417C64.5725 110.615 64.4974 110.784 64.3472 110.926C64.2001 111.067 64.0229 111.137 63.8156 111.137ZM69.097 119.355C68.4482 119.355 67.8895 119.202 67.421 118.896C66.9524 118.589 66.592 118.167 66.3397 117.63C66.0874 117.092 65.9613 116.478 65.9613 115.787C65.9613 115.084 66.0904 114.464 66.3487 113.926C66.61 113.386 66.9735 112.964 67.439 112.66C67.9076 112.354 68.4542 112.201 69.079 112.201C69.5655 112.201 70.004 112.291 70.3945 112.471C70.785 112.651 71.1048 112.903 71.3541 113.228C71.6034 113.552 71.7581 113.931 71.8182 114.363H70.7549C70.6738 114.048 70.4936 113.769 70.2143 113.525C69.938 113.279 69.5655 113.156 69.097 113.156C68.6825 113.156 68.3191 113.264 68.0067 113.48C67.6973 113.693 67.4555 113.995 67.2813 114.386C67.1101 114.773 67.0245 115.228 67.0245 115.751C67.0245 116.285 67.1086 116.751 67.2768 117.147C67.448 117.544 67.6883 117.852 67.9977 118.071C68.31 118.29 68.6765 118.4 69.097 118.4C69.3733 118.4 69.6241 118.352 69.8494 118.256C70.0746 118.16 70.2654 118.022 70.4215 117.841C70.5777 117.661 70.6889 117.445 70.7549 117.193H71.8182C71.7581 117.601 71.6094 117.969 71.3722 118.296C71.1379 118.621 70.827 118.879 70.4396 119.071C70.0551 119.26 69.6076 119.355 69.097 119.355ZM73.3725 119.211V112.291H74.4358V119.211H73.3725ZM73.9132 111.137C73.7059 111.137 73.5272 111.067 73.377 110.926C73.2299 110.784 73.1563 110.615 73.1563 110.417C73.1563 110.218 73.2299 110.049 73.377 109.907C73.5272 109.766 73.7059 109.696 73.9132 109.696C74.1204 109.696 74.2976 109.766 74.4448 109.907C74.595 110.049 74.6701 110.218 74.6701 110.417C74.6701 110.615 74.595 110.784 74.4448 110.926C74.2976 111.067 74.1204 111.137 73.9132 111.137ZM79.2846 119.355C78.6179 119.355 78.0427 119.208 77.5591 118.914C77.0785 118.616 76.7076 118.202 76.4463 117.67C76.188 117.135 76.0588 116.514 76.0588 115.805C76.0588 115.096 76.188 114.471 76.4463 113.931C76.7076 113.387 77.071 112.964 77.5366 112.66C78.0051 112.354 78.5518 112.201 79.1765 112.201C79.5369 112.201 79.8929 112.261 80.2443 112.381C80.5957 112.501 80.9156 112.696 81.2039 112.967C81.4923 113.234 81.722 113.588 81.8932 114.03C82.0644 114.471 82.15 115.015 82.15 115.661V116.111H76.8157V115.192H81.0688C81.0688 114.802 80.9907 114.453 80.8345 114.147C80.6813 113.841 80.462 113.599 80.1767 113.422C79.8944 113.244 79.561 113.156 79.1765 113.156C78.753 113.156 78.3866 113.261 78.0772 113.471C77.7709 113.678 77.5351 113.949 77.3699 114.282C77.2047 114.616 77.1221 114.973 77.1221 115.354V115.967C77.1221 116.49 77.2122 116.933 77.3924 117.296C77.5756 117.657 77.8294 117.931 78.1538 118.121C78.4782 118.307 78.8551 118.4 79.2846 118.4C79.564 118.4 79.8163 118.361 80.0415 118.283C80.2698 118.202 80.4665 118.082 80.6317 117.922C80.7969 117.76 80.9246 117.559 81.0147 117.319L82.0419 117.607C81.9338 117.955 81.7521 118.262 81.4968 118.526C81.2415 118.787 80.9261 118.992 80.5506 119.139C80.1752 119.283 79.7532 119.355 79.2846 119.355ZM84.8307 115.048V119.211H83.7674V112.291H84.7947V113.372H84.8848C85.047 113.021 85.2933 112.738 85.6236 112.525C85.954 112.309 86.3805 112.201 86.9032 112.201C87.3717 112.201 87.7817 112.297 88.1331 112.489C88.4845 112.678 88.7578 112.967 88.9531 113.354C89.1483 113.738 89.2459 114.225 89.2459 114.814V119.211H88.1827V114.886C88.1827 114.342 88.0415 113.919 87.7592 113.615C87.4768 113.309 87.0894 113.156 86.5968 113.156C86.2574 113.156 85.954 113.229 85.6867 113.377C85.4224 113.524 85.2137 113.738 85.0605 114.021C84.9073 114.303 84.8307 114.646 84.8307 115.048ZM94.1984 112.291V113.192H90.6122V112.291H94.1984ZM91.6574 110.633H92.7207V117.229C92.7207 117.529 92.7642 117.754 92.8513 117.904C92.9414 118.052 93.0556 118.151 93.1937 118.202C93.3349 118.25 93.4836 118.274 93.6397 118.274C93.7569 118.274 93.853 118.268 93.9281 118.256C94.0032 118.241 94.0632 118.229 94.1083 118.22L94.3246 119.175C94.2525 119.202 94.1519 119.229 94.0227 119.256C93.8935 119.286 93.7299 119.301 93.5316 119.301C93.2313 119.301 92.9369 119.236 92.6486 119.107C92.3632 118.978 92.126 118.781 91.9367 118.517C91.7505 118.253 91.6574 117.919 91.6574 117.517V110.633ZM97.3837 117.949L97.3116 118.436C97.2605 118.778 97.1824 119.145 97.0773 119.535C96.9752 119.926 96.8686 120.294 96.7574 120.639C96.6463 120.985 96.5547 121.259 96.4826 121.464H95.6716C95.7107 121.271 95.7618 121.018 95.8248 120.702C95.8879 120.387 95.951 120.034 96.0141 119.643C96.0801 119.256 96.1342 118.86 96.1762 118.454L96.2303 117.949H97.3837Z" fill="white"/>
<path d="M8.73451 134.436V125.209H14.3031V126.2H9.85183V129.317H14.0148V130.309H9.85183V133.444H14.3752V134.436H8.73451ZM16.9657 127.515L18.6237 130.345L20.2817 127.515H21.5071L19.2725 130.975L21.5071 134.436H20.2817L18.6237 131.75L16.9657 134.436H15.7403L17.9389 130.975L15.7403 127.515H16.9657ZM26.0338 127.515V128.416H22.4476V127.515H26.0338ZM23.4928 125.857H24.5561V132.453C24.5561 132.754 24.5996 132.979 24.6867 133.129C24.7769 133.276 24.891 133.375 25.0291 133.426C25.1703 133.474 25.319 133.498 25.4752 133.498C25.5923 133.498 25.6884 133.492 25.7635 133.48C25.8386 133.465 25.8987 133.453 25.9437 133.444L26.16 134.4C26.0879 134.427 25.9873 134.454 25.8581 134.481C25.729 134.511 25.5653 134.526 25.367 134.526C25.0667 134.526 24.7723 134.461 24.484 134.332C24.1987 134.203 23.9614 134.006 23.7722 133.742C23.5859 133.477 23.4928 133.144 23.4928 132.742V125.857ZM30.4603 134.58C29.7935 134.58 29.2184 134.433 28.7348 134.138C28.2542 133.841 27.8833 133.426 27.622 132.895C27.3637 132.36 27.2345 131.738 27.2345 131.03C27.2345 130.321 27.3637 129.696 27.622 129.155C27.8833 128.612 28.2467 128.188 28.7123 127.885C29.1808 127.578 29.7275 127.425 30.3522 127.425C30.7126 127.425 31.0685 127.485 31.42 127.605C31.7714 127.726 32.0912 127.921 32.3796 128.191C32.6679 128.458 32.8977 128.813 33.0689 129.254C33.2401 129.696 33.3257 130.24 33.3257 130.885V131.336H27.9914V130.417H32.2444C32.2444 130.026 32.1663 129.678 32.0102 129.372C31.857 129.065 31.6377 128.823 31.3524 128.646C31.07 128.469 30.7366 128.38 30.3522 128.38C29.9287 128.38 29.5623 128.486 29.2529 128.696C28.9465 128.903 28.7108 129.173 28.5456 129.507C28.3804 129.84 28.2978 130.198 28.2978 130.579V131.192C28.2978 131.714 28.3879 132.157 28.5681 132.521C28.7513 132.881 29.0051 133.156 29.3295 133.345C29.6539 133.531 30.0308 133.625 30.4603 133.625C30.7397 133.625 30.9919 133.586 31.2172 133.507C31.4455 133.426 31.6422 133.306 31.8074 133.147C31.9726 132.985 32.1003 132.784 32.1904 132.543L33.2176 132.832C33.1095 133.18 32.9277 133.486 32.6724 133.751C32.4171 134.012 32.1018 134.216 31.7263 134.363C31.3509 134.508 30.9289 134.58 30.4603 134.58ZM36.0064 130.273V134.436H34.9431V127.515H35.9703V128.597H36.0604C36.2226 128.245 36.4689 127.963 36.7993 127.75C37.1297 127.533 37.5562 127.425 38.0788 127.425C38.5474 127.425 38.9574 127.521 39.3088 127.714C39.6602 127.903 39.9335 128.191 40.1288 128.579C40.324 128.963 40.4216 129.45 40.4216 130.038V134.436H39.3583V130.11C39.3583 129.567 39.2172 129.143 38.9348 128.84C38.6525 128.534 38.265 128.38 37.7725 128.38C37.4331 128.38 37.1297 128.454 36.8624 128.601C36.5981 128.748 36.3893 128.963 36.2362 129.245C36.083 129.528 36.0064 129.87 36.0064 130.273ZM44.9776 134.58C44.4009 134.58 43.8918 134.434 43.4503 134.143C43.0088 133.848 42.6634 133.434 42.4141 132.899C42.1648 132.362 42.0401 131.726 42.0401 130.993C42.0401 130.267 42.1648 129.636 42.4141 129.101C42.6634 128.567 43.0103 128.154 43.4548 127.862C43.8993 127.571 44.4129 127.425 44.9956 127.425C45.4462 127.425 45.8021 127.5 46.0634 127.651C46.3277 127.798 46.5289 127.966 46.6671 128.155C46.8083 128.341 46.9179 128.495 46.996 128.615H47.0861V125.209H48.1494V134.436H47.1221V133.372H46.996C46.9179 133.498 46.8068 133.658 46.6626 133.85C46.5184 134.039 46.3127 134.209 46.0454 134.359C45.7781 134.506 45.4221 134.58 44.9776 134.58ZM45.1218 133.625C45.5483 133.625 45.9087 133.513 46.2031 133.291C46.4974 133.066 46.7212 132.755 46.8744 132.359C47.0275 131.959 47.1041 131.498 47.1041 130.975C47.1041 130.459 47.029 130.007 46.8789 129.619C46.7287 129.229 46.5064 128.926 46.2121 128.709C45.9177 128.49 45.5543 128.38 45.1218 128.38C44.6712 128.38 44.2958 128.496 43.9954 128.727C43.6981 128.956 43.4743 129.266 43.3242 129.66C43.177 130.05 43.1034 130.489 43.1034 130.975C43.1034 131.468 43.1785 131.916 43.3287 132.318C43.4818 132.718 43.7071 133.036 44.0045 133.273C44.3048 133.507 44.6773 133.625 45.1218 133.625ZM53.1458 134.58C52.479 134.58 51.9038 134.433 51.4202 134.138C50.9397 133.841 50.5687 133.426 50.3074 132.895C50.0491 132.36 49.92 131.738 49.92 131.03C49.92 130.321 50.0491 129.696 50.3074 129.155C50.5687 128.612 50.9322 128.188 51.3977 127.885C51.8663 127.578 52.4129 127.425 53.0376 127.425C53.3981 127.425 53.754 127.485 54.1054 127.605C54.4568 127.726 54.7767 127.921 55.065 128.191C55.3534 128.458 55.5831 128.813 55.7544 129.254C55.9256 129.696 56.0112 130.24 56.0112 130.885V131.336H50.6768V130.417H54.9299C54.9299 130.026 54.8518 129.678 54.6956 129.372C54.5424 129.065 54.3232 128.823 54.0378 128.646C53.7555 128.469 53.4221 128.38 53.0376 128.38C52.6141 128.38 52.2477 128.486 51.9383 128.696C51.632 128.903 51.3962 129.173 51.231 129.507C51.0658 129.84 50.9832 130.198 50.9832 130.579V131.192C50.9832 131.714 51.0733 132.157 51.2535 132.521C51.4367 132.881 51.6905 133.156 52.0149 133.345C52.3393 133.531 52.7163 133.625 53.1458 133.625C53.4251 133.625 53.6774 133.586 53.9027 133.507C54.1309 133.426 54.3277 133.306 54.4929 133.147C54.6581 132.985 54.7857 132.784 54.8758 132.543L55.903 132.832C55.7949 133.18 55.6132 133.486 55.3579 133.751C55.1026 134.012 54.7872 134.216 54.4118 134.363C54.0363 134.508 53.6143 134.58 53.1458 134.58ZM60.2417 134.58C59.665 134.58 59.1559 134.434 58.7144 134.143C58.2728 133.848 57.9274 133.434 57.6781 132.899C57.4288 132.362 57.3042 131.726 57.3042 130.993C57.3042 130.267 57.4288 129.636 57.6781 129.101C57.9274 128.567 58.2743 128.154 58.7189 127.862C59.1634 127.571 59.677 127.425 60.2597 127.425C60.7102 127.425 61.0661 127.5 61.3274 127.651C61.5918 127.798 61.793 127.966 61.9312 128.155C62.0723 128.341 62.182 128.495 62.26 128.615H62.3502V125.209H63.4134V134.436H62.3862V133.372H62.26C62.182 133.498 62.0708 133.658 61.9267 133.85C61.7825 134.039 61.5767 134.209 61.3094 134.359C61.0421 134.506 60.6862 134.58 60.2417 134.58ZM60.3858 133.625C60.8123 133.625 61.1728 133.513 61.4671 133.291C61.7615 133.066 61.9852 132.755 62.1384 132.359C62.2916 131.959 62.3682 131.498 62.3682 130.975C62.3682 130.459 62.2931 130.007 62.1429 129.619C61.9927 129.229 61.7705 128.926 61.4761 128.709C61.1818 128.49 60.8183 128.38 60.3858 128.38C59.9353 128.38 59.5599 128.496 59.2595 128.727C58.9621 128.956 58.7384 129.266 58.5882 129.66C58.441 130.05 58.3674 130.489 58.3674 130.975C58.3674 131.468 58.4425 131.916 58.5927 132.318C58.7459 132.718 58.9712 133.036 59.2685 133.273C59.5689 133.507 59.9413 133.625 60.3858 133.625ZM75.2759 125.209H76.3933V131.318C76.3933 131.949 76.2446 132.512 75.9472 133.007C75.6529 133.5 75.2369 133.889 74.6992 134.174C74.1616 134.457 73.5309 134.598 72.807 134.598C72.0832 134.598 71.4524 134.457 70.9148 134.174C70.3771 133.889 69.9596 133.5 69.6623 133.007C69.3679 132.512 69.2208 131.949 69.2208 131.318V125.209H70.3381V131.228C70.3381 131.678 70.4372 132.079 70.6354 132.431C70.8337 132.779 71.116 133.054 71.4824 133.255C71.8519 133.453 72.2934 133.553 72.807 133.553C73.3206 133.553 73.7621 133.453 74.1316 133.255C74.501 133.054 74.7833 132.779 74.9786 132.431C75.1768 132.079 75.2759 131.678 75.2759 131.228V125.209ZM83.3821 129.065L82.427 129.336C82.3669 129.176 82.2783 129.022 82.1612 128.871C82.0471 128.718 81.8909 128.592 81.6926 128.493C81.4944 128.394 81.2406 128.344 80.9312 128.344C80.5077 128.344 80.1548 128.442 79.8725 128.637C79.5932 128.829 79.4535 129.074 79.4535 129.372C79.4535 129.636 79.5496 129.845 79.7418 129.998C79.9341 130.151 80.2344 130.279 80.6429 130.381L81.6701 130.633C82.2888 130.783 82.7499 131.013 83.0533 131.322C83.3566 131.629 83.5083 132.024 83.5083 132.507C83.5083 132.904 83.3942 133.258 83.1659 133.571C82.9406 133.883 82.6252 134.129 82.2198 134.309C81.8143 134.49 81.3427 134.58 80.8051 134.58C80.0993 134.58 79.5151 134.427 79.0525 134.12C78.59 133.814 78.2971 133.366 78.174 132.778L79.1832 132.525C79.2793 132.898 79.461 133.177 79.7283 133.363C79.9986 133.549 80.3516 133.643 80.7871 133.643C81.2827 133.643 81.6761 133.537 81.9675 133.327C82.2618 133.114 82.409 132.859 82.409 132.561C82.409 132.321 82.3249 132.12 82.1567 131.958C81.9885 131.792 81.7302 131.669 81.3818 131.588L80.2284 131.318C79.5947 131.168 79.1291 130.935 78.8318 130.62C78.5374 130.301 78.3902 129.903 78.3902 129.426C78.3902 129.035 78.4999 128.69 78.7191 128.389C78.9414 128.089 79.2432 127.853 79.6247 127.682C80.0092 127.511 80.4447 127.425 80.9312 127.425C81.6161 127.425 82.1537 127.575 82.5442 127.876C82.9376 128.176 83.2169 128.573 83.3821 129.065ZM88.0102 134.58C87.3435 134.58 86.7683 134.433 86.2847 134.138C85.8041 133.841 85.4332 133.426 85.1719 132.895C84.9136 132.36 84.7844 131.738 84.7844 131.03C84.7844 130.321 84.9136 129.696 85.1719 129.155C85.4332 128.612 85.7966 128.188 86.2622 127.885C86.7307 127.578 87.2774 127.425 87.9021 127.425C88.2625 127.425 88.6185 127.485 88.9699 127.605C89.3213 127.726 89.6412 127.921 89.9295 128.191C90.2178 128.458 90.4476 128.813 90.6188 129.254C90.79 129.696 90.8756 130.24 90.8756 130.885V131.336H85.5413V130.417H89.7943C89.7943 130.026 89.7163 129.678 89.5601 129.372C89.4069 129.065 89.1876 128.823 88.9023 128.646C88.62 128.469 88.2866 128.38 87.9021 128.38C87.4786 128.38 87.1122 128.486 86.8028 128.696C86.4964 128.903 86.2607 129.173 86.0955 129.507C85.9303 129.84 85.8477 130.198 85.8477 130.579V131.192C85.8477 131.714 85.9378 132.157 86.118 132.521C86.3012 132.881 86.555 133.156 86.8794 133.345C87.2038 133.531 87.5807 133.625 88.0102 133.625C88.2896 133.625 88.5419 133.586 88.7671 133.507C88.9954 133.426 89.1921 133.306 89.3573 133.147C89.5225 132.985 89.6502 132.784 89.7403 132.543L90.7675 132.832C90.6594 133.18 90.4777 133.486 90.2224 133.751C89.9671 134.012 89.6517 134.216 89.2762 134.363C88.9008 134.508 88.4788 134.58 88.0102 134.58Z" fill="white"/>
</svg>
