<svg xmlns="http://www.w3.org/2000/svg" viewBox="0 0 81.16 81.16"><defs><style>.cls-1{fill:#161616;}</style></defs><g id="Layer_2" data-name="Layer 2"><g id="Layer_1-2" data-name="Layer 1"><path class="cls-1" d="M71.72,81.16H9.44A9.45,9.45,0,0,1,0,71.72V9.44A9.46,9.46,0,0,1,9.44,0H71.72a9.46,9.46,0,0,1,9.44,9.44V71.72A9.45,9.45,0,0,1,71.72,81.16ZM9.44.76A8.68,8.68,0,0,0,.76,9.44V71.72a8.69,8.69,0,0,0,8.68,8.69H71.72a8.69,8.69,0,0,0,8.68-8.69V9.44A8.68,8.68,0,0,0,71.72.76Z"/><path class="cls-1" d="M20.83,29.86v3.78H27.6V36.8H20.83v6.93H17.18v-17H28.5v3.16Z"/><path class="cls-1" d="M42.25,30.82V43.73H38.84V42.51a5.21,5.21,0,0,1-3.77,1.54c-3.28,0-5-2.25-5-5.19v-8H33.7v7.57a2.46,2.46,0,0,0,4.92.07V30.82Z"/><path class="cls-1" d="M44.85,25.82h3.62V43.73H44.85Z"/><path class="cls-1" d="M51.07,25.82H54.7V43.73H51.07Z"/><path class="cls-1" d="M69.79,30.82,65,43.73l-1.59,4.39H59.87l1.74-4.39h-1.2L56.09,30.82h3.75l2.92,10,3.28-10Z"/><path class="cls-1" d="M30.56,54h-5L23.7,57.4H21.76l6.87-12.73h2.26L32.83,57.4H31.07Zm-.23-1.52-.87-5.9-3.14,5.9Z"/><path class="cls-1" d="M42.81,47.75,40.94,57.4H39.18l.26-1.33a4.4,4.4,0,0,1-3.32,1.55c-2.12,0-3.44-1.53-3-4l1.14-5.86h1.85L35.08,53.3C34.73,55,35.59,56,37,56a2.94,2.94,0,0,0,2.86-2.4L41,47.75Z"/><path class="cls-1" d="M43.3,53.89l.88-4.55H42.49l.32-1.59h.93a1,1,0,0,0,1.06-.94l.3-1.55h1.79l-.49,2.49h2.65l-.31,1.59H46l-.84,4.33c-.28,1.39.33,2.1,1.55,2.1h.88l-.33,1.63H46.07C43.9,57.4,42.9,56.05,43.3,53.89Z"/><path class="cls-1" d="M47.33,53.34a5.78,5.78,0,0,1,5.75-5.79,4.1,4.1,0,0,1,4.38,4.28,5.76,5.76,0,0,1-5.73,5.79A4.1,4.1,0,0,1,47.33,53.34ZM55.57,52a2.59,2.59,0,0,0-2.69-2.8,3.82,3.82,0,0,0-3.65,3.92A2.63,2.63,0,0,0,51.94,56,3.83,3.83,0,0,0,55.57,52Z"/></g></g></svg>