<svg width="53" height="52" viewBox="0 0 53 52" fill="none" xmlns="http://www.w3.org/2000/svg">
<path d="M0.683799 25.9509C0.683799 22.1259 0.652788 18.3008 0.690788 14.4768C0.750788 8.33282 3.55079 3.88449 9.09679 1.21949C10.9041 0.391734 12.8754 -0.0159975 14.8628 0.0266225C22.6918 0.0266225 30.5218 -0.0433346 38.3498 0.0456654C44.4438 0.115665 48.8058 3.05587 51.3978 8.55787C52.1897 10.3322 52.5771 12.2604 52.5318 14.2029C52.5318 22.0319 52.6008 29.8627 52.5108 37.6907C52.4418 43.7847 49.5008 48.1466 43.9998 50.7376C42.2253 51.5292 40.2973 51.9171 38.3548 51.8728C30.5248 51.8728 22.6948 51.9408 14.8668 51.8518C8.77278 51.7818 4.40979 48.8416 1.81979 43.3396C1.01572 41.5215 0.627292 39.5471 0.682792 37.5598C0.686792 33.6898 0.687132 29.8203 0.683799 25.9509ZM26.6568 3.09986V3.07057C22.7878 3.07057 18.9188 3.07857 15.0498 3.07057C13.5517 3.03494 12.0621 3.30421 10.6713 3.86207C9.28055 4.41994 8.01771 5.2547 6.95953 6.31568C5.90134 7.37667 5.06989 8.64171 4.51571 10.0339C3.96153 11.4262 3.6962 12.9168 3.7358 14.4148C3.7148 22.1078 3.7278 29.8019 3.7358 37.4949C3.71742 38.1246 3.75084 38.7545 3.83578 39.3787C4.20402 42.0374 5.53577 44.4682 7.57815 46.2097C9.62052 47.9513 12.2313 48.8824 14.9148 48.8259C22.6978 48.8599 30.4818 48.8327 38.2648 48.8357C39.9127 48.8766 41.5475 48.5323 43.0388 47.8298C45.0215 46.9558 46.6957 45.5059 47.844 43.6682C48.9922 41.8306 49.5614 39.6899 49.4778 37.5247C49.5088 29.8087 49.4888 22.0927 49.4838 14.3767C49.491 13.5896 49.4271 12.8032 49.2928 12.0276C48.8454 9.60709 47.5912 7.40949 45.7347 5.79322C43.8782 4.17696 41.5288 3.23747 39.0698 3.1277C34.9378 3.0137 30.7958 3.09986 26.6568 3.09986Z" fill="white"/>
<path d="M40.7836 25.937C40.7859 28.7406 39.9569 31.4816 38.4013 33.814C36.8457 36.1463 34.6335 37.9655 32.0442 39.0405C29.455 40.1156 26.6051 40.3986 23.855 39.854C21.1048 39.3094 18.5779 37.9612 16.5938 35.9805C14.6098 33.9997 13.2576 31.4753 12.7083 28.7261C12.159 25.9769 12.4373 23.1267 13.508 20.5356C14.5787 17.9446 16.3936 15.729 18.7234 14.1694C21.0531 12.6099 23.793 11.7763 26.5966 11.7739C30.3525 11.7823 33.9525 13.2766 36.6105 15.9302C39.2686 18.5837 40.7688 22.1811 40.7836 25.937ZM37.7336 25.9302C37.7298 23.7289 37.0732 21.578 35.8467 19.75C34.6202 17.922 32.8791 16.4992 30.8436 15.6611C28.8081 14.823 26.5697 14.6075 24.4118 15.042C22.2538 15.4764 20.2732 16.5411 18.7206 18.1016C17.1679 19.662 16.1131 21.648 15.6895 23.8081C15.2659 25.9682 15.4927 28.2056 16.341 30.2368C17.1893 32.2681 18.6211 34.002 20.4552 35.2192C22.2893 36.4365 24.4433 37.082 26.6446 37.0747C29.5911 37.0612 32.4123 35.8813 34.4906 33.7925C36.5689 31.7037 37.7349 28.8767 37.7336 25.9302Z" fill="white"/>
<path d="M41.1294 6.74707C42.2313 6.75479 43.2865 7.1937 44.0689 7.96973C44.8513 8.74576 45.2987 9.79708 45.3154 10.8989C45.3147 11.4488 45.2058 11.9932 44.9948 12.501C44.7838 13.0087 44.4748 13.4696 44.0855 13.8579C43.6962 14.2462 43.2343 14.5544 42.7261 14.7642C42.2178 14.974 41.6733 15.0817 41.1234 15.0811C40.5736 15.0804 40.0292 14.9713 39.5215 14.7603C39.0137 14.5492 38.5526 14.2403 38.1642 13.8511C37.7759 13.4618 37.468 12.9999 37.2582 12.4917C37.0484 11.9835 36.9408 11.439 36.9414 10.8892C36.9566 9.78741 37.4042 8.73575 38.1876 7.96094C38.971 7.18612 40.0275 6.75011 41.1294 6.74707ZM41.1224 12.0469C41.2688 12.0489 41.4141 12.022 41.5501 11.9678C41.6861 11.9136 41.81 11.8331 41.9149 11.731C42.0197 11.6288 42.1034 11.5071 42.1612 11.3726C42.2189 11.238 42.2496 11.0932 42.2514 10.9468C42.2545 10.6507 42.1418 10.3651 41.9375 10.1509C41.7332 9.93664 41.4533 9.81073 41.1574 9.7998C41.0054 9.79796 40.8545 9.82622 40.7134 9.88281C40.5723 9.9394 40.4438 10.0235 40.3352 10.1299C40.2266 10.2363 40.14 10.363 40.0805 10.5029C40.021 10.6428 39.9897 10.7928 39.9884 10.9448C39.9942 11.2407 40.1166 11.5223 40.3289 11.7285C40.5413 11.9347 40.8264 12.0498 41.1224 12.0469Z" fill="white"/>
</svg>
