<svg width="120" height="27" viewBox="0 0 120 27" fill="none" xmlns="http://www.w3.org/2000/svg">
<path d="M0.609375 0.982422H7.57617V25.6254H0.609375V0.982422Z" fill="white"/>
<path d="M36.6641 10.1007V25.6257H29.79V11.4567C29.8391 10.8034 29.7474 10.1472 29.521 9.53243C29.2946 8.91765 28.939 8.35863 28.478 7.89315C28.017 7.42768 27.4612 7.0666 26.8486 6.83431C26.2361 6.60203 25.581 6.50396 24.9272 6.54674C24.3069 6.51564 23.6865 6.60712 23.1016 6.81594C22.5166 7.02477 21.9784 7.34685 21.5181 7.76376C21.0577 8.18067 20.6841 8.68424 20.4185 9.24567C20.1528 9.8071 20.0006 10.4154 19.9702 11.0357V25.6257H13.0503V0.982745H19.5962V3.27375C20.5769 2.31543 21.7406 1.56469 23.0181 1.06642C24.2955 0.568141 25.6607 0.332556 27.0312 0.373743C32.9233 0.374743 36.6641 4.34974 36.6641 10.1007Z" fill="white"/>
<path d="M64.252 0.982422L55.1802 25.6254H47.1372L38.1123 0.982422H45.2671L51.1592 18.8914L57.0972 0.982422H64.252Z" fill="white"/>
<path d="M94.6916 13.3746C94.6569 11.6601 94.9698 9.95631 95.6115 8.36602C96.2531 6.77573 97.2102 5.33185 98.425 4.12146C99.6397 2.91108 101.087 1.95924 102.679 1.32336C104.272 0.687478 105.977 0.380716 107.692 0.421574C114.378 0.421574 118.492 4.82158 119.569 8.51058L113.395 10.9426C113.117 9.68458 112.409 8.56266 111.394 7.76918C110.379 6.9757 109.119 6.56009 107.831 6.59358C104.371 6.59358 101.659 9.21258 101.659 13.3276C101.659 17.4426 104.371 20.0606 107.831 20.0606C109.131 20.1047 110.406 19.7019 111.444 18.9193C112.482 18.1368 113.221 17.0218 113.536 15.7606L119.708 18.2396C118.633 21.8396 114.519 26.2396 107.692 26.2396C105.984 26.2827 104.285 25.9805 102.697 25.3509C101.11 24.7214 99.6649 23.7776 98.4508 22.5761C97.2367 21.3746 96.2781 19.9403 95.632 18.3591C94.9859 16.7779 94.6662 15.0825 94.6916 13.3746Z" fill="white"/>
<path d="M77.6705 0.00012734C74.2227 -0.0151225 70.9098 1.33989 68.4611 3.76708C66.0123 6.19427 64.6282 9.49481 64.6129 12.9426C64.5977 16.3904 65.9523 19.7031 68.3795 22.1519C70.8067 24.6006 74.1075 25.9849 77.5553 26.0001V19.3601C76.3028 19.3371 75.0851 18.9446 74.0548 18.232C73.0246 17.5193 72.2277 16.5183 71.7643 15.3544C71.3009 14.1905 71.1918 12.9158 71.4503 11.69C71.7088 10.4643 72.3235 9.34218 73.2174 8.46456C74.1113 7.58694 75.2444 6.9929 76.4747 6.75699C77.705 6.52107 78.9778 6.65379 80.1329 7.13849C81.2881 7.62318 82.2743 8.43827 82.9679 9.48145C83.6615 10.5246 84.0314 11.7494 84.0314 13.0021V26.0021H90.6705V13.0001C90.6705 9.55231 89.3009 6.24571 86.8629 3.80774C84.4249 1.36976 81.1184 0.00012734 77.6705 0.00012734Z" fill="white"/>
<path d="M92.1392 25.5839V25.9999H82.769V25.5829C82.7688 25.3921 82.8061 25.203 82.8789 25.0266C82.9518 24.8502 83.059 24.6899 83.1938 24.5549C83.3287 24.4199 83.4887 24.3127 83.665 24.2396C83.8413 24.1665 84.0303 24.1289 84.2212 24.1289H90.686C90.877 24.1289 91.0663 24.1666 91.2427 24.2397C91.4191 24.3128 91.5794 24.4201 91.7144 24.5552C91.8493 24.6903 91.9564 24.8507 92.0293 25.0273C92.1022 25.2038 92.1394 25.3929 92.1392 25.5839Z" fill="#F16012"/>
</svg>
