<svg width="44" height="31" viewBox="0 0 44 31" fill="none" xmlns="http://www.w3.org/2000/svg">
<path d="M29.4561 0.596203C29.3216 0.435386 29.1552 0.304401 28.9673 0.211438C28.7794 0.118474 28.5742 0.065495 28.3647 0.0561643C28.1553 0.0468335 27.9464 0.0818409 27.751 0.157727C27.5556 0.233613 27.3782 0.349349 27.23 0.497571C27.0818 0.645792 26.966 0.822679 26.8901 1.01808C26.8143 1.21348 26.7797 1.42293 26.7891 1.63234C26.7984 1.84175 26.8514 2.047 26.9443 2.23488C27.0373 2.42275 27.1683 2.5887 27.3291 2.72316L38.1812 13.5874H2.31519C1.92763 13.6074 1.56243 13.7758 1.29517 14.0571C1.0279 14.3385 0.878906 14.7111 0.878906 15.0991C0.878906 15.4872 1.0279 15.8607 1.29517 16.1421C1.56243 16.4235 1.92763 16.5919 2.31519 16.6118H38.1821L27.3142 27.4634C27.0403 27.7495 26.8872 28.1308 26.8872 28.5269C26.8872 28.923 27.0403 29.3033 27.3142 29.5894C27.4536 29.7294 27.6191 29.8407 27.8015 29.9165C27.9839 29.9923 28.1797 30.0317 28.3772 30.0317C28.5747 30.0317 28.7702 29.9923 28.9526 29.9165C29.1351 29.8407 29.3008 29.7294 29.4402 29.5894L42.8821 16.1499C43.025 16.0121 43.1389 15.8463 43.2166 15.6636C43.2942 15.4809 43.3342 15.285 43.3342 15.0864C43.3342 14.8879 43.2942 14.691 43.2166 14.5083C43.1389 14.3256 43.025 14.1607 42.8821 14.023L29.4561 0.596203Z" fill="#F16012"/>
</svg>
