<svg width="92" height="138" viewBox="0 0 92 138" fill="none" xmlns="http://www.w3.org/2000/svg">
<path d="M32.8182 83.5657H32.7183C32.0908 83.5083 31.487 83.2978 30.9598 82.9528C30.4326 82.6078 29.998 82.1387 29.6943 81.5867C28.9026 80.1652 28.4182 78.5933 28.2723 76.9727L28.2283 76.6946C28.0779 75.2156 27.502 73.8121 26.5703 72.6537C25.4232 71.2679 24.7274 69.5643 24.5762 67.7716C24.363 65.9783 23.7477 64.2562 22.7762 62.7337C20.7731 59.487 19.9901 55.6337 20.5673 51.8627C20.8256 50.2121 20.8097 48.5301 20.5203 46.8847C20.3379 47.0367 20.1665 47.2015 20.0073 47.3777C19.6536 47.8735 19.1645 48.2568 18.5985 48.4817C18.0326 48.7066 17.4138 48.7635 16.8163 48.6457C14.7398 48.0726 12.8443 46.978 11.3102 45.4657C10.8861 45.092 10.6231 44.5685 10.5765 44.005C10.5299 43.4416 10.7032 42.882 11.0602 42.4436C11.1466 42.3517 11.2127 42.2428 11.2543 42.1237C11.1049 41.9701 10.937 41.8357 10.7543 41.7237C10.4118 41.5502 10.1196 41.2918 9.90546 40.9732C9.69134 40.6545 9.56249 40.2863 9.53125 39.9037C9.57914 39.4945 9.72587 39.103 9.9588 38.7631C10.1917 38.4232 10.5039 38.145 10.8683 37.9527C12.2373 37.0357 13.9362 35.8957 16.2582 36.6357C16.2472 36.6007 16.2343 36.5637 16.2203 36.5237C15.7139 34.7917 14.8192 33.1979 13.6042 31.8637C13.054 31.381 12.6862 30.724 12.5624 30.0026C12.4386 29.2812 12.5664 28.5392 12.9243 27.9007C13.2136 27.181 13.7609 26.5951 14.4591 26.2572C15.1573 25.9194 15.9564 25.854 16.7003 26.0736C19.9533 27.0166 21.0003 25.9267 22.3323 22.3827C23.1252 20.2665 24.4472 18.3886 26.1722 16.9286C26.5572 16.5946 26.6923 16.3207 26.6893 16.1747C26.6863 16.0287 26.5363 15.8256 26.2783 15.6206C25.3614 14.8542 24.6656 13.8571 24.2627 12.7321C23.8598 11.6071 23.7644 10.3948 23.9863 9.22062C24.1177 8.60843 24.102 7.9739 23.9406 7.36894C23.7791 6.76397 23.4763 6.20587 23.0573 5.74064C22.6747 5.37221 22.3975 4.90841 22.2543 4.39701C22.111 3.88562 22.1068 3.34524 22.2422 2.8317C22.4336 2.30564 22.7618 1.84007 23.193 1.48307C23.6242 1.12607 24.1427 0.890558 24.6953 0.800698C25.6578 0.56975 26.6575 0.539305 27.6323 0.711342C28.607 0.883379 29.536 1.25422 30.3613 1.8007C31.1491 2.30764 31.9082 2.85777 32.6353 3.44865C34.5643 5.03065 35.7062 5.19173 37.1542 4.08573C37.7309 3.63222 38.4634 3.42485 39.1922 3.50895C39.921 3.59305 40.5871 3.96177 41.0453 4.53471C41.5197 5.03749 41.7993 5.69286 41.8341 6.38322C41.8689 7.07358 41.6566 7.75371 41.2352 8.30167C40.8972 8.8661 40.5266 9.41036 40.1252 9.93168C39.8951 10.1636 39.7501 10.4665 39.7137 10.7913C39.6774 11.1161 39.752 11.4436 39.9252 11.7206C40.1686 12.0882 40.3323 12.5028 40.4056 12.9375C40.479 13.3723 40.4604 13.8174 40.3511 14.2445C40.2418 14.6716 40.0442 15.0711 39.7711 15.4172C39.4979 15.7632 39.1553 16.0482 38.7653 16.2537C38.1233 16.6877 38.0123 16.9256 37.9993 16.9596C38.213 17.2483 38.481 17.4925 38.7883 17.6786C39.3506 18.0588 39.9321 18.4099 40.5303 18.7306C40.8413 18.9046 41.1532 19.0797 41.4592 19.2607C41.8997 19.4501 42.295 19.731 42.6189 20.0845C42.9428 20.4381 43.188 20.8563 43.3383 21.3117C43.3755 21.7594 43.3173 22.2099 43.1675 22.6335C43.0177 23.057 42.7797 23.444 42.4692 23.7687C42.2698 23.9899 42.1204 24.2515 42.0312 24.5357C42.2562 24.666 42.4929 24.7747 42.7383 24.8606C43.304 25.0717 43.8002 25.4351 44.1722 25.9107C44.7642 26.7375 45.5901 27.3681 46.5436 27.7214C47.4971 28.0746 48.5346 28.1343 49.5223 27.8927C50.9935 27.6998 52.4866 28.0129 53.7563 28.7807L54.1113 28.9717C54.7313 29.3037 55.3163 29.6186 55.9203 29.8716C57.1203 30.3836 57.8103 30.3717 58.0563 30.1957C58.1703 30.1127 58.5353 29.7197 58.3953 28.1697L58.3702 27.9367C58.285 27.641 58.2624 27.3308 58.3038 27.0259C58.3453 26.721 58.4499 26.4282 58.6111 26.1661C58.7722 25.9039 58.9863 25.6782 59.2396 25.5036C59.493 25.3289 59.78 25.209 60.0823 25.1516C60.7424 24.9265 61.4625 24.9534 62.1041 25.227C62.7457 25.5005 63.2636 26.0015 63.5583 26.6337L63.6202 26.7516C63.7667 26.9991 63.8702 27.2696 63.9263 27.5517C63.9401 27.8027 64.0429 28.0406 64.2162 28.2227C64.2912 28.2737 64.5402 28.3777 65.2062 28.2387C65.9133 28.0885 66.6301 27.9882 67.3513 27.9386C68.3513 27.8716 68.5593 27.8587 68.8563 26.7947C69.2218 25.5017 69.9233 24.3285 70.8894 23.3946C71.8555 22.4606 73.0516 21.7993 74.3563 21.4777C75.7346 21.1126 77.1844 21.1133 78.5624 21.4797C79.9405 21.846 81.1991 22.5653 82.2142 23.5667C82.5933 23.8604 82.8965 24.2406 83.0983 24.6756C83.3002 25.1106 83.3948 25.5876 83.3743 26.0667C83.1963 27.0667 82.2533 27.6127 81.4523 27.9797C79.8559 28.7612 78.5099 29.9735 77.5663 31.4797C77.3823 31.7477 77.3513 31.9737 77.6353 32.6797C77.8817 33.2536 78.0047 33.8728 77.9963 34.4974C77.9878 35.1219 77.8481 35.7377 77.5862 36.3047C77.2942 36.8714 76.8862 37.3703 76.3889 37.7691C75.8915 38.1679 75.3159 38.4577 74.6993 38.6197C74.1293 38.7877 74.0352 38.9487 74.0262 38.9677C74.0172 38.9867 73.9263 39.1967 74.1923 39.8797C74.3103 40.1877 74.4412 40.4917 74.5712 40.7967C74.7942 41.3157 75.0232 41.8536 75.2062 42.4226C75.3718 42.892 75.3579 43.4061 75.1672 43.8658C74.9765 44.3255 74.6225 44.6983 74.1733 44.9126C73.3943 45.2596 72.6823 44.9947 72.0573 44.1247L71.9742 44.0127C71.6366 43.6273 71.3662 43.1878 71.1743 42.7127C70.7943 41.6197 70.4863 41.5247 69.6443 41.7627C69.3364 41.8681 69.0093 41.9055 68.6855 41.8727C68.3617 41.8399 68.0488 41.7376 67.7682 41.5727C67.4109 41.2866 67.1179 40.9285 66.908 40.5218C66.6982 40.115 66.5762 39.6687 66.5502 39.2117C66.4208 38.144 66.6211 37.0623 67.1243 36.1117C66.1381 36.082 65.1709 35.8337 64.2922 35.3849C63.4136 34.9362 62.6455 34.2981 62.0433 33.5166C61.8708 33.6871 61.7555 33.9069 61.7133 34.1457C61.6393 34.8726 61.758 35.6061 62.0573 36.2726L62.1412 36.5307C62.3052 37.0397 62.4832 37.5457 62.6622 38.0507C63.0042 39.0217 63.3623 40.0257 63.6193 41.0607C64.2723 43.6387 63.5053 45.1726 61.0533 46.1886C60.8533 46.2716 60.6532 46.3507 60.4532 46.4297C58.8422 47.0617 58.0642 47.4247 57.9692 48.7687C57.9199 49.0688 57.8075 49.3549 57.6395 49.6083C57.4714 49.8617 57.2515 50.0765 56.9943 50.2387C54.8493 51.844 52.9403 53.7426 51.3232 55.8787C50.5552 56.7967 49.7613 57.7467 48.9233 58.6457C47.3435 60.5194 45.3699 62.0217 43.1432 63.0457C41.2752 63.8197 41.1503 64.0977 41.8073 66.0147C42.1418 66.93 42.2909 67.9027 42.2458 68.8761C42.2006 69.8496 41.9621 70.8044 41.5443 71.6847C41.1839 72.3449 41.097 73.1201 41.3022 73.8437C41.5605 74.6248 41.55 75.4698 41.2726 76.2443C40.9952 77.0188 40.4667 77.6782 39.7712 78.1177C38.0456 79.2656 36.5052 80.67 35.2032 82.2826C34.9382 82.6725 34.583 82.9928 34.1678 83.2161C33.7526 83.4395 33.2897 83.5594 32.8182 83.5657ZM20.8022 44.4947C20.989 44.4944 21.1745 44.5265 21.3503 44.5896C21.6978 44.7592 21.9977 45.0125 22.223 45.3267C22.4484 45.6409 22.5921 46.0062 22.6412 46.3897C22.993 48.2757 23.0235 50.2075 22.7313 52.1037C22.2187 55.3797 22.8857 58.7314 24.6133 61.5617C25.7585 63.3577 26.4832 65.3893 26.7333 67.5047C26.8375 68.8668 27.3537 70.165 28.2133 71.2267C29.4172 72.6875 30.1683 74.468 30.3743 76.3496L30.4183 76.6307C30.5294 77.9573 30.9084 79.2476 31.5323 80.4236C31.6535 80.6716 31.8306 80.8879 32.0498 81.0556C32.269 81.2232 32.5243 81.3377 32.7953 81.3897C32.8823 81.3957 33.1583 81.4037 33.4583 80.9897C34.8881 79.1985 36.5845 77.6377 38.4883 76.3617C38.8206 76.1944 39.0802 75.9112 39.2182 75.5656C39.3562 75.22 39.3629 74.8359 39.2372 74.4856C38.8691 73.2508 38.9902 71.9218 39.5753 70.7737C39.8816 70.1449 40.0561 69.46 40.0879 68.7613C40.1197 68.0625 40.0082 67.3648 39.7603 66.7107C38.7363 63.7237 39.4053 62.2377 42.3193 61.0307C44.2577 60.1234 45.9721 58.7996 47.3403 57.1537C48.1403 56.2957 48.9122 55.3697 49.6622 54.4727C51.4073 52.1808 53.4666 50.1461 55.7792 48.4286C55.7957 48.4177 55.8114 48.4058 55.8262 48.3927C56.1122 45.7927 58.1592 44.9847 59.6642 44.3927C59.8532 44.3187 60.0423 44.2447 60.2283 44.1667C61.6793 43.5667 61.9082 43.1067 61.5212 41.5787C61.2832 40.6397 60.9613 39.7257 60.6213 38.7577C60.4373 38.2347 60.2533 37.7107 60.0823 37.1847L60.0013 36.9367C59.5653 35.9051 59.4267 34.772 59.6013 33.6657C59.6901 33.1304 59.9276 32.631 60.2867 32.2243C60.6459 31.8176 61.1121 31.52 61.6323 31.3656C62.0251 31.2766 62.4354 31.3038 62.813 31.4439C63.1907 31.584 63.5195 31.831 63.7593 32.1547C64.8663 33.5637 66.3133 34.0847 68.6193 33.8987L70.1542 33.7737L69.7543 35.2607C69.5984 35.8015 69.4032 36.3303 69.1703 36.8427C68.8254 37.4395 68.6601 38.1232 68.6943 38.8117C68.7378 39.1133 68.8149 39.4092 68.9243 39.6936C68.9473 39.6846 68.9953 39.6756 69.0613 39.6576C69.5416 39.4772 70.059 39.4181 70.5676 39.4854C71.0763 39.5527 71.5604 39.7445 71.9772 40.0437C71.7584 39.3703 71.798 38.6395 72.0883 37.9937C72.2982 37.6194 72.586 37.2944 72.9322 37.0408C73.2784 36.7872 73.6751 36.6109 74.0953 36.5237C74.422 36.4471 74.7287 36.3022 74.9954 36.0984C75.262 35.8947 75.4825 35.6368 75.6423 35.3417C75.772 35.0464 75.8375 34.7269 75.8346 34.4043C75.8317 34.0818 75.7603 33.7635 75.6252 33.4706C75.3614 32.9659 75.237 32.4 75.265 31.8311C75.2929 31.2622 75.4722 30.7111 75.7842 30.2347C76.9527 28.4066 78.6044 26.9377 80.5563 25.9906C80.6213 26.0147 80.6908 26.024 80.7598 26.0177C80.8288 26.0115 80.8956 25.9899 80.9552 25.9545C81.0148 25.9191 81.0658 25.8709 81.1043 25.8133C81.1429 25.7557 81.1681 25.6902 81.178 25.6216C81.188 25.553 81.1825 25.4831 81.162 25.4169C81.1415 25.3507 81.1064 25.2899 81.0593 25.2391C81.0123 25.1882 80.9545 25.1484 80.8901 25.1227C80.8257 25.097 80.7564 25.0862 80.6873 25.0907C79.941 24.3563 79.016 23.8293 78.0037 23.562C76.9913 23.2948 75.9268 23.2964 74.9153 23.5667C73.9793 23.7947 73.1204 24.2663 72.4258 24.9338C71.7311 25.6012 71.2255 26.4407 70.9603 27.3667C70.8325 28.1715 70.4066 28.8986 69.7672 29.4037C69.1278 29.9088 68.3217 30.1548 67.5093 30.0927C66.8884 30.1344 66.2712 30.2196 65.6622 30.3477C65.2197 30.4761 64.7554 30.5115 64.2985 30.4518C63.8415 30.3921 63.4019 30.2385 63.0073 30.0006C62.672 29.7527 62.3916 29.4383 62.1835 29.0769C61.9755 28.7156 61.8443 28.3151 61.7983 27.9007C61.7873 27.8817 61.7522 27.8276 61.7222 27.7716L61.6223 27.5887C61.4823 27.3067 61.3712 27.0886 60.5522 27.2616L60.5023 27.2737C60.5023 27.3897 60.5242 27.5577 60.5372 27.6807L60.5673 27.9627C60.7403 29.8847 60.3283 31.2227 59.3423 31.9397C58.3563 32.6567 56.9082 32.6396 55.0762 31.8556C54.3832 31.5556 53.7283 31.2077 53.0933 30.8667L52.7433 30.6797C51.8886 30.1447 50.8789 29.9123 49.8763 30.0197C48.4997 30.3234 47.0643 30.2193 45.746 29.72C44.4276 29.2208 43.2834 28.3481 42.4532 27.2087C42.3358 27.0645 42.1832 26.953 42.0103 26.8847C41.5509 26.7718 41.1248 26.552 40.7663 26.2434C40.4078 25.9349 40.1272 25.5461 39.9473 25.1087C39.8619 24.6311 39.8899 24.1402 40.0288 23.6755C40.1678 23.2107 40.4138 22.785 40.7473 22.4327C40.9533 22.212 41.1104 21.9503 41.2083 21.6647C41.1953 21.7057 41.0683 21.5317 40.3583 21.1117C40.0673 20.9397 39.7703 20.7737 39.4753 20.6117C38.8121 20.2555 38.1679 19.8649 37.5453 19.4417C37.0775 19.188 36.6777 18.8253 36.3797 18.3844C36.0817 17.9435 35.8943 17.4374 35.8333 16.9087C35.9 16.3891 36.0913 15.8933 36.3909 15.4635C36.6906 15.0338 37.0897 14.6829 37.5543 14.4407C38.4203 13.8547 38.4303 13.5016 38.0182 12.7406C37.6429 12.0926 37.4797 11.3435 37.5514 10.5981C37.6231 9.85262 37.9262 9.14821 38.4183 8.58366C38.7682 8.12836 39.0911 7.65292 39.3853 7.15971C39.8363 6.42171 39.6242 6.18773 39.4382 5.98173C38.9482 5.43973 38.6052 5.70365 38.4742 5.80265C35.5462 8.03465 33.0813 6.60871 31.2623 5.11771C30.5972 4.57708 29.9024 4.07388 29.1813 3.61063C28.601 3.22228 27.946 2.95945 27.2582 2.83891C26.5704 2.71836 25.865 2.74283 25.1873 2.91068C24.7263 3.01668 24.3942 3.22974 24.3212 3.46574C24.3089 3.61645 24.3332 3.76785 24.3921 3.90714C24.4509 4.04644 24.5426 4.16944 24.6592 4.26566C25.2876 4.95663 25.7489 5.78269 26.0076 6.68009C26.2662 7.57749 26.3154 8.52229 26.1512 9.44169C25.9282 11.5767 26.3723 12.9156 27.6353 13.9226C27.9948 14.173 28.2924 14.5021 28.5054 14.8849C28.7184 15.2678 28.8411 15.6942 28.8643 16.1316C28.8527 16.6078 28.7326 17.0751 28.5132 17.498C28.2939 17.9208 27.9809 18.288 27.5983 18.5717C26.1489 19.7953 25.0375 21.3701 24.3702 23.1457C23.1032 26.5297 21.4182 29.7047 16.0992 28.1607C15.8497 28.0954 15.5846 28.1291 15.3593 28.2547C15.134 28.3803 14.966 28.588 14.8903 28.8346C14.7281 29.0639 14.6625 29.3478 14.7076 29.625C14.7527 29.9022 14.9048 30.1506 15.1313 30.3167C16.5777 31.8795 17.65 33.7507 18.2673 35.7887C18.487 36.196 18.58 36.6596 18.5346 37.1202C18.4892 37.5807 18.3073 38.0172 18.0123 38.3737C17.6949 38.6623 17.2983 38.8492 16.8737 38.9102C16.4491 38.9712 16.016 38.9035 15.6302 38.7157C14.3572 38.2967 13.4532 38.8397 12.0812 39.7587C12.0132 39.8037 11.9553 39.8447 11.9073 39.8807L11.9423 39.9037C12.3059 40.0996 12.624 40.3701 12.8758 40.6975C13.1276 41.025 13.3073 41.4019 13.4033 41.8036C13.4451 42.1658 13.4081 42.5327 13.2947 42.8792C13.1813 43.2256 12.9942 43.5434 12.7463 43.8107C13.9993 45.1099 15.5783 46.0487 17.3182 46.5287C17.6622 46.6097 17.8282 46.5127 18.4382 45.8747C18.6706 45.6207 18.9213 45.384 19.1882 45.1667C19.6394 44.7741 20.2057 44.5383 20.8022 44.4947Z" fill="white"/>
<path d="M1.78529 119.707V110.48H4.90298C5.62683 110.48 6.21853 110.611 6.67807 110.872C7.14062 111.13 7.48303 111.48 7.70529 111.922C7.92755 112.363 8.03868 112.856 8.03868 113.4C8.03868 113.943 7.92755 114.437 7.70529 114.882C7.48603 115.326 7.14663 115.681 6.68709 115.945C6.22754 116.206 5.63885 116.337 4.921 116.337H2.68636V115.346H4.88495C5.38054 115.346 5.77851 115.26 6.07887 115.089C6.37922 114.918 6.59698 114.687 6.73214 114.395C6.8703 114.101 6.93938 113.769 6.93938 113.4C6.93938 113.03 6.8703 112.7 6.73214 112.408C6.59698 112.117 6.37772 111.889 6.07436 111.724C5.771 111.555 5.36853 111.471 4.86693 111.471H2.90261V119.707H1.78529ZM11.7308 119.869C11.2923 119.869 10.8943 119.787 10.5369 119.621C10.1795 119.453 9.89563 119.211 9.68538 118.896C9.47513 118.578 9.37001 118.193 9.37001 117.743C9.37001 117.346 9.4481 117.025 9.60428 116.779C9.76047 116.529 9.96922 116.334 10.2305 116.193C10.4918 116.052 10.7802 115.947 11.0955 115.878C11.4139 115.805 11.7338 115.748 12.0552 115.706C12.4757 115.652 12.8166 115.612 13.0779 115.585C13.3422 115.555 13.5344 115.505 13.6546 115.436C13.7777 115.367 13.8393 115.247 13.8393 115.076V115.04C13.8393 114.595 13.7176 114.25 13.4744 114.003C13.2341 113.757 12.8691 113.634 12.3796 113.634C11.872 113.634 11.474 113.745 11.1857 113.967C10.8973 114.19 10.6946 114.427 10.5774 114.679L9.56824 114.319C9.74845 113.898 9.98874 113.571 10.2891 113.336C10.5925 113.099 10.9228 112.934 11.2803 112.841C11.6407 112.745 11.9951 112.697 12.3435 112.697C12.5658 112.697 12.8211 112.724 13.1094 112.778C13.4008 112.829 13.6816 112.936 13.9519 113.098C14.2252 113.26 14.452 113.505 14.6322 113.832C14.8124 114.159 14.9025 114.598 14.9025 115.148V119.707H13.8393V118.77H13.7852C13.7131 118.92 13.593 119.081 13.4248 119.252C13.2566 119.423 13.0328 119.569 12.7535 119.689C12.4742 119.809 12.1333 119.869 11.7308 119.869ZM11.893 118.914C12.3135 118.914 12.6679 118.831 12.9562 118.666C13.2476 118.501 13.4669 118.288 13.614 118.027C13.7642 117.765 13.8393 117.49 13.8393 117.202V116.229C13.7942 116.283 13.6951 116.333 13.5419 116.378C13.3918 116.42 13.2176 116.457 13.0193 116.49C12.8241 116.52 12.6334 116.547 12.4471 116.571C12.2639 116.592 12.1153 116.61 12.0011 116.625C11.7248 116.661 11.4665 116.72 11.2262 116.801C10.9889 116.879 10.7967 116.998 10.6495 117.157C10.5053 117.313 10.4333 117.526 10.4333 117.797C10.4333 118.166 10.5699 118.446 10.8432 118.635C11.1196 118.821 11.4695 118.914 11.893 118.914ZM17.9065 115.544V119.707H16.8432V112.787H17.8704V113.868H17.9605C18.1227 113.517 18.369 113.234 18.6994 113.021C19.0298 112.805 19.4563 112.697 19.9789 112.697C20.4475 112.697 20.8575 112.793 21.2089 112.985C21.5603 113.174 21.8336 113.463 22.0288 113.85C22.2241 114.235 22.3217 114.721 22.3217 115.31V119.707H21.2584V115.382C21.2584 114.838 21.1173 114.415 20.8349 114.111C20.5526 113.805 20.1651 113.652 19.6726 113.652C19.3332 113.652 19.0298 113.725 18.7625 113.873C18.4982 114.02 18.2894 114.235 18.1362 114.517C17.9831 114.799 17.9065 115.142 17.9065 115.544ZM28.2293 115.256V116.247H24.1925V115.256H28.2293ZM31.3616 110.48V119.707H30.2443V110.48H31.3616ZM34.521 115.544V119.707H33.4577V112.787H34.485V113.868H34.5751C34.7373 113.517 34.9835 113.234 35.3139 113.021C35.6443 112.805 36.0708 112.697 36.5934 112.697C37.062 112.697 37.472 112.793 37.8234 112.985C38.1748 113.174 38.4481 113.463 38.6434 113.85C38.8386 114.235 38.9362 114.721 38.9362 115.31V119.707H37.873V115.382C37.873 114.838 37.7318 114.415 37.4495 114.111C37.1671 113.805 36.7797 113.652 36.2871 113.652C35.9477 113.652 35.6443 113.725 35.377 113.873C35.1127 114.02 34.9039 114.235 34.7508 114.517C34.5976 114.799 34.521 115.142 34.521 115.544ZM43.4922 119.851C42.9155 119.851 42.4064 119.706 41.9649 119.414C41.5234 119.12 41.178 118.705 40.9287 118.171C40.6794 117.633 40.5548 116.998 40.5548 116.265C40.5548 115.538 40.6794 114.907 40.9287 114.373C41.178 113.838 41.5249 113.425 41.9694 113.134C42.414 112.842 42.9276 112.697 43.5102 112.697C43.9608 112.697 44.3167 112.772 44.578 112.922C44.8423 113.069 45.0436 113.237 45.1817 113.427C45.3229 113.613 45.4325 113.766 45.5106 113.886H45.6007V110.48H46.664V119.707H45.6368V118.644H45.5106C45.4325 118.77 45.3214 118.929 45.1772 119.121C45.033 119.311 44.8273 119.48 44.56 119.63C44.2927 119.778 43.9368 119.851 43.4922 119.851ZM43.6364 118.896C44.0629 118.896 44.4233 118.785 44.7177 118.563C45.012 118.337 45.2358 118.027 45.389 117.63C45.5422 117.231 45.6187 116.77 45.6187 116.247C45.6187 115.73 45.5437 115.278 45.3935 114.891C45.2433 114.5 45.021 114.197 44.7267 113.981C44.4323 113.762 44.0689 113.652 43.6364 113.652C43.1859 113.652 42.8104 113.768 42.5101 113.999C42.2127 114.227 41.9889 114.538 41.8388 114.931C41.6916 115.322 41.618 115.76 41.618 116.247C41.618 116.74 41.6931 117.187 41.8433 117.59C41.9965 117.989 42.2217 118.307 42.5191 118.545C42.8194 118.779 43.1919 118.896 43.6364 118.896ZM48.759 119.707V112.787H49.8222V119.707H48.759ZM49.2996 111.633C49.0923 111.633 48.9136 111.563 48.7635 111.422C48.6163 111.281 48.5427 111.111 48.5427 110.913C48.5427 110.714 48.6163 110.545 48.7635 110.404C48.9136 110.262 49.0923 110.192 49.2996 110.192C49.5068 110.192 49.684 110.262 49.8312 110.404C49.9814 110.545 50.0565 110.714 50.0565 110.913C50.0565 111.111 49.9814 111.281 49.8312 111.422C49.684 111.563 49.5068 111.633 49.2996 111.633ZM53.806 119.869C53.3675 119.869 52.9696 119.787 52.6121 119.621C52.2547 119.453 51.9709 119.211 51.7606 118.896C51.5504 118.578 51.4453 118.193 51.4453 117.743C51.4453 117.346 51.5233 117.025 51.6795 116.779C51.8357 116.529 52.0445 116.334 52.3058 116.193C52.5671 116.052 52.8554 115.947 53.1708 115.878C53.4892 115.805 53.809 115.748 54.1304 115.706C54.5509 115.652 54.8918 115.612 55.1531 115.585C55.4174 115.555 55.6097 115.505 55.7298 115.436C55.853 115.367 55.9145 115.247 55.9145 115.076V115.04C55.9145 114.595 55.7929 114.25 55.5496 114.003C55.3093 113.757 54.9444 113.634 54.4548 113.634C53.9472 113.634 53.5492 113.745 53.2609 113.967C52.9726 114.19 52.7698 114.427 52.6527 114.679L51.6435 114.319C51.8237 113.898 52.064 113.571 52.3643 113.336C52.6677 113.099 52.9981 112.934 53.3555 112.841C53.7159 112.745 54.0704 112.697 54.4188 112.697C54.641 112.697 54.8963 112.724 55.1847 112.778C55.476 112.829 55.7569 112.936 56.0272 113.098C56.3005 113.26 56.5273 113.505 56.7075 113.832C56.8877 114.159 56.9778 114.598 56.9778 115.148V119.707H55.9145V118.77H55.8605C55.7884 118.92 55.6682 119.081 55.5 119.252C55.3318 119.423 55.1081 119.569 54.8288 119.689C54.5494 119.809 54.2085 119.869 53.806 119.869ZM53.9682 118.914C54.3887 118.914 54.7432 118.831 55.0315 118.666C55.3228 118.501 55.5421 118.288 55.6893 118.027C55.8394 117.765 55.9145 117.49 55.9145 117.202V116.229C55.8695 116.283 55.7704 116.333 55.6172 116.378C55.467 116.42 55.2928 116.457 55.0946 116.49C54.8993 116.52 54.7086 116.547 54.5224 116.571C54.3392 116.592 54.1905 116.61 54.0764 116.625C53.8 116.661 53.5417 116.72 53.3014 116.801C53.0642 116.879 52.8719 116.998 52.7248 117.157C52.5806 117.313 52.5085 117.526 52.5085 117.797C52.5085 118.166 52.6452 118.446 52.9185 118.635C53.1948 118.821 53.5447 118.914 53.9682 118.914ZM63.0093 119.707H61.8379L65.2259 110.48H66.3793L69.7673 119.707H68.5959L65.8386 111.94H65.7666L63.0093 119.707ZM63.4418 116.103H68.1634V117.094H63.4418V116.103ZM74.142 112.787V113.688H70.4116V112.787H74.142ZM71.5289 119.707V111.832C71.5289 111.435 71.622 111.105 71.8082 110.841C71.9944 110.576 72.2362 110.378 72.5336 110.246C72.8309 110.114 73.1448 110.048 73.4752 110.048C73.7365 110.048 73.9497 110.069 74.1149 110.111C74.2801 110.153 74.4033 110.192 74.4844 110.228L74.178 111.147C74.1239 111.129 74.0489 111.106 73.9527 111.079C73.8596 111.052 73.7365 111.039 73.5833 111.039C73.2319 111.039 72.9781 111.127 72.8219 111.305C72.6687 111.482 72.5921 111.742 72.5921 112.084V119.707H71.5289ZM78.6417 112.787V113.688H75.0554V112.787H78.6417ZM76.1007 111.129H77.1639V117.725C77.1639 118.025 77.2075 118.25 77.2946 118.4C77.3847 118.548 77.4988 118.647 77.637 118.698C77.7781 118.746 77.9268 118.77 78.083 118.77C78.2001 118.77 78.2963 118.764 78.3713 118.752C78.4464 118.737 78.5065 118.725 78.5516 118.716L78.7678 119.671C78.6957 119.698 78.5951 119.725 78.466 119.752C78.3368 119.782 78.1731 119.797 77.9749 119.797C77.6745 119.797 77.3802 119.733 77.0918 119.603C76.8065 119.474 76.5692 119.278 76.38 119.013C76.1938 118.749 76.1007 118.416 76.1007 118.013V111.129ZM83.0681 119.851C82.4014 119.851 81.8262 119.704 81.3426 119.41C80.862 119.112 80.4911 118.698 80.2298 118.166C79.9715 117.632 79.8423 117.01 79.8423 116.301C79.8423 115.592 79.9715 114.967 80.2298 114.427C80.4911 113.883 80.8545 113.46 81.3201 113.156C81.7886 112.85 82.3353 112.697 82.96 112.697C83.3204 112.697 83.6764 112.757 84.0278 112.877C84.3792 112.997 84.6991 113.192 84.9874 113.463C85.2757 113.73 85.5055 114.084 85.6767 114.526C85.8479 114.967 85.9335 115.511 85.9335 116.157V116.607H80.5992V115.688H84.8522C84.8522 115.298 84.7742 114.949 84.618 114.643C84.4648 114.337 84.2455 114.095 83.9602 113.918C83.6779 113.74 83.3445 113.652 82.96 113.652C82.5365 113.652 82.1701 113.757 81.8607 113.967C81.5543 114.174 81.3186 114.445 81.1534 114.778C80.9882 115.112 80.9056 115.469 80.9056 115.85V116.463C80.9056 116.986 80.9957 117.429 81.1759 117.792C81.3591 118.153 81.6129 118.428 81.9373 118.617C82.2617 118.803 82.6386 118.896 83.0681 118.896C83.3475 118.896 83.5998 118.857 83.825 118.779C84.0533 118.698 84.25 118.578 84.4152 118.419C84.5804 118.256 84.7081 118.055 84.7982 117.815L85.8254 118.103C85.7173 118.452 85.5356 118.758 85.2803 119.022C85.025 119.284 84.7096 119.488 84.3341 119.635C83.9587 119.779 83.5367 119.851 83.0681 119.851ZM87.5509 119.707V112.787H88.5782V113.832H88.6502C88.7764 113.49 89.0047 113.212 89.335 112.999C89.6654 112.785 90.0379 112.679 90.4524 112.679C90.5305 112.679 90.6281 112.68 90.7452 112.683C90.8624 112.686 90.951 112.691 91.011 112.697V113.778C90.975 113.769 90.8924 113.755 90.7632 113.737C90.6371 113.716 90.5034 113.706 90.3623 113.706C90.0259 113.706 89.7255 113.777 89.4612 113.918C89.1999 114.056 88.9926 114.248 88.8395 114.494C88.6893 114.738 88.6142 115.015 88.6142 115.328V119.707H87.5509Z" fill="white"/>
<path d="M11.4875 128.011C11.4334 127.555 11.2142 127.2 10.8297 126.948C10.4453 126.696 9.97372 126.57 9.41506 126.57C9.00657 126.57 8.64915 126.636 8.34279 126.768C8.03943 126.9 7.80215 127.082 7.63095 127.313C7.46275 127.544 7.37865 127.807 7.37865 128.102C7.37865 128.348 7.43722 128.56 7.55436 128.737C7.6745 128.911 7.82768 129.057 8.0139 129.174C8.20012 129.288 8.39535 129.383 8.59959 129.458C8.80383 129.53 8.99155 129.588 9.16276 129.633L10.0999 129.886C10.3401 129.949 10.6075 130.036 10.9018 130.147C11.1992 130.258 11.483 130.41 11.7533 130.602C12.0266 130.791 12.2519 131.035 12.4291 131.332C12.6063 131.629 12.6949 131.994 12.6949 132.427C12.6949 132.925 12.5643 133.376 12.303 133.778C12.0447 134.181 11.6662 134.501 11.1676 134.738C10.672 134.975 10.0698 135.094 9.36099 135.094C8.70021 135.094 8.12803 134.987 7.64446 134.774C7.16389 134.561 6.78545 134.263 6.50912 133.882C6.2358 133.5 6.08111 133.057 6.04507 132.553H7.19843C7.22847 132.901 7.34561 133.19 7.54985 133.418C7.7571 133.643 8.0184 133.811 8.33378 133.922C8.65215 134.031 8.99456 134.085 9.36099 134.085C9.7875 134.085 10.1704 134.016 10.5099 133.877C10.8493 133.736 11.1181 133.541 11.3163 133.292C11.5145 133.039 11.6137 132.745 11.6137 132.409C11.6137 132.102 11.5281 131.853 11.3569 131.661C11.1856 131.469 10.9604 131.312 10.6811 131.192C10.4017 131.072 10.0999 130.967 9.77548 130.877L8.64014 130.552C7.91929 130.345 7.34861 130.049 6.92812 129.665C6.50762 129.28 6.29737 128.777 6.29737 128.156C6.29737 127.639 6.43703 127.188 6.71636 126.804C6.9987 126.417 7.37715 126.116 7.85171 125.903C8.32927 125.687 8.8624 125.579 9.4511 125.579C10.0458 125.579 10.5744 125.685 11.037 125.898C11.4995 126.109 11.866 126.397 12.1363 126.763C12.4096 127.13 12.5538 127.546 12.5688 128.011H11.4875ZM16.4242 135.094C15.9857 135.094 15.5877 135.011 15.2303 134.846C14.8729 134.678 14.589 134.436 14.3788 134.121C14.1686 133.802 14.0634 133.418 14.0634 132.967C14.0634 132.571 14.1415 132.249 14.2977 132.003C14.4539 131.754 14.6626 131.559 14.9239 131.417C15.1853 131.276 15.4736 131.171 15.789 131.102C16.1073 131.03 16.4272 130.973 16.7486 130.931C17.1691 130.877 17.51 130.836 17.7713 130.809C18.0356 130.779 18.2279 130.73 18.348 130.661C18.4711 130.592 18.5327 130.471 18.5327 130.3V130.264C18.5327 129.82 18.4111 129.474 18.1678 129.228C17.9275 128.982 17.5626 128.858 17.073 128.858C16.5654 128.858 16.1674 128.97 15.8791 129.192C15.5907 129.414 15.388 129.651 15.2709 129.904L14.2617 129.543C14.4419 129.123 14.6822 128.795 14.9825 128.561C15.2859 128.324 15.6163 128.159 15.9737 128.066C16.3341 127.969 16.6885 127.921 17.0369 127.921C17.2592 127.921 17.5145 127.948 17.8028 128.002C18.0942 128.054 18.375 128.16 18.6453 128.322C18.9187 128.485 19.1454 128.729 19.3256 129.057C19.5059 129.384 19.596 129.823 19.596 130.372V134.932H18.5327V133.995H18.4786C18.4066 134.145 18.2864 134.305 18.1182 134.477C17.95 134.648 17.7263 134.793 17.4469 134.914C17.1676 135.034 16.8267 135.094 16.4242 135.094ZM16.5864 134.139C17.0069 134.139 17.3613 134.056 17.6497 133.891C17.941 133.726 18.1603 133.512 18.3074 133.251C18.4576 132.99 18.5327 132.715 18.5327 132.427V131.454C18.4877 131.508 18.3885 131.557 18.2354 131.602C18.0852 131.644 17.911 131.682 17.7127 131.715C17.5175 131.745 17.3268 131.772 17.1406 131.796C16.9573 131.817 16.8087 131.835 16.6945 131.85C16.4182 131.886 16.1599 131.945 15.9196 132.026C15.6823 132.104 15.4901 132.222 15.3429 132.382C15.1988 132.538 15.1267 132.751 15.1267 133.021C15.1267 133.391 15.2633 133.67 15.5367 133.859C15.813 134.046 16.1629 134.139 16.5864 134.139ZM22.5999 125.705V134.932H21.5366V125.705H22.5999ZM27.4488 135.076C26.782 135.076 26.2068 134.929 25.7232 134.634C25.2426 134.337 24.8717 133.922 24.6104 133.391C24.3521 132.856 24.2229 132.234 24.2229 131.526C24.2229 130.817 24.3521 130.192 24.6104 129.651C24.8717 129.108 25.2351 128.684 25.7007 128.381C26.1692 128.075 26.7159 127.921 27.3406 127.921C27.7011 127.921 28.057 127.981 28.4084 128.102C28.7598 128.222 29.0797 128.417 29.368 128.687C29.6564 128.955 29.8861 129.309 30.0573 129.751C30.2285 130.192 30.3141 130.736 30.3141 131.381V131.832H24.9798V130.913H29.2329C29.2329 130.522 29.1548 130.174 28.9986 129.868C28.8454 129.561 28.6261 129.32 28.3408 129.142C28.0585 128.965 27.7251 128.876 27.3406 128.876C26.9171 128.876 26.5507 128.982 26.2413 129.192C25.935 129.399 25.6992 129.669 25.534 130.003C25.3688 130.336 25.2862 130.694 25.2862 131.075V131.688C25.2862 132.21 25.3763 132.653 25.5565 133.017C25.7397 133.377 25.9935 133.652 26.3179 133.841C26.6423 134.028 27.0192 134.121 27.4488 134.121C27.7281 134.121 27.9804 134.082 28.2056 134.004C28.4339 133.922 28.6306 133.802 28.7958 133.643C28.961 133.481 29.0887 133.28 29.1788 133.039L30.206 133.328C30.0979 133.676 29.9162 133.983 29.6609 134.247C29.4056 134.508 29.0902 134.712 28.7147 134.86C28.3393 135.004 27.9173 135.076 27.4488 135.076ZM36.8333 129.561L35.8782 129.832C35.8181 129.672 35.7295 129.518 35.6124 129.368C35.4983 129.214 35.3421 129.088 35.1439 128.989C34.9456 128.89 34.6918 128.84 34.3825 128.84C33.959 128.84 33.606 128.938 33.3237 129.133C33.0444 129.326 32.9047 129.57 32.9047 129.868C32.9047 130.132 33.0008 130.341 33.193 130.494C33.3853 130.647 33.6856 130.775 34.0941 130.877L35.1213 131.129C35.7401 131.279 36.2011 131.509 36.5045 131.818C36.8078 132.125 36.9595 132.52 36.9595 133.003C36.9595 133.4 36.8454 133.754 36.6171 134.067C36.3918 134.379 36.0765 134.625 35.671 134.805C35.2655 134.986 34.7939 135.076 34.2563 135.076C33.5505 135.076 32.9663 134.923 32.5037 134.616C32.0412 134.31 31.7483 133.862 31.6252 133.274L32.6344 133.021C32.7305 133.394 32.9122 133.673 33.1795 133.859C33.4498 134.046 33.8028 134.139 34.2383 134.139C34.7339 134.139 35.1273 134.034 35.4187 133.823C35.713 133.61 35.8602 133.355 35.8602 133.057C35.8602 132.817 35.7761 132.616 35.6079 132.454C35.4397 132.289 35.1814 132.165 34.833 132.084L33.6796 131.814C33.0459 131.664 32.5803 131.431 32.283 131.116C31.9886 130.797 31.8414 130.399 31.8414 129.922C31.8414 129.531 31.9511 129.186 32.1703 128.885C32.3926 128.585 32.6945 128.349 33.0759 128.178C33.4604 128.007 33.8959 127.921 34.3825 127.921C35.0673 127.921 35.6049 128.072 35.9954 128.372C36.3888 128.672 36.6682 129.069 36.8333 129.561ZM47.3184 128.011C47.2643 127.555 47.045 127.2 46.6606 126.948C46.2761 126.696 45.8046 126.57 45.2459 126.57C44.8374 126.57 44.48 126.636 44.1737 126.768C43.8703 126.9 43.633 127.082 43.4618 127.313C43.2936 127.544 43.2095 127.807 43.2095 128.102C43.2095 128.348 43.2681 128.56 43.3852 128.737C43.5054 128.911 43.6585 129.057 43.8448 129.174C44.031 129.288 44.2262 129.383 44.4305 129.458C44.6347 129.53 44.8224 129.588 44.9936 129.633L45.9307 129.886C46.171 129.949 46.4383 130.036 46.7327 130.147C47.03 130.258 47.3139 130.41 47.5842 130.602C47.8575 130.791 48.0828 131.035 48.26 131.332C48.4372 131.629 48.5258 131.994 48.5258 132.427C48.5258 132.925 48.3951 133.376 48.1338 133.778C47.8755 134.181 47.4971 134.501 46.9985 134.738C46.5029 134.975 45.9007 135.094 45.1919 135.094C44.5311 135.094 43.9589 134.987 43.4753 134.774C42.9948 134.561 42.6163 134.263 42.34 133.882C42.0667 133.5 41.912 133.057 41.8759 132.553H43.0293C43.0593 132.901 43.1765 133.19 43.3807 133.418C43.588 133.643 43.8493 133.811 44.1646 133.922C44.483 134.031 44.8254 134.085 45.1919 134.085C45.6184 134.085 46.0013 134.016 46.3407 133.877C46.6801 133.736 46.9489 133.541 47.1472 133.292C47.3454 133.039 47.4445 132.745 47.4445 132.409C47.4445 132.102 47.3589 131.853 47.1877 131.661C47.0165 131.469 46.7912 131.312 46.5119 131.192C46.2326 131.072 45.9307 130.967 45.6063 130.877L44.471 130.552C43.7502 130.345 43.1795 130.049 42.759 129.665C42.3385 129.28 42.1282 128.777 42.1282 128.156C42.1282 127.639 42.2679 127.188 42.5472 126.804C42.8296 126.417 43.208 126.116 43.6826 125.903C44.1601 125.687 44.6933 125.579 45.282 125.579C45.8767 125.579 46.4053 125.685 46.8678 125.898C47.3304 126.109 47.6968 126.397 47.9671 126.763C48.2405 127.13 48.3846 127.546 48.3996 128.011H47.3184ZM54.5798 132.102V128.011H55.6431V134.932H54.5798V133.76H54.5077C54.3456 134.112 54.0933 134.411 53.7508 134.657C53.4084 134.9 52.9759 135.022 52.4533 135.022C52.0208 135.022 51.6363 134.927 51.3 134.738C50.9636 134.546 50.6992 134.257 50.507 133.873C50.3148 133.485 50.2187 132.997 50.2187 132.409V128.011H51.2819V132.337C51.2819 132.841 51.4231 133.244 51.7054 133.544C51.9908 133.844 52.3542 133.995 52.7957 133.995C53.06 133.995 53.3288 133.927 53.6022 133.792C53.8785 133.657 54.1098 133.449 54.296 133.17C54.4852 132.891 54.5798 132.535 54.5798 132.102ZM57.5905 137.527V128.011H58.6177V129.111H58.7439C58.822 128.991 58.9301 128.837 59.0683 128.651C59.2094 128.462 59.4107 128.294 59.672 128.147C59.9363 127.996 60.2937 127.921 60.7442 127.921C61.3269 127.921 61.8405 128.067 62.2851 128.358C62.7296 128.65 63.0765 129.063 63.3258 129.597C63.5751 130.132 63.6997 130.763 63.6997 131.49C63.6997 132.222 63.5751 132.858 63.3258 133.395C63.0765 133.93 62.7311 134.344 62.2896 134.639C61.848 134.93 61.3389 135.076 60.7623 135.076C60.3177 135.076 59.9618 135.002 59.6945 134.855C59.4272 134.705 59.2214 134.535 59.0773 134.346C58.9331 134.154 58.822 133.995 58.7439 133.868H58.6538V137.527H57.5905ZM58.6357 131.472C58.6357 131.994 58.7123 132.455 58.8655 132.855C59.0187 133.251 59.2425 133.562 59.5368 133.787C59.8312 134.01 60.1916 134.121 60.6181 134.121C61.0626 134.121 61.4336 134.004 61.7309 133.769C62.0313 133.532 62.2565 133.214 62.4067 132.814C62.5599 132.412 62.6365 131.964 62.6365 131.472C62.6365 130.985 62.5614 130.546 62.4112 130.156C62.264 129.763 62.0403 129.452 61.7399 129.223C61.4426 128.992 61.0686 128.876 60.6181 128.876C60.1856 128.876 59.8222 128.986 59.5278 129.205C59.2335 129.422 59.0112 129.725 58.861 130.115C58.7108 130.503 58.6357 130.955 58.6357 131.472ZM65.3217 137.527V128.011H66.3489V129.111H66.475C66.5531 128.991 66.6612 128.837 66.7994 128.651C66.9406 128.462 67.1418 128.294 67.4031 128.147C67.6674 127.996 68.0248 127.921 68.4754 127.921C69.0581 127.921 69.5717 128.067 70.0162 128.358C70.4607 128.65 70.8076 129.063 71.0569 129.597C71.3062 130.132 71.4309 130.763 71.4309 131.49C71.4309 132.222 71.3062 132.858 71.0569 133.395C70.8076 133.93 70.4622 134.344 70.0207 134.639C69.5792 134.93 69.0701 135.076 68.4934 135.076C68.0489 135.076 67.693 135.002 67.4256 134.855C67.1583 134.705 66.9526 134.535 66.8084 134.346C66.6642 134.154 66.5531 133.995 66.475 133.868H66.3849V137.527H65.3217ZM66.3669 131.472C66.3669 131.994 66.4435 132.455 66.5967 132.855C66.7498 133.251 66.9736 133.562 67.268 133.787C67.5623 134.01 67.9227 134.121 68.3492 134.121C68.7938 134.121 69.1647 134.004 69.462 133.769C69.7624 133.532 69.9877 133.214 70.1378 132.814C70.291 132.412 70.3676 131.964 70.3676 131.472C70.3676 130.985 70.2925 130.546 70.1424 130.156C69.9952 129.763 69.7714 129.452 69.4711 129.223C69.1737 128.992 68.7998 128.876 68.3492 128.876C67.9167 128.876 67.5533 128.986 67.2589 129.205C66.9646 129.422 66.7423 129.725 66.5922 130.115C66.442 130.503 66.3669 130.955 66.3669 131.472ZM75.8641 135.076C75.2394 135.076 74.6912 134.927 74.2197 134.63C73.7511 134.332 73.3847 133.916 73.1204 133.382C72.8591 132.847 72.7284 132.222 72.7284 131.508C72.7284 130.787 72.8591 130.157 73.1204 129.62C73.3847 129.082 73.7511 128.665 74.2197 128.367C74.6912 128.07 75.2394 127.921 75.8641 127.921C76.4889 127.921 77.0355 128.07 77.5041 128.367C77.9756 128.665 78.342 129.082 78.6034 129.62C78.8677 130.157 78.9998 130.787 78.9998 131.508C78.9998 132.222 78.8677 132.847 78.6034 133.382C78.342 133.916 77.9756 134.332 77.5041 134.63C77.0355 134.927 76.4889 135.076 75.8641 135.076ZM75.8641 134.121C76.3387 134.121 76.7291 133.999 77.0355 133.756C77.3419 133.512 77.5686 133.193 77.7158 132.796C77.863 132.4 77.9366 131.97 77.9366 131.508C77.9366 131.045 77.863 130.614 77.7158 130.215C77.5686 129.815 77.3419 129.492 77.0355 129.246C76.7291 129 76.3387 128.876 75.8641 128.876C75.3896 128.876 74.9991 129 74.6927 129.246C74.3864 129.492 74.1596 129.815 74.0124 130.215C73.8653 130.614 73.7917 131.045 73.7917 131.508C73.7917 131.97 73.8653 132.4 74.0124 132.796C74.1596 133.193 74.3864 133.512 74.6927 133.756C74.9991 133.999 75.3896 134.121 75.8641 134.121ZM80.6229 134.932V128.011H81.6501V129.057H81.7222C81.8483 128.714 82.0766 128.436 82.407 128.223C82.7374 128.01 83.1098 127.903 83.5243 127.903C83.6024 127.903 83.7 127.905 83.8171 127.908C83.9343 127.911 84.0229 127.915 84.083 127.921V129.003C84.0469 128.994 83.9643 128.98 83.8352 128.962C83.709 128.941 83.5754 128.931 83.4342 128.931C83.0978 128.931 82.7974 129.001 82.5331 129.142C82.2718 129.28 82.0646 129.473 81.9114 129.719C81.7612 129.962 81.6861 130.24 81.6861 130.552V134.932H80.6229ZM88.7865 128.011V128.913H85.2003V128.011H88.7865ZM86.2455 126.353H87.3088V132.949C87.3088 133.25 87.3523 133.475 87.4394 133.625C87.5295 133.772 87.6437 133.871 87.7818 133.922C87.923 133.971 88.0717 133.995 88.2279 133.995C88.345 133.995 88.4411 133.989 88.5162 133.977C88.5913 133.961 88.6514 133.949 88.6964 133.94L88.9127 134.896C88.8406 134.923 88.74 134.95 88.6108 134.977C88.4817 135.007 88.318 135.022 88.1197 135.022C87.8194 135.022 87.525 134.957 87.2367 134.828C86.9514 134.699 86.7141 134.502 86.5249 134.238C86.3386 133.974 86.2455 133.64 86.2455 133.238V126.353Z" fill="white"/>
</svg>
