<svg xmlns="http://www.w3.org/2000/svg" viewBox="0 0 81.12 102.93"><defs><style>.cls-1,.cls-2{fill:#161616;}.cls-2{font-size:10.69px;font-family:Biennale-Regular, Biennale;}</style></defs><g id="Layer_2" data-name="Layer 2"><g id="Layer_1-2" data-name="Layer 1"><path class="cls-1" d="M71.68,81.12H9.44A9.45,9.45,0,0,1,0,71.68V9.44A9.44,9.44,0,0,1,9.44,0H71.68a9.45,9.45,0,0,1,9.44,9.44V71.68A9.46,9.46,0,0,1,71.68,81.12ZM9.44.75A8.7,8.7,0,0,0,.75,9.44V71.68a8.69,8.69,0,0,0,8.69,8.68H71.68a8.68,8.68,0,0,0,8.68-8.68V9.44A8.69,8.69,0,0,0,71.68.75Z"/><text class="cls-2" transform="translate(3.96 100.24)">Quiet Function</text><path class="cls-1" d="M30.37,41.56c0,3,0,5.92,0,8.88A2.41,2.41,0,0,1,29,52.85a2.32,2.32,0,0,1-2.67-.53c-2-1.72-4-3.44-6-5.18a1.14,1.14,0,0,0-.84-.32c-.65,0-1.31,0-2,0a2.28,2.28,0,0,1-2.38-2.29c-.05-2-.05-3.95,0-5.92a2.35,2.35,0,0,1,2.37-2.33q1,0,2,0a1.2,1.2,0,0,0,.88-.33c2-1.72,4-3.42,5.92-5.15A2.39,2.39,0,0,1,29,30.3a2.32,2.32,0,0,1,1.35,2.37C30.36,35.63,30.37,38.59,30.37,41.56Z"/><path class="cls-1" d="M35.06,41a7,7,0,0,1-1.44,4.24,1.18,1.18,0,1,1-1.87-1.41,4.65,4.65,0,0,0,.34-5.17,1.19,1.19,0,0,1,.37-1.75,1.22,1.22,0,0,1,1.69.63A7.12,7.12,0,0,1,35.06,41Z"/><path class="cls-1" d="M44.41,43.17c0,1.73-1.29,2.93-3.39,2.93A3.13,3.13,0,0,1,37.78,44l1.51-.6a1.72,1.72,0,0,0,1.76,1.3,1.54,1.54,0,0,0,1.67-1.55A1.57,1.57,0,0,0,41,41.57h-2.4l.25-4.63h5v1.3H40.27l-.12,2h.91C43.08,40.27,44.41,41.41,44.41,43.17Z"/><path class="cls-1" d="M51.91,43.51c0,1.54-1.36,2.59-3.26,2.59s-3.25-1.05-3.25-2.59a2.45,2.45,0,0,1,1.73-2.34,2.11,2.11,0,0,1-1.35-2c0-1.3,1-2.34,2.87-2.34s2.89,1,2.89,2.36a2.1,2.1,0,0,1-1.41,2A2.48,2.48,0,0,1,51.91,43.51Zm-1.65-.21a1.61,1.61,0,0,0-3.21,0,1.61,1.61,0,0,0,3.21,0Zm-2.91-3.94a1.31,1.31,0,0,0,2.61,0,1.31,1.31,0,0,0-2.61,0Z"/><path class="cls-1" d="M60,36.47V46H58.49v-.87a2.8,2.8,0,0,1-2.26,1,3.58,3.58,0,0,1,0-7.14,2.88,2.88,0,0,1,2.17.91v-3.4Zm-1.58,6.07a2,2,0,0,0-2-2.11,2.11,2.11,0,1,0,2,2.11Z"/><path class="cls-1" d="M68.43,43.41c0,1.53-1.06,2.54-2.93,2.54H61.69v-9h3.93a2.2,2.2,0,0,1,2.5,2.19,2.26,2.26,0,0,1-1.27,2A2.34,2.34,0,0,1,68.43,43.41Zm-3.28-5.13H63.32v2.35h1.8a1.2,1.2,0,0,0,1.35-1.17C66.47,38.76,66,38.28,65.15,38.28Zm1.63,5c0-.84-.61-1.32-1.53-1.32H63.32v2.64h1.95C66.23,44.61,66.78,44.13,66.78,43.29Z"/></g></g></svg>