<svg xmlns="http://www.w3.org/2000/svg" viewBox="0 0 81.12 81.12"><defs><style>.cls-1{fill:#161616;}.cls-2{fill:#ff7900;}</style></defs><g id="Layer_2" data-name="Layer 2"><g id="Layer_1-2" data-name="Layer 1"><path class="cls-1" d="M71.68,81.12H9.44A9.45,9.45,0,0,1,0,71.68V9.44A9.44,9.44,0,0,1,9.44,0H71.68a9.45,9.45,0,0,1,9.44,9.44V71.68A9.46,9.46,0,0,1,71.68,81.12ZM9.44.75A8.7,8.7,0,0,0,.75,9.44V71.68a8.69,8.69,0,0,0,8.69,8.68H71.68a8.68,8.68,0,0,0,8.68-8.68V9.44A8.69,8.69,0,0,0,71.68.75Z"/><path class="cls-1" d="M32.61,28.53,29.88,40.44h-3l-2-8.38-2,8.38h-3L17.17,28.53h2.52l1.76,8.93,2.06-8.93h2.76l2.07,9,1.77-9Z"/><path class="cls-1" d="M37.49,38.56a2.08,2.08,0,0,0,2.08-1.12l1.93,1.29a4.49,4.49,0,0,1-4.07,1.93,4.58,4.58,0,0,1-4.84-4.73,4.69,4.69,0,0,1,4.66-4.73,4.53,4.53,0,0,1,4.65,4.54,7.69,7.69,0,0,1,0,1H35.08A2.34,2.34,0,0,0,37.49,38.56Zm2-3.52a2.17,2.17,0,0,0-2.2-1.92A2.23,2.23,0,0,0,35,35Z"/><path class="cls-1" d="M43.89,37.06V33.57H42.34V31.41h.78c.61,0,.92-.33.92-1V29h2.47v2.38H48.7v2.16H46.42v3.19a1.29,1.29,0,0,0,1.39,1.47h1v2.21H47.28A3.09,3.09,0,0,1,43.89,37.06Z"/><path class="cls-1" d="M61.54,40.44l-1-.94a5,5,0,0,1-3.32,1.11c-2.37,0-4.22-1.42-4.22-3.46a3.49,3.49,0,0,1,2-3.24,3.63,3.63,0,0,1-.72-2.21c0-1.95,1.54-3.33,3.87-3.33A3.8,3.8,0,0,1,62.28,32H59.64a1.33,1.33,0,0,0-1.44-1.24A1.16,1.16,0,0,0,57,31.92c0,.74.43,1.08,2,2.86l1.48,1.58a5.69,5.69,0,0,0,.7-2.62l2.37.94a5.62,5.62,0,0,1-1.41,3.46l2.14,2.3Zm-2.67-2.6-2.35-2.3a.28.28,0,0,0-.09-.07,1.62,1.62,0,0,0-.8,1.42,1.54,1.54,0,0,0,1.66,1.46A2.63,2.63,0,0,0,58.87,37.84Z"/><path class="cls-2" d="M28.86,50.7a5.7,5.7,0,0,1-6.07,6H18.14V44.75h4.65A5.68,5.68,0,0,1,28.86,50.7Zm-2.59,0A3.39,3.39,0,0,0,22.7,47h-2V54.4h2A3.36,3.36,0,0,0,26.27,50.73Z"/><path class="cls-2" d="M35.32,47.4v2.39c-1.55,0-2.45.7-2.45,1.9v5H30.33v-9h2.4v.87A3.55,3.55,0,0,1,35.32,47.4Z"/><path class="cls-2" d="M45.22,47.63l-3.32,9-1.12,3.07h-2.5l1.22-3.07h-.84l-3-9h2.62l2,7,2.3-7Z"/></g></g></svg>