<svg width="43" height="30" viewBox="0 0 43 30" fill="none" xmlns="http://www.w3.org/2000/svg">
<path d="M28.5809 0.539938C28.4465 0.378461 28.2799 0.24681 28.0917 0.153402C27.9035 0.0599949 27.6978 0.00689996 27.4879 -0.00251197C27.278 -0.0119239 27.0685 0.0225571 26.8727 0.0987454C26.6769 0.174934 26.4992 0.291164 26.3508 0.439962C26.2021 0.588833 26.0862 0.767142 26.0104 0.963461C25.9346 1.15978 25.9007 1.36976 25.9109 1.57995C25.9216 1.7889 25.975 1.99345 26.0679 2.18093C26.1608 2.36841 26.2912 2.53483 26.4509 2.66994L37.3109 13.53H1.40088C1.14439 13.5469 0.896058 13.627 0.677982 13.7631C0.459906 13.8992 0.278847 14.087 0.150883 14.31C0.027003 14.5353 -0.0376819 14.7884 -0.0371056 15.0456C-0.0365292 15.3027 0.02929 15.5556 0.154179 15.7804C0.279067 16.0052 0.458966 16.1946 0.677006 16.3309C0.895045 16.4673 1.1441 16.5461 1.40088 16.56H37.2709L26.4009 27.41C26.1241 27.6954 25.9694 28.0774 25.9694 28.475C25.9694 28.8725 26.1241 29.2545 26.4009 29.5399C26.6821 29.8208 27.0634 29.9786 27.4609 29.9786C27.8584 29.9786 28.2396 29.8208 28.5209 29.5399L41.9708 16.09C42.1124 15.952 42.2251 15.7872 42.3024 15.6052C42.3796 15.4232 42.42 15.2277 42.4209 15.03C42.4168 14.6311 42.255 14.25 41.9708 13.97L28.5809 0.539938Z" fill="#FF7900"/>
</svg>
