<svg xmlns="http://www.w3.org/2000/svg" viewBox="0 0 166.88 36.26"><defs><style>.cls-1{fill:#282828;}.cls-2{fill:#ff7900;}</style></defs><g id="Layer_2" data-name="Layer 2"><g id="Layer_1-2" data-name="Layer 1"><path class="cls-1" d="M28.68,24.53c0,6.4-5.43,11.06-13.22,11.06H0L6.91,0H21.66c5.84,0,8.91,3.17,8.91,7.83,0,4.36-2.61,7.48-6.55,9.07A8,8,0,0,1,28.68,24.53Zm-7.22.1c0-2.76-1.69-4.4-4.82-4.4h-6.5L8.29,29.75h6.92C19.15,29.75,21.46,27.75,21.46,24.63ZM18.64,5.84H12.9l-1.63,8.55h6.14c3.28,0,5.53-2,5.53-4.87S20.74,5.84,18.64,5.84Z"/><path class="cls-2" d="M55.94,12.42A12.87,12.87,0,0,0,45.73,8,16.26,16.26,0,0,0,29.39,24.07c0,7.57,5.43,12.18,12.75,12.18A16.19,16.19,0,0,0,53.6,31.62a14.55,14.55,0,0,1-2-7.55A17.83,17.83,0,0,1,55.94,12.42ZM43,29.8c-3.84,0-6.2-2.71-6.2-6.55,0-4.61,3.38-8.86,8.15-8.86,3.73,0,6.14,2.66,6.14,6.5C51.1,25.4,47.82,29.8,43,29.8Z"/><path class="cls-2" d="M53.62,24.07A16.26,16.26,0,0,1,70,8c7,0,12.75,4.4,12.75,12.13A16.2,16.2,0,0,1,66.37,36.26C59.05,36.26,53.62,31.65,53.62,24.07Zm21.71-3.18c0-3.84-2.41-6.5-6.15-6.5-4.76,0-8.14,4.25-8.14,8.86,0,3.84,2.36,6.55,6.2,6.55C72.05,29.8,75.33,25.4,75.33,20.89Z"/><path class="cls-1" d="M80.69,29.14,87,26.88c.51,2.46,2.56,3.79,5.33,3.79,2.3,0,4.14-1,4.14-2.92,0-4.55-12.18-2.71-12.18-11.11C84.33,11.57,89,8,95.7,8c5.37,0,9.32,2.3,9.93,5.89l-6.45,2.35a3.56,3.56,0,0,0-3.84-2.81c-2,0-3.74,1-3.74,2.61,0,4.15,12.29,2.51,12.29,11.06,0,5.53-5.07,9.17-12.19,9.17C85.61,36.26,81.25,33.54,80.69,29.14Z"/><path class="cls-1" d="M107.32,25.09l2-10.29h-4.51L106,8.6h2.25c1.8,0,2.87-1,3.28-2.86l.77-4.2h7.07L118,8.6h6.51l-1.23,6.2h-6.76l-1.85,9.42c-.66,3.38.82,5.07,3.79,5.07h2.26l-1.23,6.3h-3.74C109.11,35.59,106.09,31.54,107.32,25.09Z"/><path class="cls-1" d="M134.15,30.26c2.87,0,4.87-1.28,6.56-3.68l4.81,3.58a14.77,14.77,0,0,1-12.19,6.1c-7.32,0-12.39-5.13-12.39-12.14A16.12,16.12,0,0,1,136.87,8c7.22,0,11.67,5.07,11.67,11a16.75,16.75,0,0,1-1,5.32H128A5.89,5.89,0,0,0,134.15,30.26Zm7.79-10.75V19.1c0-3.43-1.9-5.63-5.38-5.63-3.94,0-6.71,2.66-7.94,6Z"/><path class="cls-1" d="M166.88,7.94l-1.28,6.81c-4.56,0-7.27,1.94-8.3,5.63l-3,15.21h-7.22l5.22-27h6.82l-.57,3.13A11.73,11.73,0,0,1,166.88,7.94Z"/></g></g></svg>