<svg width="84" height="60" viewBox="0 0 84 60" fill="none" xmlns="http://www.w3.org/2000/svg">
<g clip-path="url(#clip0_244_4)">
<path d="M41.9792 0.00999923H4.5292C3.9592 0.00999923 3.39919 0.00999923 2.83919 0.00999923C2.44523 0.0152521 2.05614 0.0980497 1.69418 0.253667C1.33221 0.409284 1.00444 0.634661 0.729576 0.916951C0.454714 1.19924 0.238158 1.53291 0.0922466 1.8989C-0.0536645 2.26489 -0.12608 2.65603 -0.120827 3.04999C-0.115574 3.44396 -0.0327309 3.83303 0.122886 4.195C0.278503 4.55696 0.503865 4.88474 0.786155 5.1596C1.06845 5.43446 1.4021 5.65103 1.76809 5.79694C2.13408 5.94285 2.52525 6.01525 2.91921 6.01C3.34921 6.01 3.78921 6.01 4.22921 6.01H79.6892C80.2495 6.04861 80.8122 6.03186 81.3692 5.96C82.0695 5.83625 82.7032 5.4677 83.1571 4.92009C83.6109 4.37249 83.8554 3.68146 83.847 2.97028C83.8386 2.2591 83.5778 1.57405 83.1111 1.03733C82.6444 0.500609 82.0023 0.147149 81.2992 0.039998C80.7368 -0.00519465 80.1716 -0.00519465 79.6092 0.039998L41.9792 0.00999923Z" fill="#7F7F7F"/>
<path d="M47.9602 33H79.6002C80.2242 33.0469 80.8515 33.0235 81.4702 32.93C82.1467 32.7833 82.7517 32.4072 83.1826 31.8654C83.6135 31.3236 83.8437 30.6494 83.8343 29.9573C83.8249 29.2651 83.5764 28.5974 83.1309 28.0676C82.6854 27.5377 82.0704 27.1782 81.3902 27.05C80.8282 26.9947 80.2621 26.9947 79.7002 27.05H16.2302C15.8002 27.05 15.3602 27.05 14.9202 27.05C14.1245 27.0619 13.3662 27.3894 12.812 27.9605C12.2579 28.5315 11.9532 29.2993 11.9652 30.095C11.9771 30.8906 12.3047 31.6489 12.8757 32.2031C13.4468 32.7573 14.2145 33.0619 15.0102 33.05C15.5102 33.05 16.0102 33.05 16.5102 33.05L47.9602 33Z" fill="#7F7F7F"/>
<path d="M61.5207 59.99C67.8207 59.99 74.1207 59.99 80.4207 59.99C82.8607 59.99 84.4207 58.25 83.8407 56.24C83.6663 55.5696 83.2652 54.9802 82.7056 54.5719C82.146 54.1636 81.4623 53.9615 80.7707 54C67.924 54 55.074 54 42.2207 54C41.4251 54 40.662 54.3161 40.0994 54.8787C39.5368 55.4413 39.2207 56.2043 39.2207 57C39.2207 57.7956 39.5368 58.5587 40.0994 59.1213C40.662 59.6839 41.4251 60 42.2207 60C48.6707 60.01 55.0907 59.99 61.5207 59.99Z" fill="#7F7F7F"/>
</g>
<defs>
<clipPath id="clip0_244_4">
<rect width="83.97" height="60" fill="white"/>
</clipPath>
</defs>
</svg>
