<svg width="35" height="67" viewBox="0 0 35 67" fill="none" xmlns="http://www.w3.org/2000/svg">
<path d="M22.4898 51.4997C22.4898 56.1997 22.4898 60.9096 22.4898 65.6096C22.4898 66.3296 22.3798 66.6096 21.5698 66.6096C18.0698 66.5596 14.5698 66.6096 11.0798 66.6096C10.3898 66.6096 10.2298 66.41 10.2298 65.74C10.2298 56.27 10.2298 46.74 10.2298 37.32C10.2298 36.48 10.0598 36.1897 9.14983 36.2097C6.34983 36.2797 3.54982 36.2097 0.749821 36.2097C0.149821 36.2097 -0.0501727 36.0497 -0.0401727 35.4397C-0.0401727 31.9997 -0.0401727 28.5629 -0.0401727 25.1296C-0.0401727 24.5196 0.149821 24.3398 0.749821 24.3498C3.59982 24.3498 6.45983 24.3498 9.31983 24.3498C10.0598 24.3498 10.2398 24.1296 10.2298 23.4196C10.2298 20.9096 10.2298 18.4196 10.2298 15.8796C10.1299 12.8072 10.8184 9.76082 12.2298 7.02999C14.5198 2.87999 18.1698 0.779893 22.7498 0.179893C26.4998 -0.310107 30.2398 0.17958 33.9898 0.35958C34.4498 0.35958 34.6298 0.56001 34.6298 1.05001C34.6298 4.17001 34.6298 7.28987 34.6298 10.4099C34.6298 10.9699 34.3998 11.0698 33.9098 11.0598C31.7832 11.0598 29.6465 11.0598 27.4998 11.0598C26.9229 11.0624 26.3486 11.1365 25.7898 11.28C23.6798 11.83 22.5898 13.2797 22.5298 15.7097C22.4498 18.3597 22.5298 21.0197 22.4698 23.7097C22.4698 24.3197 22.7698 24.3298 23.2198 24.3298C26.5698 24.3298 29.9198 24.3298 33.2698 24.3298C34.0098 24.3298 34.1998 24.53 34.0998 25.26C33.6198 28.66 33.1698 32.0699 32.7498 35.4699C32.6698 36.0999 32.3998 36.1999 31.8598 36.1999C28.9998 36.1999 26.1398 36.1999 23.2798 36.1999C22.6298 36.1999 22.4598 36.39 22.4598 37.03C22.4998 41.85 22.4898 46.6697 22.4898 51.4997Z" fill="black"/>
</svg>
