<svg width="67" height="67" viewBox="0 0 67 67" fill="none" xmlns="http://www.w3.org/2000/svg">
<g clip-path="url(#clip0_130_6)">
<path d="M0.0297852 33.3102C0.0297852 28.4002 0.0297852 23.4902 0.0297852 18.5802C0.109785 10.7002 3.69979 4.99019 10.8198 1.58019C13.1396 0.518049 15.6688 -0.00833138 18.2198 0.0401526C28.2698 0.0401526 38.3198 -0.0498474 48.3698 0.0401526C56.1898 0.130153 61.7898 3.90007 65.1198 10.9601C66.1345 13.2394 66.6298 15.7158 66.5698 18.2101C66.5698 28.2101 66.6598 38.31 66.5698 48.36C66.4798 56.18 62.6998 61.78 55.6398 65.11C53.364 66.1249 50.8908 66.6204 48.3998 66.5602C38.3998 66.5602 28.2998 66.6502 18.2498 66.5602C10.4198 66.4702 4.81979 62.69 1.49979 55.63C0.47061 53.295 -0.0280151 50.7609 0.0397949 48.2101C0.0297949 43.2401 0.0297852 38.2802 0.0297852 33.3102ZM33.3698 3.98009H18.4698C16.546 3.93038 14.6323 4.27328 12.8456 4.98791C11.0588 5.70254 9.43648 6.77373 8.07761 8.13634C6.71874 9.49896 5.65188 11.1245 4.94217 12.9132C4.23246 14.7019 3.8948 16.6166 3.9498 18.5402C3.9498 28.4102 3.9498 38.2898 3.9498 48.1598C3.91067 48.9706 3.93741 49.7835 4.02979 50.59C4.502 54.003 6.21102 57.1239 8.8324 59.36C11.4538 61.5961 14.805 62.7916 18.2498 62.7198C28.2498 62.7198 38.2498 62.7198 48.2498 62.7198C50.3624 62.7726 52.4582 62.3308 54.3698 61.4298C56.9179 60.3107 59.0698 58.4503 60.545 56.0904C62.0201 53.7306 62.7501 50.9807 62.6398 48.1998C62.6398 38.2998 62.6398 28.3899 62.6398 18.4899C62.6501 17.4843 62.5664 16.4799 62.3898 15.4899C61.8112 12.3857 60.2002 9.56837 57.8185 7.49523C55.4367 5.42209 52.4241 4.21496 49.2698 4.06994C44.0298 3.86994 38.6598 3.98009 33.3498 3.98009H33.3698Z" fill="black"/>
<path d="M51.4801 33.2902C51.484 36.8902 50.4202 40.4105 48.4232 43.4059C46.4262 46.4013 43.5858 48.737 40.2611 50.1178C36.9364 51.4987 33.2769 51.8624 29.7454 51.1632C26.2139 50.4641 22.9691 48.7336 20.4214 46.1901C17.8737 43.6466 16.1375 40.4045 15.4325 36.8742C14.7275 33.3438 15.0853 29.6836 16.4607 26.3566C17.8361 23.0296 20.1673 20.1857 23.1593 18.1837C26.1514 16.1818 29.67 15.112 33.2701 15.11C38.092 15.1179 42.7147 17.0347 46.1271 20.4416C49.5396 23.8484 51.4642 28.4682 51.4801 33.2902ZM47.5701 33.2902C47.5661 30.4646 46.724 27.7034 45.1502 25.3566C43.5765 23.0098 41.3419 21.1829 38.7293 20.1066C36.1167 19.0303 33.2436 18.7534 30.4735 19.3107C27.7034 19.868 25.1609 21.2346 23.1679 23.2375C21.1748 25.2403 19.8207 27.7894 19.277 30.5622C18.7332 33.3349 19.0243 36.2068 20.1134 38.8141C21.2025 41.4214 23.0406 43.6469 25.395 45.2091C27.7495 46.7713 30.5145 47.5999 33.3401 47.59C37.1231 47.5741 40.7454 46.0586 43.4129 43.3761C46.0804 40.6936 47.5754 37.063 47.5701 33.2799V33.2902Z" fill="black"/>
<path d="M51.9299 8.65982C53.3441 8.67012 54.698 9.23391 55.7017 10.2301C56.7054 11.2264 57.279 12.5759 57.2999 13.9899C57.3312 14.7153 57.2154 15.4394 56.9594 16.1188C56.7034 16.7982 56.3125 17.4187 55.8103 17.943C55.3081 18.4674 54.705 18.885 54.0372 19.1701C53.3695 19.4551 52.651 19.6017 51.9249 19.6017C51.1989 19.6017 50.4804 19.4551 49.8126 19.1701C49.1449 18.885 48.5418 18.4674 48.0396 17.943C47.5374 17.4187 47.1465 16.7982 46.8905 16.1188C46.6345 15.4394 46.5186 14.7153 46.5499 13.9899C46.5683 12.5734 47.1426 11.2208 48.149 10.2238C49.1554 9.22674 50.5133 8.66495 51.9299 8.65982ZM51.9299 15.4601C52.1177 15.4628 52.3042 15.4285 52.4787 15.359C52.6532 15.2896 52.8123 15.1863 52.947 15.0553C53.0816 14.9244 53.1892 14.7684 53.2635 14.5959C53.3377 14.4234 53.3773 14.2378 53.3799 14.05C53.3853 13.6688 53.2404 13.3007 52.9765 13.0255C52.7126 12.7504 52.351 12.5907 51.9699 12.5802C51.5765 12.5776 51.1979 12.7306 50.9169 13.006C50.6359 13.2814 50.4752 13.6565 50.4699 14.05C50.4804 14.4275 50.6377 14.7861 50.9085 15.0495C51.1793 15.3128 51.5422 15.4603 51.9199 15.4601H51.9299Z" fill="black"/>
</g>
<defs>
<clipPath id="clip0_130_6">
<rect width="66.6" height="66.62" fill="white"/>
</clipPath>
</defs>
</svg>
