<svg width="60" height="60" viewBox="0 0 60 60" fill="none" xmlns="http://www.w3.org/2000/svg">
<g clip-path="url(#clip0_130_12)">
<path d="M33.1102 25.1301C33.2088 25.1452 33.3097 25.1255 33.3954 25.0744C33.4812 25.0233 33.5465 24.9437 33.5802 24.8498C34.7233 23.0805 36.287 21.622 38.1315 20.6047C39.976 19.5873 42.0439 19.0432 44.1502 19.0202C46.619 18.8377 49.0996 19.1434 51.4502 19.9201C55.6302 21.4001 57.8802 24.5501 58.9602 28.6901C59.6873 31.7588 60.0233 34.9072 59.9602 38.0602C59.9602 44.9802 59.9602 51.8902 59.9602 58.8102C59.9602 59.6202 59.7402 59.8102 58.9602 59.8102C55.5202 59.8102 52.0802 59.7602 48.6402 59.8102C47.7902 59.8102 47.4902 59.6501 47.5002 58.7101C47.5402 52.1901 47.5402 45.6634 47.5002 39.1301C47.5479 37.5386 47.3832 35.9479 47.0102 34.4001C46.0102 30.9301 43.6202 29.34 40.0602 29.82C36.5002 30.3 34.4002 32.41 33.8902 36.36C33.7436 37.6179 33.6768 38.8838 33.6902 40.1501C33.6902 46.3901 33.6902 52.62 33.6902 58.86C33.6902 59.73 33.4602 59.9399 32.6102 59.9299C29.1002 59.8799 25.6102 59.9299 22.0802 59.9299C21.4202 59.9299 21.2002 59.77 21.2002 59.07C21.2002 46.31 21.2002 33.5466 21.2002 20.78C21.2002 20.12 21.3502 19.8798 22.0502 19.8898C25.4635 19.8898 28.8735 19.8898 32.2802 19.8898C32.9902 19.8898 33.1602 20.1402 33.1402 20.7902C33.0902 22.2502 33.1102 23.7001 33.1102 25.1301Z" fill="black"/>
<path d="M0.990234 40.0001C0.990234 33.6701 0.990234 27.3401 0.990234 21.0001C0.990234 20.1701 1.17024 19.88 2.06024 19.9C5.50024 19.9 8.95026 19.9 12.3903 19.9C13.2803 19.9 13.4503 20.1601 13.4503 21.0001C13.4503 33.6001 13.4503 46.2035 13.4503 58.8102C13.4503 59.6502 13.2902 59.9801 12.3502 59.9601C8.90022 59.9001 5.46026 59.9101 2.02026 59.9601C1.19026 59.9601 1.02026 59.6998 1.02026 58.9098C1.00026 52.5898 0.990234 46.3101 0.990234 40.0001Z" fill="black"/>
<path d="M14.39 7.25977C14.3781 8.68414 13.9439 10.0729 13.1425 11.2505C12.341 12.4281 11.2083 13.3414 9.88757 13.875C8.56688 14.4086 7.11756 14.5388 5.72302 14.2485C4.32848 13.9583 3.05136 13.2609 2.05328 12.2446C1.0552 11.2284 0.380995 9.93862 0.115964 8.53906C-0.149068 7.13951 0.00699031 5.69268 0.564389 4.38184C1.12179 3.071 2.05546 1.95535 3.24731 1.1753C4.43916 0.395242 5.83565 -0.0137963 7.26001 2.25191e-06C9.16451 0.0289336 10.9809 0.80706 12.3155 2.16602C13.6501 3.52498 14.3955 5.35505 14.39 7.25977Z" fill="black"/>
</g>
<defs>
<clipPath id="clip0_130_12">
<rect width="59.96" height="59.97" fill="white"/>
</clipPath>
</defs>
</svg>
