<svg width="67" height="55" viewBox="0 0 67 55" fill="none" xmlns="http://www.w3.org/2000/svg">
<path d="M12.82 32.571C4.90998 30.161 2.23 23.3608 2.53 19.0808C3.41744 19.4925 4.32911 19.8502 5.25998 20.1511C6.1941 20.4482 7.16986 20.593 8.14999 20.5808C8.25999 20.3308 8.03999 20.2709 7.92999 20.1809C5.54004 18.3686 3.81787 15.8154 3.03265 12.9206C2.24744 10.0258 2.44344 6.95251 3.59 4.1809C4.29 2.3509 4.27 2.37123 5.59 3.77123C11.8035 10.8281 20.403 15.343 29.74 16.4509C30.45 16.5409 31.18 16.5709 31.89 16.6809C32.6 16.7909 32.55 16.681 32.46 16.071C31.8853 12.7045 32.5611 9.24408 34.36 6.34106C35.434 4.64855 36.8673 3.21291 38.5582 2.13647C40.2492 1.06002 42.1563 0.369272 44.1443 0.112541C46.1323 -0.14419 48.1525 0.0395609 50.0614 0.651115C51.9703 1.26267 53.7213 2.28698 55.19 3.65111C55.3774 3.87341 55.6273 4.03408 55.9073 4.11254C56.1873 4.191 56.4844 4.18358 56.76 4.09106C59.2321 3.49438 61.6132 2.5695 63.84 1.34106C63.99 1.26106 64.15 1.2108 64.45 1.0808C63.4643 4.06131 61.5153 6.62968 58.91 8.3811C61.4415 8.07792 63.9146 7.40404 66.25 6.3811C65.3233 7.88471 64.215 9.26857 62.95 10.5012C62.0969 11.4031 61.1556 12.2169 60.14 12.9309C59.9293 13.0744 59.7632 13.2747 59.6606 13.508C59.5581 13.7414 59.5232 13.9989 59.56 14.2512C59.44 28.3312 53.82 39.6212 42.24 47.7312C36.8365 51.4086 30.5273 53.532 24 53.8708C17.4111 54.4095 10.7928 53.2746 4.75998 50.571C3.09199 49.8504 1.49787 48.9697 0 47.9412C7.07892 48.6686 14.1693 46.6734 19.83 42.3611C18.83 42.1811 17.89 42.0711 17.03 41.8411C14.8874 41.3202 12.9026 40.2887 11.2448 38.8347C9.58713 37.3807 8.30572 35.5474 7.50998 33.491C7.26998 32.911 7.43998 32.7911 8.00998 32.8611C9.61626 33.0946 11.2534 32.9958 12.82 32.571Z" fill="black"/>
</svg>
