<svg xmlns="http://www.w3.org/2000/svg" viewBox="0 0 66.92 25.46"><defs><style>.cls-1{fill:#fff;}.cls-2{fill:#ff7900;}.cls-3{fill:#9e9e9e;}</style></defs><g id="Layer_2" data-name="Layer 2"><g id="Layer_1-2" data-name="Layer 1"><path class="cls-1" d="M.54,3.91,0,6.63H4.36L2,18.91H5L7.43,6.63h4.33l.54-2.72Z"/><path class="cls-1" d="M19.66,11.92a4.62,4.62,0,0,0-4.92-4.64A6.79,6.79,0,0,0,8,14.08a5,5,0,0,0,5.22,5.11,6.21,6.21,0,0,0,5.14-2.57l-2-1.51a3.19,3.19,0,0,1-2.76,1.56A2.49,2.49,0,0,1,11,14.16h8.26A6.93,6.93,0,0,0,19.66,11.92Zm-2.78.21H11.27a3.57,3.57,0,0,1,3.34-2.54A2.13,2.13,0,0,1,16.88,12Z"/><path class="cls-1" d="M25.08,16.47a2.5,2.5,0,0,1-2.48-2.78A3.55,3.55,0,0,1,26,10a2.13,2.13,0,0,1,2.29,2l2.87-1c-.2-2.16-2.23-3.71-4.79-3.71A6.84,6.84,0,0,0,19.51,14a5,5,0,0,0,5.23,5.16,6.26,6.26,0,0,0,5.69-3.69L28,14.44A3.18,3.18,0,0,1,25.08,16.47Z"/><path class="cls-1" d="M38.57,7.26a5.29,5.29,0,0,0-3.39,1.25l1.06-5.38h-3L30.13,18.91h3.05l1.31-6.78A2.75,2.75,0,0,1,37.15,10c1.31,0,2.11.84,1.79,2.5l-1.23,6.43h3l1.36-7C42.67,9.11,41.16,7.26,38.57,7.26Z"/><path class="cls-1" d="M50.29,7.26a5.36,5.36,0,0,0-3.58,1.42l.21-1.14H44.05l-1.36,7h3.05l.47-2.43A2.75,2.75,0,0,1,48.87,10c1.31,0,2.11.84,1.79,2.5L50.36,14h3.06l.41-2.11C54.39,9.11,52.88,7.26,50.29,7.26Z"/><path class="cls-1" d="M60.89,7.28A6.85,6.85,0,0,0,54,14.05a5.23,5.23,0,0,0,.88,3h1l-.18.92a5.07,5.07,0,0,0,1.75.93l.36-1.85h3.08l-.25,1.24A3.89,3.89,0,0,1,64,16.89a5.17,5.17,0,0,1,.57,0,6.79,6.79,0,0,0,1.74-4.53C66.26,9.13,63.84,7.28,60.89,7.28Zm-1.15,9.19a2.53,2.53,0,0,1-2.61-2.76A3.59,3.59,0,0,1,60.56,10a2.52,2.52,0,0,1,2.59,2.74A3.6,3.6,0,0,1,59.74,16.47Z"/><path class="cls-2" d="M49.85,17.81c0,2.15-1.73,3.7-4.17,3.7h-2L43,25.26H40.6l2-10.35h4.06C48.64,14.91,49.85,16.06,49.85,17.81Zm-2.46.29A1,1,0,0,0,46.2,17H44.57l-.47,2.46h1.75A1.37,1.37,0,0,0,47.39,18.1Z"/><path class="cls-2" d="M50.76,14.37h2.36L51,25.26H48.64Z"/><path class="cls-2" d="M60.5,17.41,59,25.26H56.74l.15-.77a3.5,3.5,0,0,1-2.37,1c-1.65,0-2.69-1.3-2.32-3.19l.92-4.86h2.37l-.85,4.41c-.19,1,.3,1.52,1,1.52a1.66,1.66,0,0,0,1.59-1.49l.87-4.44Z"/><path class="cls-2" d="M59.53,23.35l2-.71a1.34,1.34,0,0,0,1.43,1c.58,0,1-.27,1-.73,0-1.22-3.45-.71-3.45-3.14,0-1.52,1.38-2.58,3.39-2.58,1.6,0,2.79.69,3,1.75l-2.07.74a1,1,0,0,0-1-.76c-.52,0-.92.25-.92.64,0,1.1,3.47.66,3.47,3.14,0,1.63-1.49,2.72-3.61,2.72C61,25.46,59.69,24.67,59.53,23.35Z"/><path class="cls-3" d="M57.74,3.64h1.77l-.14.73H56.31l.12-.58,1.75-1.45c.58-.47.84-.76.84-1.12A.47.47,0,0,0,58.5.75a.9.9,0,0,0-.81.6l-.75-.26A1.76,1.76,0,0,1,58.62,0c.79,0,1.31.43,1.31,1.06s-.32,1.07-1.1,1.68Z"/><path class="cls-3" d="M61.67.76l-.22.87h.22c.9,0,1.48.48,1.48,1.24a1.6,1.6,0,0,1-1.8,1.58,1.33,1.33,0,0,1-1.46-1l.83-.31a.66.66,0,0,0,.73.58A.73.73,0,0,0,62.24,3a.63.63,0,0,0-.68-.65H60.5L61.06.07h2.35l-.14.69Z"/><path class="cls-3" d="M66.65,3.09a1.54,1.54,0,0,1-1.72,1.36c-.85,0-1.43-.45-1.43-1.11a1.34,1.34,0,0,1,1.07-1.26.86.86,0,0,1-.49-.82A1.37,1.37,0,0,1,65.62,0c.79,0,1.24.43,1.24,1A1.15,1.15,0,0,1,66,2.11,1,1,0,0,1,66.65,3.09ZM65.79,3a.54.54,0,0,0-.6-.56.77.77,0,0,0-.8.73.54.54,0,0,0,.61.56A.76.76,0,0,0,65.79,3ZM64.9,1.32a.44.44,0,0,0,.48.48A.64.64,0,0,0,66,1.18a.45.45,0,0,0-.49-.47A.62.62,0,0,0,64.9,1.32Z"/></g></g></svg>