<svg xmlns="http://www.w3.org/2000/svg" viewBox="0 0 66.88 26.33"><defs><style>.cls-1{fill:#fff;}.cls-2{fill:#ff7900;}.cls-3{fill:#9e9e9e;}</style></defs><g id="Layer_2" data-name="Layer 2"><g id="Layer_1-2" data-name="Layer 1"><path class="cls-1" d="M.54,4.8,0,7.52H4.36L2,19.79H5L7.42,7.52h4.34L12.3,4.8Z"/><path class="cls-1" d="M19.65,12.8a4.62,4.62,0,0,0-4.92-4.64A6.79,6.79,0,0,0,8,15a5,5,0,0,0,5.22,5.11,6.21,6.21,0,0,0,5.13-2.57l-2-1.5a3.18,3.18,0,0,1-2.76,1.55A2.49,2.49,0,0,1,11,15.05h8.26A6.94,6.94,0,0,0,19.65,12.8ZM16.87,13H11.26a3.57,3.57,0,0,1,3.35-2.55,2.13,2.13,0,0,1,2.26,2.38Z"/><path class="cls-1" d="M25.07,17.35a2.5,2.5,0,0,1-2.48-2.78A3.55,3.55,0,0,1,26,10.88a2.13,2.13,0,0,1,2.28,2l2.87-1C31,9.72,28.93,8.16,26.36,8.16a6.85,6.85,0,0,0-6.86,6.76,5,5,0,0,0,5.22,5.15,6.27,6.27,0,0,0,5.7-3.69l-2.46-1A3.18,3.18,0,0,1,25.07,17.35Z"/><path class="cls-1" d="M38.55,8.14A5.3,5.3,0,0,0,35.16,9.4L36.22,4h-3L30.12,19.79h3L34.47,13a2.75,2.75,0,0,1,2.66-2.16c1.31,0,2.11.84,1.79,2.5l-1.23,6.43h3l1.36-7C42.65,10,41.14,8.14,38.55,8.14Z"/><path class="cls-1" d="M50.26,8.14a5.37,5.37,0,0,0-3.58,1.43l.22-1.15H44l-1.36,7h3L46.19,13a2.74,2.74,0,0,1,2.65-2.16c1.32,0,2.11.84,1.79,2.5l-.3,1.55h3.06l.41-2.11C54.36,10,52.85,8.14,50.26,8.14Z"/><path class="cls-1" d="M60.86,8.16A6.85,6.85,0,0,0,54,14.94a5.19,5.19,0,0,0,.87,3h1l-.18.92a5.07,5.07,0,0,0,1.75.93L57.81,18h3.07l-.24,1.24a3.89,3.89,0,0,1,3.28-1.42,5.12,5.12,0,0,1,.56,0,6.76,6.76,0,0,0,1.74-4.52C66.22,10,63.81,8.16,60.86,8.16Zm-1.15,9.19a2.53,2.53,0,0,1-2.61-2.76,3.59,3.59,0,0,1,3.43-3.73,2.52,2.52,0,0,1,2.59,2.74A3.6,3.6,0,0,1,59.71,17.35Z"/><path class="cls-2" d="M49.82,18.7c0,2.14-1.73,3.69-4.17,3.69h-2l-.73,3.75H40.57l2-10.35h4.07A2.84,2.84,0,0,1,49.82,18.7ZM47.36,19a1,1,0,0,0-1.19-1.12H44.55l-.48,2.46h1.76A1.37,1.37,0,0,0,47.36,19Z"/><path class="cls-2" d="M50.73,15.26h2.36L51,26.14H48.61Z"/><path class="cls-2" d="M60.46,18.29,59,26.14H56.71l.15-.78a3.46,3.46,0,0,1-2.37,1c-1.65,0-2.69-1.29-2.32-3.18l.92-4.86h2.37l-.85,4.41c-.19,1,.3,1.52,1,1.52a1.66,1.66,0,0,0,1.59-1.49l.87-4.44Z"/><path class="cls-2" d="M59.5,24.23l2-.71a1.34,1.34,0,0,0,1.43,1c.58,0,1-.27,1-.73,0-1.22-3.46-.71-3.46-3.14,0-1.52,1.39-2.58,3.4-2.58,1.59,0,2.78.69,3,1.75l-2.07.74a1,1,0,0,0-1-.76c-.52,0-.92.25-.92.64,0,1.1,3.47.66,3.47,3.14,0,1.63-1.49,2.71-3.6,2.71C60.94,26.33,59.66,25.54,59.5,24.23Z"/><path class="cls-3" d="M57.21,3.9h.55l-.16.77H55.4l.15-.77h.73l.46-2.4H56l.15-.77h.71L57,.08H58Z"/><path class="cls-3" d="M60,.81l-.24.94H60c1,0,1.58.51,1.58,1.32a1.71,1.71,0,0,1-1.92,1.69,1.42,1.42,0,0,1-1.56-1.08L59,3.34a.7.7,0,0,0,.78.62.79.79,0,0,0,.85-.78.68.68,0,0,0-.74-.7H58.73l.6-2.4h2.52l-.16.73Z"/><path class="cls-3" d="M65.31,3.31a1.65,1.65,0,0,1-1.84,1.45c-.92,0-1.53-.48-1.53-1.18a1.46,1.46,0,0,1,1.14-1.36.9.9,0,0,1-.53-.87A1.48,1.48,0,0,1,64.2,0c.85,0,1.33.46,1.33,1.08a1.25,1.25,0,0,1-.93,1.18A1.09,1.09,0,0,1,65.31,3.31Zm-.93-.08a.57.57,0,0,0-.63-.61.82.82,0,0,0-.86.78.58.58,0,0,0,.65.6A.8.8,0,0,0,64.38,3.23Zm-.95-1.82a.48.48,0,0,0,.52.51.68.68,0,0,0,.68-.66.47.47,0,0,0-.52-.5A.67.67,0,0,0,63.43,1.41Z"/></g></g></svg>