<svg xmlns="http://www.w3.org/2000/svg" viewBox="0 0 66.38 23.52"><defs><style>.cls-1{fill:#ff7900;}.cls-2{fill:#fff;}.cls-3{fill:#9e9e9e;}</style></defs><g id="Layer_2" data-name="Layer 2"><g id="Layer_1-2" data-name="Layer 1"><path class="cls-1" d="M33.37,9.09a4.91,4.91,0,0,0-3.15,1.17l1-5H28.37l-.93,4.82a6.1,6.1,0,0,1,1.15,3.69,7.5,7.5,0,0,1-3.06,6.1v.06h2.83l1.23-6.3a2.55,2.55,0,0,1,2.47-2c1.22,0,2,.78,1.66,2.33l-1.14,6H35.4l1.26-6.5C37.18,10.82,35.78,9.09,33.37,9.09Z"/><path class="cls-1" d="M46.2,11.71a4.83,4.83,0,0,0-4.54-2.6,6.37,6.37,0,0,0-6.41,6.3c0,3,2.13,4.78,5,4.78a6.34,6.34,0,0,0,6.4-6.32A5,5,0,0,0,46.2,11.71Zm-5.61,5.95a2.36,2.36,0,0,1-2.43-2.57,3.35,3.35,0,0,1,3.19-3.47,2.35,2.35,0,0,1,2.41,2.55A3.35,3.35,0,0,1,40.59,17.66Z"/><path class="cls-1" d="M51.37,9.11a6.44,6.44,0,0,0-5.17,2.6A6.18,6.18,0,0,0,45,15.41a5.22,5.22,0,0,0,.45,2.19A4.79,4.79,0,0,0,50,20.19a6.35,6.35,0,0,0,6.4-6.32C56.36,10.84,54.12,9.11,51.37,9.11ZM50.3,17.66a2.36,2.36,0,0,1-2.43-2.57,3.35,3.35,0,0,1,3.2-3.47,2.35,2.35,0,0,1,2.4,2.55A3.35,3.35,0,0,1,50.3,17.66Z"/><path class="cls-1" d="M65.41,13.43l-1.26,6.5H61.32l1.14-6c.3-1.55-.44-2.33-1.66-2.33a2.55,2.55,0,0,0-2.47,2l-1.23,6.3H54.28l2-10.58H59l-.2,1.07a5,5,0,0,1,3.33-1.33C64.53,9.09,65.93,10.82,65.41,13.43Z"/><path class="cls-2" d="M23.42,9.11a5.13,5.13,0,0,0-3.5,1.39l.22-1.15H17.52L14.77,23.52H17.6l.9-4.65a3.83,3.83,0,0,0,3,1.32,6.26,6.26,0,0,0,6.08-6.42C27.59,11.1,25.92,9.11,23.42,9.11Zm-1.87,8.57a2.35,2.35,0,0,1-2.39-2.55,3.37,3.37,0,0,1,3.13-3.51,2.4,2.4,0,0,1,2.43,2.57A3.37,3.37,0,0,1,21.55,17.68Z"/><polygon class="cls-2" points="10.94 8.51 6.9 8.51 4.68 19.93 1.83 19.93 4.05 8.51 0 8.51 0.5 5.98 11.44 5.98 10.94 8.51"/><polygon class="cls-2" points="18.94 9.36 13.08 19.93 11.08 23.52 8.27 23.52 10.37 19.93 9.77 19.93 8.01 9.36 10.84 9.36 11.94 17.2 15.79 9.36 18.94 9.36"/><path class="cls-3" d="M62.25,2.63A3.35,3.35,0,0,1,58.71,6H56.36l1.17-6h2.12A2.46,2.46,0,0,1,62.25,2.63ZM61,2.63a1.39,1.39,0,0,0-1.5-1.55h-1L57.79,4.9h1A2.18,2.18,0,0,0,61,2.63Z"/><path class="cls-3" d="M66.24,1.33,64.61,2.76a1.39,1.39,0,0,1,1.3,1.44A1.93,1.93,0,0,1,63.77,6C62.75,6,62,5.47,62,4.77l.89-.32a.92.92,0,0,0,1,.74,1,1,0,0,0,1.1-1A.83.83,0,0,0,64,3.37H63.4l.13-.62,1.65-1.41H62.87L63,.6h3.37Z"/></g></g></svg>