<svg width="101" height="137" viewBox="0 0 101 137" fill="none" xmlns="http://www.w3.org/2000/svg">
<path d="M44.2854 1.37727C67.4204 1.29327 83.3124 18.1013 82.1064 38.5273C82.0589 39.3774 81.9442 40.2223 81.7634 41.0543C81.4629 41.9703 81.3586 42.9394 81.4573 43.8984C81.556 44.8574 81.8556 45.7847 82.3364 46.6203C84.0674 49.5543 81.4984 53.2533 78.0364 53.2443C77.5386 53.214 77.0412 53.31 76.5903 53.5233C76.1394 53.7365 75.7498 54.0602 75.4574 54.4643C67.5574 63.8583 53.9334 67.0643 43.7834 61.9803C33.2954 56.7243 28.2964 43.8703 32.8574 33.8803C36.5574 25.7683 45.8674 21.2804 54.0094 23.6754C61.8204 25.9754 66.5864 34.4553 64.2384 41.8753C62.2454 48.1753 55.3474 51.9313 49.3384 49.9843C47.3897 49.3493 45.6779 48.141 44.4268 46.5174C43.1758 44.8938 42.4438 42.9306 42.3264 40.8843C42.3204 39.9403 42.4834 39.1183 43.5874 39.0283C44.5874 38.9473 44.8784 39.6513 45.0434 40.5283C45.9874 45.5113 48.9294 48.0783 53.2374 47.7283C55.5307 47.5297 57.6778 46.5191 59.2923 44.8784C60.9068 43.2376 61.8827 41.0745 62.0444 38.7783C62.5104 29.9073 54.1204 23.7623 45.2094 26.4503C36.3204 29.1313 31.8574 38.3043 34.8814 47.6793C38.3894 58.5523 49.5434 64.0203 61.2074 60.5893C65.9022 59.2064 70.1017 56.5055 73.3074 52.8073C73.6212 52.5435 73.8239 52.1711 73.8753 51.7645C73.9266 51.3578 73.8228 50.9468 73.5844 50.6133C73.2104 49.9458 73.0045 49.1971 72.9845 48.4322C72.9645 47.6673 73.1311 46.909 73.4697 46.2228C73.8084 45.5367 74.309 44.9433 74.9283 44.4938C75.5476 44.0444 76.2671 43.7525 77.0244 43.6434C78.3074 43.4034 78.6414 42.8013 78.8804 41.6813C82.3584 25.3593 70.6354 8.02235 53.8604 4.73335C39.2144 1.86235 22.6294 8.72138 14.2514 21.0914C14.0125 21.3446 13.8738 21.676 13.8613 22.024C13.8488 22.3719 13.9633 22.7126 14.1834 22.9824C16.3834 26.4684 14.4054 30.4043 10.3444 30.6203C9.30642 30.6753 9.02645 31.1283 8.77045 31.9343C7.61666 35.4618 6.96164 39.1334 6.82443 42.8424C6.80743 43.3894 6.79043 43.9424 6.73743 44.4824C6.65943 45.2914 6.30045 45.9283 5.40045 45.9113C4.43345 45.8923 4.02944 45.2543 4.02344 44.3353C4.03324 40.9281 4.45055 37.5343 5.26645 34.2263C5.40545 33.6353 5.56644 33.0483 5.76144 32.4743C6.34144 30.7623 6.67843 29.2743 5.69043 27.3613C4.29043 24.6613 6.35344 21.4223 9.45944 21.0103C10.0409 20.9398 10.5991 20.7391 11.0922 20.4229C11.5853 20.1068 12.0007 19.6833 12.3074 19.1843C20.9644 7.63127 32.5884 1.79427 44.2854 1.37727ZM12.3974 25.7263C12.1594 24.4323 11.4604 23.5993 10.0654 23.6933C9.78773 23.6885 9.51219 23.7427 9.25705 23.8525C9.00191 23.9622 8.77298 24.125 8.58548 24.3299C8.39798 24.5348 8.25616 24.7771 8.16943 25.041C8.08271 25.3048 8.05305 25.5841 8.08243 25.8603C8.06973 26.1381 8.11559 26.4155 8.21704 26.6744C8.31849 26.9333 8.47326 27.1679 8.6713 27.3631C8.86933 27.5583 9.10621 27.7097 9.36655 27.8074C9.62688 27.9052 9.90486 27.9471 10.1824 27.9304C11.5354 27.9414 12.2594 27.0833 12.3974 25.7263ZM80.0274 48.3653C80.0373 48.0936 79.9912 47.8228 79.8921 47.5696C79.793 47.3165 79.6429 47.0863 79.4511 46.8935C79.2594 46.7007 79.0301 46.5494 78.7774 46.4489C78.5248 46.3484 78.2542 46.3009 77.9824 46.3093C77.4298 46.3026 76.8966 46.5124 76.4966 46.8936C76.0965 47.2749 75.8614 47.7974 75.8414 48.3497C75.8214 48.9019 76.0182 49.4401 76.3896 49.8492C76.7611 50.2583 77.2778 50.5061 77.8294 50.5394C78.1229 50.5662 78.4187 50.5285 78.6961 50.4291C78.9735 50.3298 79.2259 50.1711 79.4356 49.9641C79.6453 49.757 79.8073 49.5067 79.9102 49.2305C80.0131 48.9544 80.0545 48.6591 80.0314 48.3653H80.0274Z" fill="white"/>
<path d="M19.2986 43.5417C19.2558 39.7024 20.0018 35.8951 21.4905 32.3558C22.9793 28.8166 25.1789 25.6208 27.9532 22.9664C30.7275 20.312 34.0173 18.2555 37.6189 16.9246C41.2204 15.5936 45.0569 15.0164 48.8906 15.2288C49.3291 15.2791 49.7732 15.2206 50.1836 15.0584C50.594 14.8961 50.9581 14.6352 51.2436 14.2987C51.8754 13.5825 52.72 13.0874 53.6535 12.8859C54.5871 12.6843 55.5606 12.7869 56.4316 13.1787C57.3115 13.4606 58.0801 14.0127 58.6282 14.7565C59.1762 15.5002 59.4759 16.3979 59.4846 17.3218C59.4919 17.7659 59.6201 18.1997 59.8555 18.5764C60.0909 18.9531 60.4246 19.2585 60.8206 19.4597C68.6206 25.1537 72.1646 35.3147 69.3416 43.8047C66.0086 53.8307 54.4516 59.2657 45.3996 55.0647C36.7536 51.0517 33.8726 39.9317 39.7396 33.2207C44.6026 27.6597 53.1736 27.6598 57.2176 33.2288C58.3834 34.8023 59.0524 36.6883 59.1386 38.6448C59.1826 39.5878 58.9856 40.4038 57.8696 40.4828C56.8576 40.5538 56.5876 39.8467 56.4246 38.9747C55.5106 34.0837 52.5866 31.4798 48.4026 31.7748C46.0752 31.9366 43.8847 32.9342 42.2349 34.584C40.5852 36.2337 39.5874 38.4242 39.4256 40.7517C38.9746 49.6187 47.3616 55.7518 56.2716 53.0718C64.5566 50.5798 69.1326 42.2507 67.0256 33.4117C65.9519 28.7409 63.2338 24.6122 59.3676 21.7798C59.1281 21.5231 58.7979 21.3701 58.4472 21.3535C58.0966 21.3369 57.7533 21.4579 57.4906 21.6908C54.5076 23.6488 51.1176 22.5038 50.0326 19.1388C49.6446 17.9388 48.9646 17.8907 48.0116 17.8647C44.5661 17.7828 41.1399 18.4036 37.9422 19.6895C34.7445 20.9753 31.8423 22.8992 29.4126 25.3436C26.9829 27.7881 25.0767 30.7019 23.8103 33.9074C22.5439 37.1128 21.9438 40.5428 22.0466 43.9878C22.6096 57.7238 29.4876 67.4057 42.0226 73.0697C42.4363 73.3409 42.9351 73.451 43.4244 73.3789C43.9138 73.3068 44.3597 73.0576 44.6776 72.6787C45.2158 72.1568 45.8715 71.7719 46.5895 71.5562C47.3075 71.3404 48.0668 71.3002 48.8035 71.439C49.5402 71.5777 50.2329 71.8914 50.8232 72.3535C51.4135 72.8157 51.8841 73.4128 52.1956 74.0947C52.3589 74.565 52.6824 74.9629 53.1094 75.2189C53.5365 75.4748 54.0399 75.5725 54.5316 75.4948C60.3215 75.4038 66.0283 74.103 71.2856 71.6758C71.7806 71.4448 72.2746 71.2097 72.7806 71.0067C73.0633 70.8781 73.3848 70.8642 73.6776 70.9677C73.9703 71.0712 74.2116 71.2841 74.3506 71.5618C74.4465 71.7015 74.5133 71.8591 74.5469 72.0251C74.5805 72.1912 74.5803 72.3623 74.5462 72.5283C74.5121 72.6943 74.4449 72.8518 74.3486 72.9912C74.2523 73.1306 74.1288 73.2491 73.9856 73.3397C73.583 73.6117 73.1562 73.8461 72.7106 74.0398C66.8806 76.842 60.4784 78.2487 54.0106 78.1487C53.5709 78.0901 53.1235 78.1599 52.7225 78.3497C52.3215 78.5396 51.984 78.8414 51.7506 79.2188C51.2071 79.9502 50.4679 80.5132 49.6183 80.8429C48.7688 81.1726 47.8433 81.2555 46.9487 81.0823C46.054 80.909 45.2265 80.4866 44.5614 79.8635C43.8964 79.2405 43.4209 78.4423 43.1896 77.5608C42.9436 76.4328 42.3166 76.1477 41.4456 75.7997C34.9436 73.2658 29.3543 68.8343 25.4045 63.0813C21.4548 57.3283 19.3272 50.5201 19.2986 43.5417ZM50.0326 76.2848C50.0424 76.0052 49.9949 75.7264 49.8932 75.4658C49.7914 75.2052 49.6375 74.9681 49.4409 74.769C49.2443 74.57 49.0091 74.4132 48.7497 74.3082C48.4904 74.2033 48.2123 74.1524 47.9326 74.1587C47.6451 74.1503 47.3589 74.2003 47.0913 74.3057C46.8236 74.411 46.5802 74.5695 46.3755 74.7716C46.1708 74.9737 46.0092 75.2152 45.9005 75.4814C45.7918 75.7477 45.7382 76.0333 45.7429 76.3209C45.7477 76.6085 45.8106 76.8921 45.9281 77.1547C46.0455 77.4172 46.2149 77.6533 46.4262 77.8485C46.6374 78.0437 46.8859 78.1941 47.1569 78.2905C47.4279 78.387 47.7156 78.4276 48.0026 78.4098C48.2767 78.408 48.5476 78.3511 48.7992 78.2424C49.0508 78.1338 49.278 77.9755 49.4672 77.7772C49.6565 77.5789 49.8039 77.3447 49.9006 77.0883C49.9974 76.8318 50.0417 76.5586 50.0306 76.2848H50.0326ZM52.5256 17.7758C52.5182 18.0554 52.5685 18.3335 52.6734 18.5928C52.7783 18.852 52.9356 19.0868 53.1354 19.2825C53.3353 19.4782 53.5733 19.6306 53.8347 19.7301C54.0961 19.8296 54.3753 19.874 54.6546 19.8607C54.9475 19.8861 55.2424 19.8461 55.518 19.7437C55.7936 19.6413 56.043 19.479 56.2483 19.2686C56.4536 19.0581 56.6096 18.8048 56.7051 18.5267C56.8006 18.2487 56.8332 17.9529 56.8006 17.6608C56.8141 17.3671 56.7614 17.0741 56.6464 16.8036C56.5313 16.533 56.357 16.2918 56.1361 16.0978C55.9153 15.9037 55.6536 15.7618 55.3705 15.6825C55.0874 15.6032 54.7902 15.5886 54.5006 15.6398C54.2287 15.6441 53.9604 15.7035 53.712 15.8145C53.4636 15.9254 53.2403 16.0855 53.0555 16.2852C52.8707 16.4848 52.7284 16.7198 52.6369 16.976C52.5455 17.2322 52.507 17.5042 52.5236 17.7758H52.5256Z" fill="white"/>
<path d="M97.414 36.7029C96.574 50.2029 90.909 61.1768 80.196 69.4968C79.408 70.1098 78.519 70.7968 77.672 69.7258C76.825 68.6548 77.672 67.9829 78.484 67.3529C88.733 59.3609 94.178 48.8908 94.684 35.8808C94.6889 35.456 94.7328 35.0326 94.815 34.6158C94.863 34.3097 95.0256 34.0333 95.2698 33.8426C95.5139 33.6519 95.8215 33.5612 96.13 33.5888C96.4404 33.586 96.7408 33.698 96.9736 33.9033C97.2064 34.1086 97.355 34.3925 97.391 34.7008C97.4467 35.3667 97.4544 36.0358 97.414 36.7029Z" fill="white"/>
<path d="M15.1698 59.6777C16.0468 59.7437 16.4158 60.2498 16.5228 61.0938C16.5534 62.1107 16.974 63.0768 17.6974 63.7922C18.4208 64.5076 19.3916 64.9175 20.4088 64.9368C20.5927 64.929 20.7762 64.9588 20.9481 65.0243C21.1201 65.0898 21.277 65.1896 21.4091 65.3177C21.5412 65.4458 21.6459 65.5994 21.7166 65.7693C21.7874 65.9392 21.8229 66.1218 21.8208 66.3058C21.8328 67.1798 21.2088 67.5927 20.4048 67.6787C19.3881 67.7071 18.4204 68.1216 17.6985 68.8381C16.9766 69.5546 16.5548 70.5193 16.5188 71.5358C16.4138 72.3688 16.0428 72.9468 15.1648 72.9418C14.2868 72.9368 13.9188 72.3657 13.8158 71.5287C13.7804 70.5123 13.3583 69.5478 12.6357 68.8323C11.913 68.1167 10.9444 67.7041 9.92779 67.6787C9.11479 67.5917 8.5048 67.1568 8.5198 66.2948C8.51921 66.1108 8.55597 65.9286 8.62786 65.7593C8.69976 65.5899 8.80531 65.4369 8.93808 65.3096C9.07085 65.1822 9.22808 65.0832 9.40026 65.0184C9.57245 64.9537 9.756 64.9245 9.93978 64.9327C10.9572 64.9144 11.9282 64.5036 12.6498 63.7861C13.3714 63.0686 13.7877 62.1001 13.8118 61.0828C13.807 60.9009 13.8385 60.7198 13.9045 60.5503C13.9704 60.3807 14.0695 60.226 14.196 60.0952C14.3224 59.9644 14.4737 59.8601 14.6409 59.7885C14.8081 59.7168 14.9879 59.6791 15.1698 59.6777ZM16.2518 66.2168C15.9218 65.9168 15.6088 65.4087 15.2408 65.3657C14.9796 65.3627 14.7273 65.4607 14.5365 65.6392C14.3457 65.8176 14.2312 66.0629 14.2168 66.3237C14.2352 66.5626 14.3328 66.7885 14.494 66.9658C14.6551 67.1431 14.8708 67.2617 15.1068 67.3027C15.6268 67.3357 15.9358 66.7578 16.2518 66.2168Z" fill="white"/>
<path d="M91.5978 7.15039C91.5977 7.33671 91.5607 7.52114 91.489 7.69311C91.4173 7.86509 91.3123 8.02123 91.18 8.15246C91.0478 8.2837 90.8909 8.38741 90.7184 8.45776C90.5458 8.52812 90.3611 8.56369 90.1748 8.56238C89.1592 8.58605 88.191 8.99726 87.4689 9.71179C86.7467 10.4263 86.3252 11.3901 86.2908 12.4054C86.1908 13.2054 85.8448 13.8363 84.9418 13.8203C83.9618 13.8033 83.6618 13.1403 83.5418 12.2513C83.4941 11.2989 83.094 10.3981 82.4192 9.72412C81.7445 9.05013 80.8433 8.65106 79.8908 8.60437C79.0368 8.50437 78.2968 8.18539 78.3008 7.19739C78.3008 6.23739 78.9718 5.93432 79.8618 5.78332C82.1618 5.39232 83.1418 4.43435 83.5298 2.16235C83.6798 1.28135 83.9298 0.603349 84.9138 0.584349C85.9248 0.565349 86.2038 1.29134 86.3248 2.14734C86.3814 3.13038 86.8086 4.05545 87.5203 4.73596C88.232 5.41647 89.1752 5.80179 90.1598 5.81433C90.5241 5.81341 90.8752 5.95086 91.1422 6.19885C91.4091 6.44685 91.572 6.78696 91.5978 7.15039ZM84.8328 8.25036C85.0712 8.19281 85.2914 8.07626 85.4731 7.9115C85.6548 7.74674 85.7922 7.53905 85.8728 7.30737C86.0048 6.70737 85.4158 6.30031 84.9328 6.24731C84.4708 6.19731 84.0328 6.70732 83.9778 7.15332C83.9198 7.66332 84.4978 7.90731 84.8368 8.24731L84.8328 8.25036Z" fill="white"/>
<path d="M50.6563 34.8951C51.6227 34.8801 52.5719 35.1526 53.3831 35.6781C54.1943 36.2036 54.8311 36.9583 55.2125 37.8464C55.5939 38.7345 55.7028 39.716 55.5252 40.6661C55.3477 41.6162 54.8918 42.4921 54.2154 43.1826C53.539 43.8731 52.6727 44.347 51.7264 44.544C50.7802 44.7411 49.7967 44.6526 48.9009 44.2895C48.0051 43.9265 47.2374 43.3055 46.6953 42.5052C46.1532 41.705 45.8611 40.7617 45.8563 39.7951C45.8446 39.1569 45.96 38.5226 46.1959 37.9294C46.4317 37.3362 46.7832 36.7957 47.23 36.3397C47.6767 35.8837 48.2097 35.5211 48.7979 35.2731C49.3862 35.025 50.0179 34.8966 50.6563 34.8951ZM50.7393 41.9381C51.0277 41.9404 51.3135 41.8837 51.5792 41.7713C51.8449 41.659 52.0847 41.4934 52.284 41.2849C52.4833 41.0764 52.6377 40.8293 52.7379 40.5588C52.838 40.2883 52.8817 40.0002 52.8663 39.7121C52.8526 39.1548 52.6212 38.625 52.2216 38.2362C51.8219 37.8474 51.2859 37.6306 50.7284 37.6323C50.1709 37.634 49.6362 37.854 49.239 38.2452C48.8417 38.6364 48.6135 39.1676 48.6033 39.7251C48.5733 41.0721 49.4263 41.7691 50.7393 41.9381Z" fill="white"/>
<path d="M16.0232 109.48V118.707H14.9059V110.652H14.8518L12.5991 112.147V111.012L14.9059 109.48H16.0232ZM21.6864 118.833C21.0076 118.833 20.4294 118.648 19.9518 118.279C19.4743 117.907 19.1093 117.367 18.857 116.662C18.6047 115.953 18.4786 115.097 18.4786 114.094C18.4786 113.096 18.6047 112.245 18.857 111.539C19.1123 110.83 19.4788 110.29 19.9563 109.917C20.4369 109.542 21.0136 109.354 21.6864 109.354C22.3592 109.354 22.9344 109.542 23.4119 109.917C23.8925 110.29 24.2589 110.83 24.5112 111.539C24.7665 112.245 24.8942 113.096 24.8942 114.094C24.8942 115.097 24.768 115.953 24.5157 116.662C24.2634 117.367 23.8985 117.907 23.4209 118.279C22.9434 118.648 22.3652 118.833 21.6864 118.833ZM21.6864 117.842C22.3592 117.842 22.8818 117.518 23.2542 116.869C23.6267 116.22 23.8129 115.295 23.8129 114.094C23.8129 113.295 23.7273 112.614 23.5561 112.053C23.3879 111.491 23.1446 111.063 22.8262 110.769C22.5109 110.474 22.1309 110.327 21.6864 110.327C21.0196 110.327 20.4985 110.656 20.123 111.314C19.7476 111.969 19.5599 112.895 19.5599 114.094C19.5599 114.893 19.644 115.571 19.8122 116.13C19.9804 116.689 20.2221 117.114 20.5375 117.405C20.8559 117.696 21.2389 117.842 21.6864 117.842ZM27.309 109.48L29.6878 113.319H29.7599L32.1387 109.48H33.4543L30.5529 114.094L33.4543 118.707H32.1387L29.7599 114.941H29.6878L27.309 118.707H25.9935L28.967 114.094L25.9935 109.48H27.309ZM38.4766 118.707V109.48H41.5943C42.3181 109.48 42.9098 109.611 43.3694 109.872C43.8319 110.13 44.1743 110.48 44.3966 110.922C44.6189 111.363 44.73 111.856 44.73 112.4C44.73 112.943 44.6189 113.437 44.3966 113.882C44.1773 114.326 43.8379 114.681 43.3784 114.945C42.9189 115.206 42.3302 115.337 41.6123 115.337H39.3777V114.346H41.5763C42.0719 114.346 42.4698 114.26 42.7702 114.089C43.0705 113.918 43.2883 113.687 43.4235 113.395C43.5616 113.101 43.6307 112.769 43.6307 112.4C43.6307 112.03 43.5616 111.7 43.4235 111.408C43.2883 111.117 43.069 110.889 42.7657 110.724C42.4623 110.555 42.0598 110.471 41.5582 110.471H39.5939V118.707H38.4766ZM49.1227 118.851C48.498 118.851 47.9498 118.703 47.4782 118.405C47.0097 118.108 46.6433 117.692 46.3789 117.157C46.1176 116.623 45.987 115.998 45.987 115.283C45.987 114.562 46.1176 113.933 46.3789 113.395C46.6433 112.858 47.0097 112.44 47.4782 112.143C47.9498 111.845 48.498 111.697 49.1227 111.697C49.7474 111.697 50.2941 111.845 50.7626 112.143C51.2342 112.44 51.6006 112.858 51.8619 113.395C52.1262 113.933 52.2584 114.562 52.2584 115.283C52.2584 115.998 52.1262 116.623 51.8619 117.157C51.6006 117.692 51.2342 118.108 50.7626 118.405C50.2941 118.703 49.7474 118.851 49.1227 118.851ZM49.1227 117.896C49.5973 117.896 49.9877 117.774 50.2941 117.531C50.6004 117.288 50.8272 116.968 50.9744 116.572C51.1216 116.175 51.1951 115.746 51.1951 115.283C51.1951 114.82 51.1216 114.389 50.9744 113.99C50.8272 113.59 50.6004 113.268 50.2941 113.021C49.9877 112.775 49.5973 112.652 49.1227 112.652C48.6481 112.652 48.2577 112.775 47.9513 113.021C47.6449 113.268 47.4182 113.59 47.271 113.99C47.1238 114.389 47.0502 114.82 47.0502 115.283C47.0502 115.746 47.1238 116.175 47.271 116.572C47.4182 116.968 47.6449 117.288 47.9513 117.531C48.2577 117.774 48.6481 117.896 49.1227 117.896ZM55.2139 118.707L53.1054 111.787H54.2227L55.7185 117.085H55.7906L57.2683 111.787H58.4037L59.8634 117.067H59.9355L61.4312 111.787H62.5486L60.4401 118.707H59.3948L57.881 113.391H57.7729L56.2591 118.707H55.2139ZM66.6203 118.851C65.9535 118.851 65.3783 118.704 64.8947 118.41C64.4141 118.112 64.0432 117.698 63.7819 117.166C63.5236 116.632 63.3944 116.01 63.3944 115.301C63.3944 114.592 63.5236 113.967 63.7819 113.427C64.0432 112.883 64.4066 112.46 64.8722 112.156C65.3407 111.85 65.8874 111.697 66.5121 111.697C66.8726 111.697 67.2285 111.757 67.5799 111.877C67.9313 111.997 68.2512 112.192 68.5395 112.463C68.8279 112.73 69.0576 113.084 69.2288 113.526C69.4 113.967 69.4856 114.511 69.4856 115.157V115.607H64.1513V114.688H68.4044C68.4044 114.298 68.3263 113.949 68.1701 113.643C68.0169 113.337 67.7976 113.095 67.5123 112.918C67.23 112.74 66.8966 112.652 66.5121 112.652C66.0886 112.652 65.7222 112.757 65.4128 112.967C65.1065 113.174 64.8707 113.445 64.7055 113.778C64.5403 114.112 64.4577 114.469 64.4577 114.85V115.463C64.4577 115.986 64.5478 116.429 64.728 116.792C64.9112 117.153 65.165 117.428 65.4894 117.617C65.8138 117.803 66.1907 117.896 66.6203 117.896C66.8996 117.896 67.1519 117.857 67.3772 117.779C67.6054 117.698 67.8022 117.578 67.9673 117.419C68.1325 117.256 68.2602 117.055 68.3503 116.815L69.3775 117.103C69.2694 117.452 69.0877 117.758 68.8324 118.022C68.5771 118.284 68.2617 118.488 67.8863 118.635C67.5108 118.779 67.0888 118.851 66.6203 118.851ZM71.1031 118.707V111.787H72.1303V112.832H72.2024C72.3285 112.49 72.5568 112.212 72.8872 111.999C73.2176 111.785 73.59 111.679 74.0045 111.679C74.0826 111.679 74.1802 111.68 74.2973 111.683C74.4145 111.686 74.5031 111.691 74.5631 111.697V112.778C74.5271 112.769 74.4445 112.755 74.3154 112.737C74.1892 112.716 74.0555 112.706 73.9144 112.706C73.578 112.706 73.2776 112.777 73.0133 112.918C72.752 113.056 72.5448 113.248 72.3916 113.494C72.2414 113.738 72.1663 114.015 72.1663 114.328V118.707H71.1031ZM79.3388 111.787V112.688H75.6084V111.787H79.3388ZM76.7257 118.707V110.832C76.7257 110.435 76.8188 110.105 77.005 109.841C77.1913 109.576 77.433 109.378 77.7304 109.246C78.0277 109.114 78.3416 109.048 78.672 109.048C78.9333 109.048 79.1466 109.069 79.3118 109.111C79.477 109.153 79.6001 109.192 79.6812 109.228L79.3748 110.147C79.3208 110.129 79.2457 110.106 79.1496 110.079C79.0565 110.052 78.9333 110.039 78.7801 110.039C78.4287 110.039 78.1749 110.127 78.0187 110.305C77.8656 110.482 77.789 110.742 77.789 111.084V118.707H76.7257ZM85.1901 115.878V111.787H86.2533V118.707H85.1901V117.536H85.118C84.9558 117.887 84.7035 118.186 84.3611 118.432C84.0187 118.675 83.5862 118.797 83.0636 118.797C82.6311 118.797 82.2466 118.703 81.9102 118.513C81.5738 118.321 81.3095 118.033 81.1173 117.648C80.925 117.261 80.8289 116.773 80.8289 116.184V111.787H81.8922V116.112C81.8922 116.617 82.0334 117.019 82.3157 117.319C82.601 117.62 82.9645 117.77 83.406 117.77C83.6703 117.77 83.9391 117.702 84.2124 117.567C84.4888 117.432 84.72 117.225 84.9063 116.945C85.0955 116.666 85.1901 116.31 85.1901 115.878ZM89.264 109.48V118.707H88.2008V109.48H89.264Z" fill="white"/>
<path d="M9.36632 127.588H8.249C8.18292 127.267 8.06728 126.984 7.90209 126.741C7.7399 126.498 7.54166 126.294 7.30738 126.128C7.07611 125.96 6.81931 125.834 6.53697 125.75C6.25464 125.666 5.96029 125.624 5.65393 125.624C5.09527 125.624 4.58917 125.765 4.13563 126.047C3.6851 126.33 3.32618 126.746 3.05886 127.295C2.79455 127.845 2.66239 128.519 2.66239 129.318C2.66239 130.117 2.79455 130.791 3.05886 131.341C3.32618 131.891 3.6851 132.307 4.13563 132.589C4.58917 132.871 5.09527 133.013 5.65393 133.013C5.96029 133.013 6.25464 132.971 6.53697 132.886C6.81931 132.802 7.07611 132.678 7.30738 132.512C7.54166 132.344 7.7399 132.139 7.90209 131.895C8.06728 131.649 8.18292 131.367 8.249 131.048H9.36632C9.28222 131.52 9.12904 131.942 8.90678 132.314C8.68451 132.687 8.40819 133.004 8.0778 133.265C7.7474 133.523 7.37647 133.72 6.96498 133.855C6.5565 133.99 6.11948 134.058 5.65393 134.058C4.867 134.058 4.16717 133.866 3.55445 133.481C2.94172 133.097 2.45965 132.55 2.10824 131.841C1.75682 131.132 1.58111 130.291 1.58111 129.318C1.58111 128.345 1.75682 127.504 2.10824 126.795C2.45965 126.086 2.94172 125.54 3.55445 125.155C4.16717 124.771 4.867 124.579 5.65393 124.579C6.11948 124.579 6.5565 124.646 6.96498 124.781C7.37647 124.916 7.7474 125.115 8.0778 125.376C8.40819 125.634 8.68451 125.95 8.90678 126.322C9.12904 126.692 9.28222 127.114 9.36632 127.588ZM11.7125 136.527C11.5323 136.527 11.3716 136.512 11.2304 136.482C11.0892 136.455 10.9916 136.428 10.9376 136.401L11.2079 135.463C11.4662 135.53 11.6944 135.554 11.8927 135.536C12.0909 135.518 12.2666 135.429 12.4198 135.27C12.576 135.114 12.7187 134.86 12.8478 134.508L13.046 133.968L10.487 127.011H11.6404L13.5506 132.526H13.6227L15.533 127.011H16.6863L13.7489 134.941C13.6167 135.298 13.453 135.594 13.2578 135.828C13.0626 136.066 12.8358 136.241 12.5775 136.356C12.3222 136.47 12.0338 136.527 11.7125 136.527ZM20.6533 134.076C20.0045 134.076 19.4459 133.923 18.9773 133.616C18.5088 133.31 18.1483 132.888 17.896 132.35C17.6437 131.813 17.5176 131.198 17.5176 130.508C17.5176 129.805 17.6467 129.185 17.905 128.647C18.1663 128.106 18.5298 127.684 18.9953 127.381C19.4639 127.075 20.0105 126.921 20.6353 126.921C21.1218 126.921 21.5604 127.011 21.9508 127.192C22.3413 127.372 22.6612 127.624 22.9105 127.949C23.1598 128.273 23.3144 128.651 23.3745 129.084H22.3112C22.2302 128.769 22.0499 128.489 21.7706 128.246C21.4943 128 21.1218 127.876 20.6533 127.876C20.2388 127.876 19.8754 127.985 19.563 128.201C19.2536 128.414 19.0118 128.716 18.8376 129.106C18.6664 129.494 18.5808 129.949 18.5808 130.472C18.5808 131.006 18.6649 131.472 18.8331 131.868C19.0043 132.265 19.2446 132.573 19.554 132.792C19.8664 133.011 20.2328 133.121 20.6533 133.121C20.9296 133.121 21.1804 133.073 21.4057 132.977C21.6309 132.88 21.8217 132.742 21.9779 132.562C22.134 132.382 22.2452 132.166 22.3112 131.913H23.3745C23.3144 132.322 23.1658 132.69 22.9285 133.017C22.6942 133.341 22.3833 133.6 21.9959 133.792C21.6114 133.981 21.1639 134.076 20.6533 134.076ZM25.9921 124.705V133.932H24.9288V124.705H25.9921ZM30.7509 134.076C30.1261 134.076 29.578 133.927 29.1064 133.63C28.6379 133.332 28.2714 132.916 28.0071 132.382C27.7458 131.847 27.6151 131.222 27.6151 130.508C27.6151 129.787 27.7458 129.157 28.0071 128.62C28.2714 128.082 28.6379 127.665 29.1064 127.367C29.578 127.07 30.1261 126.921 30.7509 126.921C31.3756 126.921 31.9222 127.07 32.3908 127.367C32.8623 127.665 33.2288 128.082 33.4901 128.62C33.7544 129.157 33.8866 129.787 33.8866 130.508C33.8866 131.222 33.7544 131.847 33.4901 132.382C33.2288 132.916 32.8623 133.332 32.3908 133.63C31.9222 133.927 31.3756 134.076 30.7509 134.076ZM30.7509 133.121C31.2254 133.121 31.6159 132.999 31.9222 132.756C32.2286 132.512 32.4554 132.193 32.6025 131.796C32.7497 131.4 32.8233 130.97 32.8233 130.508C32.8233 130.045 32.7497 129.614 32.6025 129.215C32.4554 128.815 32.2286 128.492 31.9222 128.246C31.6159 128 31.2254 127.876 30.7509 127.876C30.2763 127.876 29.8858 128 29.5795 128.246C29.2731 128.492 29.0463 128.815 28.8992 129.215C28.752 129.614 28.6784 130.045 28.6784 130.508C28.6784 130.97 28.752 131.4 28.8992 131.796C29.0463 132.193 29.2731 132.512 29.5795 132.756C29.8858 132.999 30.2763 133.121 30.7509 133.121ZM36.5729 129.769V133.932H35.5096V127.011H36.5368V128.093H36.6269C36.7891 127.741 37.0354 127.459 37.3658 127.246C37.6962 127.029 38.1227 126.921 38.6453 126.921C39.1139 126.921 39.5239 127.017 39.8753 127.21C40.2267 127.399 40.5 127.687 40.6952 128.075C40.8905 128.459 40.9881 128.946 40.9881 129.534V133.932H39.9248V129.607C39.9248 129.063 39.7837 128.639 39.5013 128.336C39.219 128.03 38.8315 127.876 38.3389 127.876C37.9995 127.876 37.6962 127.95 37.4289 128.097C37.1646 128.244 36.9558 128.459 36.8026 128.742C36.6495 129.024 36.5729 129.366 36.5729 129.769ZM42.931 133.932V127.011H43.9943V133.932H42.931ZM43.4716 125.858C43.2644 125.858 43.0857 125.788 42.9355 125.646C42.7883 125.505 42.7147 125.335 42.7147 125.137C42.7147 124.939 42.7883 124.769 42.9355 124.628C43.0857 124.487 43.2644 124.416 43.4716 124.416C43.6789 124.416 43.8561 124.487 44.0033 124.628C44.1534 124.769 44.2285 124.939 44.2285 125.137C44.2285 125.335 44.1534 125.505 44.0033 125.646C43.8561 125.788 43.6789 125.858 43.4716 125.858ZM48.753 134.076C48.1042 134.076 47.5456 133.923 47.077 133.616C46.6085 133.31 46.248 132.888 45.9958 132.35C45.7435 131.813 45.6173 131.198 45.6173 130.508C45.6173 129.805 45.7465 129.185 46.0048 128.647C46.2661 128.106 46.6295 127.684 47.0951 127.381C47.5636 127.075 48.1103 126.921 48.735 126.921C49.2216 126.921 49.6601 127.011 50.0505 127.192C50.441 127.372 50.7609 127.624 51.0102 127.949C51.2595 128.273 51.4142 128.651 51.4742 129.084H50.411C50.3299 128.769 50.1497 128.489 49.8703 128.246C49.594 128 49.2216 127.876 48.753 127.876C48.3385 127.876 47.9751 127.985 47.6627 128.201C47.3534 128.414 47.1116 128.716 46.9374 129.106C46.7662 129.494 46.6806 129.949 46.6806 130.472C46.6806 131.006 46.7647 131.472 46.9329 131.868C47.1041 132.265 47.3443 132.573 47.6537 132.792C47.9661 133.011 48.3325 133.121 48.753 133.121C49.0293 133.121 49.2801 133.073 49.5054 132.977C49.7307 132.88 49.9214 132.742 50.0776 132.562C50.2338 132.382 50.3449 132.166 50.411 131.913H51.4742C51.4142 132.322 51.2655 132.69 51.0282 133.017C50.7939 133.341 50.4831 133.6 50.0956 133.792C49.7111 133.981 49.2636 134.076 48.753 134.076ZM61.7869 127.011C61.7329 126.555 61.5136 126.2 61.1291 125.948C60.7447 125.696 60.2731 125.57 59.7145 125.57C59.306 125.57 58.9486 125.636 58.6422 125.768C58.3388 125.9 58.1016 126.082 57.9304 126.313C57.7622 126.544 57.6781 126.807 57.6781 127.102C57.6781 127.348 57.7366 127.56 57.8538 127.737C57.9739 127.911 58.1271 128.057 58.3133 128.174C58.4995 128.288 58.6948 128.383 58.899 128.458C59.1032 128.53 59.291 128.588 59.4622 128.633L60.3993 128.886C60.6396 128.949 60.9069 129.036 61.2012 129.147C61.4986 129.258 61.7824 129.41 62.0527 129.602C62.3261 129.791 62.5513 130.035 62.7285 130.332C62.9057 130.629 62.9943 130.994 62.9943 131.427C62.9943 131.925 62.8637 132.376 62.6024 132.778C62.3441 133.181 61.9656 133.501 61.467 133.738C60.9715 133.975 60.3692 134.094 59.6604 134.094C58.9996 134.094 58.4274 133.987 57.9439 133.774C57.4633 133.561 57.0849 133.263 56.8085 132.882C56.5352 132.5 56.3805 132.057 56.3445 131.553H57.4979C57.5279 131.901 57.645 132.19 57.8493 132.418C58.0565 132.643 58.3178 132.811 58.6332 132.922C58.9516 133.031 59.294 133.085 59.6604 133.085C60.0869 133.085 60.4699 133.016 60.8093 132.877C61.1487 132.736 61.4175 132.541 61.6157 132.292C61.814 132.039 61.9131 131.745 61.9131 131.409C61.9131 131.102 61.8275 130.853 61.6563 130.661C61.4851 130.469 61.2598 130.312 60.9805 130.192C60.7011 130.072 60.3993 129.967 60.0749 129.877L58.9396 129.552C58.2187 129.345 57.648 129.049 57.2275 128.665C56.807 128.28 56.5968 127.777 56.5968 127.156C56.5968 126.639 56.7365 126.188 57.0158 125.804C57.2981 125.417 57.6766 125.116 58.1511 124.903C58.6287 124.687 59.1618 124.579 59.7505 124.579C60.3452 124.579 60.8738 124.685 61.3364 124.898C61.7989 125.109 62.1654 125.397 62.4357 125.763C62.709 126.13 62.8532 126.546 62.8682 127.011H61.7869ZM69.0484 131.102V127.011H70.1116V133.932H69.0484V132.76H68.9763C68.8141 133.112 68.5618 133.411 68.2194 133.657C67.877 133.9 67.4445 134.022 66.9219 134.022C66.4894 134.022 66.1049 133.927 65.7685 133.738C65.4321 133.546 65.1678 133.257 64.9756 132.873C64.7833 132.485 64.6872 131.997 64.6872 131.409V127.011H65.7505V131.337C65.7505 131.841 65.8917 132.244 66.174 132.544C66.4593 132.844 66.8228 132.995 67.2643 132.995C67.5286 132.995 67.7974 132.927 68.0707 132.792C68.3471 132.657 68.5783 132.449 68.7645 132.17C68.9538 131.891 69.0484 131.535 69.0484 131.102ZM74.8704 134.076C74.2216 134.076 73.663 133.923 73.1944 133.616C72.7259 133.31 72.3654 132.888 72.1131 132.35C71.8608 131.813 71.7347 131.198 71.7347 130.508C71.7347 129.805 71.8638 129.185 72.1221 128.647C72.3834 128.106 72.7469 127.684 73.2124 127.381C73.681 127.075 74.2276 126.921 74.8524 126.921C75.3389 126.921 75.7775 127.011 76.1679 127.192C76.5584 127.372 76.8783 127.624 77.1276 127.949C77.3769 128.273 77.5315 128.651 77.5916 129.084H76.5283C76.4473 128.769 76.267 128.489 75.9877 128.246C75.7114 128 75.3389 127.876 74.8704 127.876C74.4559 127.876 74.0925 127.985 73.7801 128.201C73.4707 128.414 73.2289 128.716 73.0547 129.106C72.8835 129.494 72.7979 129.949 72.7979 130.472C72.7979 131.006 72.882 131.472 73.0502 131.868C73.2214 132.265 73.4617 132.573 73.7711 132.792C74.0835 133.011 74.4499 133.121 74.8704 133.121C75.1467 133.121 75.3975 133.073 75.6228 132.977C75.848 132.88 76.0388 132.742 76.195 132.562C76.3511 132.382 76.4623 132.166 76.5283 131.913H77.5916C77.5315 132.322 77.3829 132.69 77.1456 133.017C76.9113 133.341 76.6004 133.6 76.213 133.792C75.8285 133.981 75.381 134.076 74.8704 134.076ZM82.1555 127.011V127.913H78.5693V127.011H82.1555ZM79.6145 125.353H80.6778V131.949C80.6778 132.25 80.7213 132.475 80.8084 132.625C80.8985 132.772 81.0127 132.871 81.1508 132.922C81.292 132.971 81.4407 132.995 81.5968 132.995C81.714 132.995 81.8101 132.989 81.8852 132.977C81.9603 132.961 82.0203 132.949 82.0654 132.94L82.2817 133.896C82.2096 133.923 82.109 133.95 81.9798 133.977C81.8506 134.007 81.687 134.022 81.4887 134.022C81.1884 134.022 80.894 133.957 80.6057 133.828C80.3203 133.699 80.0831 133.502 79.8938 133.238C79.7076 132.974 79.6145 132.64 79.6145 132.238V125.353ZM83.7549 133.932V127.011H84.8182V133.932H83.7549ZM84.2955 125.858C84.0883 125.858 83.9096 125.788 83.7594 125.646C83.6122 125.505 83.5386 125.335 83.5386 125.137C83.5386 124.939 83.6122 124.769 83.7594 124.628C83.9096 124.487 84.0883 124.416 84.2955 124.416C84.5028 124.416 84.68 124.487 84.8272 124.628C84.9773 124.769 85.0524 124.939 85.0524 125.137C85.0524 125.335 84.9773 125.505 84.8272 125.646C84.68 125.788 84.5028 125.858 84.2955 125.858ZM89.5769 134.076C88.9522 134.076 88.404 133.927 87.9325 133.63C87.4639 133.332 87.0975 132.916 86.8332 132.382C86.5718 131.847 86.4412 131.222 86.4412 130.508C86.4412 129.787 86.5718 129.157 86.8332 128.62C87.0975 128.082 87.4639 127.665 87.9325 127.367C88.404 127.07 88.9522 126.921 89.5769 126.921C90.2016 126.921 90.7483 127.07 91.2168 127.367C91.6884 127.665 92.0548 128.082 92.3161 128.62C92.5805 129.157 92.7126 129.787 92.7126 130.508C92.7126 131.222 92.5805 131.847 92.3161 132.382C92.0548 132.916 91.6884 133.332 91.2168 133.63C90.7483 133.927 90.2016 134.076 89.5769 134.076ZM89.5769 133.121C90.0515 133.121 90.4419 132.999 90.7483 132.756C91.0546 132.512 91.2814 132.193 91.4286 131.796C91.5758 131.4 91.6494 130.97 91.6494 130.508C91.6494 130.045 91.5758 129.614 91.4286 129.215C91.2814 128.815 91.0546 128.492 90.7483 128.246C90.4419 128 90.0515 127.876 89.5769 127.876C89.1023 127.876 88.7119 128 88.4055 128.246C88.0992 128.492 87.8724 128.815 87.7252 129.215C87.578 129.614 87.5045 130.045 87.5045 130.508C87.5045 130.97 87.578 131.4 87.7252 131.796C87.8724 132.193 88.0992 132.512 88.4055 132.756C88.7119 132.999 89.1023 133.121 89.5769 133.121ZM95.3989 129.769V133.932H94.3357V127.011H95.3629V128.093H95.453C95.6152 127.741 95.8615 127.459 96.1918 127.246C96.5222 127.029 96.9487 126.921 97.4714 126.921C97.9399 126.921 98.3499 127.017 98.7013 127.21C99.0527 127.399 99.3261 127.687 99.5213 128.075C99.7165 128.459 99.8141 128.946 99.8141 129.534V133.932H98.7509V129.607C98.7509 129.063 98.6097 128.639 98.3274 128.336C98.045 128.03 97.6576 127.876 97.165 127.876C96.8256 127.876 96.5222 127.95 96.2549 128.097C95.9906 128.244 95.7819 128.459 95.6287 128.742C95.4755 129.024 95.3989 129.366 95.3989 129.769Z" fill="white"/>
</svg>
