<svg width="48" height="34" viewBox="0 0 48 34" fill="none" xmlns="http://www.w3.org/2000/svg">
<path d="M24.222 3.72995H45.0428C45.3528 3.75411 45.6647 3.74606 45.973 3.70595C46.3675 3.64636 46.7271 3.44594 46.9852 3.14175C47.2434 2.83756 47.3827 2.45019 47.3773 2.05127C47.3719 1.65234 47.2221 1.26886 46.9559 0.971723C46.6897 0.67459 46.325 0.483908 45.9291 0.434949C45.6544 0.405403 45.3775 0.400384 45.1019 0.41995H3.25181C2.97593 0.400518 2.69924 0.405202 2.42417 0.43395C2.02325 0.47077 1.65059 0.656747 1.38023 0.955075C1.10986 1.2534 0.961522 1.64235 0.964211 2.04495C0.950843 2.46347 1.09893 2.87106 1.37827 3.183C1.65762 3.49493 2.04675 3.68724 2.46421 3.71995C2.73983 3.7383 3.01587 3.74164 3.29185 3.72995H24.222Z" fill="#F8FAFB"/>
<path d="M27.4302 15.3472C21.4569 15.3472 15.484 15.3472 9.5113 15.3472C9.28823 15.3172 9.06119 15.3318 8.84382 15.3902C8.62644 15.4486 8.42324 15.5495 8.24518 15.6872C8.06713 15.8249 7.91789 15.9965 7.80671 16.1922C7.69552 16.3879 7.62436 16.6037 7.59723 16.8272C7.55934 17.2432 7.67841 17.6584 7.93073 17.9914C8.18305 18.3244 8.55021 18.5511 8.961 18.6272C9.20084 18.6562 9.44291 18.6642 9.68415 18.6512C21.5608 18.6512 33.4377 18.6512 45.315 18.6512C46.632 18.6512 47.3772 18.0512 47.3882 17.0122C47.3993 15.9732 46.6552 15.3432 45.3492 15.3432C39.3759 15.3432 33.4029 15.3445 27.4302 15.3472Z" fill="#F8FAFB"/>
<path d="M34.894 30.2756C31.374 30.2756 27.854 30.2666 24.334 30.2756C24.1011 30.2526 23.8663 30.2793 23.6445 30.354C23.4228 30.4287 23.2194 30.5496 23.0478 30.7089C22.8763 30.8681 22.7404 31.0619 22.6494 31.2775C22.5585 31.4932 22.5143 31.7256 22.52 31.9596C22.5258 32.1843 22.5774 32.4055 22.6709 32.61C22.7644 32.8144 22.8978 32.9978 23.064 33.1493C23.2301 33.3007 23.4255 33.4169 23.6377 33.491C23.8499 33.5652 24.075 33.5956 24.2993 33.5806C24.3993 33.5806 24.5063 33.5806 24.6103 33.5806C31.5123 33.5806 38.4144 33.5806 45.3164 33.5806C46.6324 33.5806 47.3772 32.9806 47.3882 31.9426C47.3992 30.9046 46.6561 30.2746 45.3511 30.2726C41.8651 30.2713 38.3794 30.2723 34.894 30.2756Z" fill="#F8FAFB"/>
</svg>
