<svg width="21" height="13" viewBox="0 0 21 13" fill="none" xmlns="http://www.w3.org/2000/svg">
<path d="M19.364 12.551C19.1469 12.5438 18.9337 12.4915 18.7378 12.3977C18.5419 12.3039 18.3677 12.1707 18.2261 12.0061C16.0894 9.86411 13.9507 7.72419 11.8101 5.58619L10.8521 4.62916C10.6011 4.37716 10.6011 4.37688 10.3521 4.61988C7.88538 7.08655 5.42067 9.5536 2.95801 12.0203C2.7555 12.2703 2.47531 12.4454 2.16187 12.5178C1.84842 12.5903 1.51971 12.5559 1.22803 12.4202C1.03447 12.3313 0.863366 12.2 0.727539 12.0359C0.591712 11.8718 0.494565 11.6792 0.443359 11.4724C0.392153 11.2657 0.388331 11.0501 0.431885 10.8416C0.475439 10.6331 0.565378 10.4373 0.695068 10.2683C0.788181 10.1513 0.888417 10.0401 0.995117 9.93531L9.44092 1.48902C9.57614 1.31281 9.75016 1.17008 9.94922 1.07154C10.1483 0.973003 10.3672 0.921337 10.5894 0.920661C10.8115 0.919985 11.0308 0.97031 11.2305 1.06763C11.4301 1.16496 11.6047 1.3068 11.741 1.48218C14.5876 4.32818 17.434 7.17489 20.28 10.0222C20.4268 10.1447 20.5476 10.2952 20.6353 10.4651C20.7229 10.635 20.7756 10.8209 20.7903 11.0115C20.8049 11.2021 20.7811 11.3936 20.7205 11.575C20.6598 11.7563 20.5634 11.9237 20.437 12.0671C20.3045 12.2214 20.1397 12.3448 19.9543 12.4285C19.7689 12.5121 19.5674 12.5538 19.364 12.551Z" fill="white"/>
</svg>
