<svg width="27" height="53" viewBox="0 0 27 53" fill="none" xmlns="http://www.w3.org/2000/svg">
<path d="M17.521 40.4595C17.521 44.1255 17.509 47.7925 17.532 51.4595C17.532 52.0185 17.446 52.2327 16.81 52.2227C14.089 52.1817 11.366 52.1897 8.64503 52.2227C8.10203 52.2277 7.97503 52.0645 7.97703 51.5425C7.99203 44.1645 7.97704 36.7863 8.00204 29.4083C8.00204 28.7473 7.86904 28.5265 7.16104 28.5435C4.98004 28.5955 2.79704 28.5513 0.61604 28.5713C0.15204 28.5713 -0.00295741 28.4507 4.25939e-05 27.9717C0.0220426 25.2957 0.0220426 22.6188 4.25939e-05 19.9415C4.25939e-05 19.4675 0.146042 19.3276 0.612042 19.3316C2.83904 19.3516 5.06604 19.3216 7.29304 19.3536C7.86704 19.3616 8.00704 19.1765 7.99804 18.6265C7.96704 16.6705 7.98203 14.7134 7.98803 12.7564C7.90532 10.3621 8.43759 7.98661 9.53404 5.85649C10.3526 4.35803 11.5303 3.08612 12.9614 2.15483C14.3925 1.22354 16.0324 0.662047 17.734 0.520556C20.6499 0.291692 23.5809 0.338391 26.488 0.659716C26.845 0.680716 26.988 0.816314 26.988 1.19731C26.9734 3.62731 26.9734 6.05673 26.988 8.4854C26.988 8.9284 26.81 8.99961 26.428 8.99761C24.764 8.99061 23.099 8.99749 21.435 9.02349C20.9851 9.02731 20.5372 9.08493 20.101 9.19536C19.3299 9.3633 18.6463 9.80663 18.1781 10.4419C17.7099 11.0773 17.4891 11.8612 17.557 12.6475C17.498 14.7155 17.541 16.7855 17.512 18.8545C17.505 19.3305 17.749 19.3424 18.099 19.3414C20.708 19.3354 23.318 19.3542 25.927 19.3252C26.508 19.3192 26.653 19.4813 26.572 20.0523C26.198 22.7003 25.8484 25.3517 25.523 28.0064C25.464 28.4964 25.252 28.5734 24.829 28.5704C22.602 28.5554 20.375 28.5793 18.149 28.5523C17.64 28.5453 17.507 28.6944 17.51 29.1954C17.53 32.9464 17.521 36.7025 17.521 40.4595Z" fill="#7f7f7e"/>
</svg>
