<svg width="65" height="40" viewBox="0 0 65 40" fill="none" xmlns="http://www.w3.org/2000/svg">
<path d="M4.92656 5.85498V10.455H13.1716V14.308H4.92656V22.762H0.476562V2.00195H14.2766V5.85596L4.92656 5.85498Z" fill="white"/>
<path d="M31.0335 7.0177V22.7556H26.8815V21.2627C26.2799 21.8685 25.5627 22.3472 24.7725 22.6703C23.9823 22.9934 23.1352 23.1544 22.2815 23.1437C18.2815 23.1437 16.1875 20.3956 16.1875 16.8116V7.01172H20.6095V16.2417C20.6037 16.6357 20.6755 17.0269 20.8208 17.3931C20.9662 17.7593 21.1823 18.0933 21.4567 18.376C21.7312 18.6587 22.0586 18.8846 22.4203 19.0408C22.7821 19.1969 23.171 19.2803 23.565 19.2861C23.959 19.292 24.3502 19.2202 24.7164 19.0748C25.0826 18.9295 25.4166 18.7134 25.6994 18.439C25.9821 18.1645 26.2079 17.8371 26.3641 17.4753C26.5203 17.1136 26.6037 16.7247 26.6095 16.3307V7.01172L31.0335 7.0177Z" fill="white"/>
<path d="M34.2031 0.923828H38.6241V22.7557H34.2031V0.923828Z" fill="white"/>
<path d="M41.7842 0.923828H46.2022V22.7557H41.7812L41.7842 0.923828Z" fill="white"/>
<path d="M64.6022 7.01758L58.8082 22.7595L56.8663 28.1056H52.5062L54.6262 22.7595H53.1633L47.9062 7.01758H52.4752L56.0312 19.2345L60.0312 7.01758H64.6022Z" fill="white"/>
<path d="M16.7786 35.2683H10.6366L8.42659 39.4222H6.05859L14.4336 23.9023H17.1806L19.5476 39.4222H17.4006L16.7786 35.2683ZM16.5096 33.4163L15.4386 26.2253L11.6196 33.4163H16.5096Z" fill="white"/>
<path d="M31.7118 27.6562L29.4328 39.4243H27.2898L27.6028 37.7943C27.106 38.3841 26.4874 38.8593 25.7895 39.1873C25.0916 39.5152 24.3309 39.6882 23.5598 39.6942C20.9698 39.6942 19.3598 37.8193 19.9438 34.8043L21.3258 27.6583H23.5828L22.2828 34.4243C21.8598 36.5463 22.9098 37.6633 24.5828 37.6633C25.4122 37.6532 26.2125 37.356 26.8476 36.8224C27.4826 36.2887 27.9131 35.5516 28.0658 34.7363L29.4498 27.6583L31.7118 27.6562Z" fill="white"/>
<path d="M32.3111 35.1351L33.3831 29.5962H31.3281L31.7091 27.6542H32.8481C33.0079 27.6645 33.168 27.6431 33.3195 27.5914C33.471 27.5397 33.6108 27.4587 33.7309 27.3529C33.851 27.2471 33.9491 27.1186 34.0195 26.9749C34.0899 26.8311 34.1312 26.6749 34.1411 26.5151L34.5001 24.6152H36.6881L36.0881 27.6532H39.3261L38.9471 29.5952H35.6471L34.6201 34.8662C34.2851 36.5662 35.0201 37.4342 36.5201 37.4342H37.5931L37.1931 39.4211H35.6931C33.0491 39.4221 31.8201 37.7701 32.3111 35.1351Z" fill="white"/>
<path d="M37.2203 34.4652C37.2179 32.6007 37.9544 30.8111 39.2687 29.4884C40.5829 28.1658 42.3677 27.4178 44.2323 27.4082C44.936 27.3599 45.6421 27.461 46.304 27.705C46.9659 27.9489 47.5687 28.3301 48.0727 28.8236C48.5768 29.3171 48.9707 29.9117 49.2287 30.5683C49.4866 31.2248 49.6027 31.9286 49.5693 32.6332C49.5775 34.4956 48.846 36.285 47.5355 37.6083C46.2249 38.9316 44.4426 39.6804 42.5803 39.6902C41.8748 39.7412 41.1666 39.642 40.5023 39.3993C39.838 39.1566 39.2327 38.7758 38.7262 38.2821C38.2198 37.7884 37.8237 37.193 37.5641 36.5351C37.3045 35.8772 37.1873 35.1717 37.2203 34.4652ZM47.2693 32.8352C47.305 32.3889 47.2456 31.9401 47.0952 31.5185C46.9447 31.0968 46.7066 30.7118 46.3964 30.3889C46.0863 30.0661 45.7112 29.8125 45.2959 29.6452C44.8807 29.4779 44.4346 29.4006 43.9873 29.4182C42.7683 29.4744 41.62 30.0063 40.7891 30.8999C39.9581 31.7935 39.5108 32.9774 39.5433 34.1972C39.506 34.6475 39.5645 35.1006 39.715 35.5266C39.8654 35.9527 40.1043 36.3419 40.4161 36.669C40.7278 36.996 41.1053 37.2534 41.5236 37.4241C41.942 37.5948 42.3917 37.6749 42.8433 37.6592C44.0663 37.5965 45.2158 37.0556 46.0437 36.1532C46.8717 35.2508 47.3118 34.0592 47.2693 32.8352Z" fill="white"/>
</svg>
