<svg width="48" height="47" viewBox="0 0 48 47" fill="none" xmlns="http://www.w3.org/2000/svg">
<path d="M26.2969 19.5813C26.5569 19.5923 26.5969 19.4532 26.6599 19.3562C27.5502 17.9787 28.7681 16.8434 30.2047 16.052C31.6413 15.2606 33.2518 14.8375 34.8919 14.821C36.8152 14.676 38.7482 14.9142 40.5789 15.5212C43.8379 16.6752 45.5899 19.1213 46.4329 22.3523C46.9904 24.7442 47.2441 27.1967 47.1879 29.6521C47.2129 35.0411 47.1879 40.4301 47.2109 45.8191C47.2109 46.4501 47.0409 46.6284 46.4109 46.6194C43.7289 46.5854 41.0472 46.5854 38.3659 46.6194C37.7029 46.6284 37.4729 46.4923 37.4769 45.7663C37.5099 40.6803 37.4989 35.595 37.4819 30.51C37.5175 29.2693 37.3874 28.0293 37.0949 26.823C36.9843 26.2279 36.7548 25.6613 36.4202 25.157C36.0855 24.6526 35.6525 24.221 35.1472 23.8879C34.6418 23.5548 34.0744 23.3272 33.479 23.2185C32.8836 23.1098 32.2724 23.1221 31.6819 23.2551C28.8159 23.6381 27.2749 25.2772 26.8819 28.3552C26.7663 29.3352 26.7135 30.3216 26.7239 31.3083C26.7239 36.1663 26.7099 41.0231 26.7409 45.8811C26.7459 46.5601 26.5579 46.726 25.8949 46.717C23.1629 46.679 20.4309 46.689 17.6949 46.717C17.1769 46.717 17.0039 46.5902 17.0049 46.0452C17.0202 36.1018 17.0202 26.1587 17.0049 16.2161C17.0049 15.7041 17.1209 15.5164 17.6679 15.5164C20.3252 15.5417 22.9819 15.5417 25.6379 15.5164C26.1889 15.5164 26.3189 15.7159 26.3049 16.2209C26.2749 17.3379 26.2969 18.4633 26.2969 19.5813Z" fill="#7f7f7e"/>
<path d="M1.27087 31.1659C1.27087 26.2309 1.2829 21.2956 1.2569 16.3656C1.2569 15.7166 1.39589 15.4938 2.08789 15.5048C4.76989 15.5468 7.45222 15.5468 10.1349 15.5048C10.8259 15.4938 10.9619 15.7127 10.9599 16.3607C10.9399 26.1794 10.9399 35.9984 10.9599 45.8178C10.9599 46.4768 10.8409 46.7327 10.1029 46.7177C7.42191 46.6687 4.73791 46.6777 2.05591 46.7177C1.40991 46.7267 1.25586 46.5178 1.25586 45.9018C1.28086 40.9898 1.27087 36.0759 1.27087 31.1659Z" fill="#7f7f7e"/>
<path d="M11.7108 5.65501C11.7011 6.76375 11.3628 7.84498 10.7387 8.76145C10.1146 9.67792 9.23273 10.3887 8.20465 10.8039C7.17657 11.2192 6.04848 11.3204 4.96295 11.0945C3.87742 10.8686 2.88322 10.3258 2.10614 9.53489C1.32906 8.74397 0.80398 7.74045 0.597291 6.6511C0.390603 5.56175 0.511579 4.43536 0.944947 3.41477C1.37832 2.39419 2.10464 1.52502 3.03198 0.917213C3.95933 0.309405 5.0461 -0.0096253 6.15485 0.000221238C7.638 0.0243821 9.05209 0.631078 10.0917 1.68919C11.1313 2.74729 11.7129 4.17166 11.7108 5.65501Z" fill="#7f7f7e"/>
</svg>
