<svg xmlns="http://www.w3.org/2000/svg" viewBox="0 0 45.35 45.35"><defs><style>.cls-1{fill:#141414;}</style></defs><g id="Layer_2" data-name="Layer 2"><g id="Layer_1-2" data-name="Layer 1"><path class="cls-1" d="M40.07,45.35H5.28A5.29,5.29,0,0,1,0,40.07V5.28A5.29,5.29,0,0,1,5.28,0H40.07a5.29,5.29,0,0,1,5.28,5.28V40.07A5.29,5.29,0,0,1,40.07,45.35ZM5.28.42A4.87,4.87,0,0,0,.42,5.28V40.07a4.87,4.87,0,0,0,4.86,4.86H40.07a4.87,4.87,0,0,0,4.86-4.86V5.28A4.87,4.87,0,0,0,40.07.42Z"/><path class="cls-1" d="M6.65,21l1.9-.69a1.62,1.62,0,0,0,1.79,1.43c.9,0,1.46-.44,1.46-1.14,0-1.78-3.9-1.18-3.9-4,0-1.72,1.43-2.92,3.52-2.92,1.75,0,3,.87,3.12,2.14l-1.9.67a1.27,1.27,0,0,0-1.4-1.16c-.8,0-1.36.4-1.36,1,0,1.6,3.91,1.06,3.91,4.05,0,1.82-1.5,3-3.76,3C8.14,23.39,6.91,22.52,6.65,21Z"/><path class="cls-1" d="M18.18,21.81a2,2,0,0,0,1.74-1l1.28.95A3.94,3.94,0,0,1,18,23.4a3.12,3.12,0,0,1-3.28-3.22,4.26,4.26,0,0,1,4.22-4.27A2.91,2.91,0,0,1,22,18.83a4.6,4.6,0,0,1-.26,1.41h-5.2A1.55,1.55,0,0,0,18.18,21.81ZM20.24,19v-.11a1.33,1.33,0,0,0-1.42-1.49A2.24,2.24,0,0,0,16.71,19Z"/><path class="cls-1" d="M34.12,18.78l-.87,4.46H31.34l.79-4.1c.2-1-.32-1.54-1-1.54a1.7,1.7,0,0,0-1.54,1.32l-.84,4.32H26.82l.78-4.1c.21-1-.31-1.54-1-1.54A1.7,1.7,0,0,0,25,19l-.83,4.27H22.29l1.39-7.16h1.81l-.14.7a3.18,3.18,0,0,1,2.15-.88,1.89,1.89,0,0,1,2,1.32A3.3,3.3,0,0,1,32,15.89C33.51,15.89,34.46,17,34.12,18.78Z"/><path class="cls-1" d="M36,16.07h1.91l-1.38,7.16H34.62Zm.11-2.16a1.44,1.44,0,0,1,1.44-1.39A1.07,1.07,0,0,1,38.7,13.6,1.44,1.44,0,0,1,37.27,15,1.08,1.08,0,0,1,36.12,13.91Z"/><path class="cls-1" d="M18.62,30.49H15.43l-1,1.93H12.6l4.57-8.73h2.16l1.2,8.73H18.87ZM18.43,29,18,25.48,16.17,29Z"/><path class="cls-1" d="M27.46,25.8l-1.28,6.62H24.51l.15-.73a3,3,0,0,1-2.08.89c-1.42,0-2.31-1.08-2-2.71l.78-4.07h1.77l-.72,3.74c-.18,1,.28,1.46,1,1.46A1.62,1.62,0,0,0,25,29.58l.73-3.78Z"/><path class="cls-1" d="M27.64,29.85l.49-2.53H27l.3-1.52h.56a.77.77,0,0,0,.8-.7l.19-1H30.6l-.34,1.73h1.6l-.3,1.52H29.9l-.45,2.31c-.17.83.2,1.25.93,1.25h.55l-.3,1.54h-.92C28.08,32.42,27.34,31.43,27.64,29.85Z"/><path class="cls-1" d="M30.67,29.6a4,4,0,0,1,4-4,2.91,2.91,0,0,1,3.13,3,4,4,0,0,1-4,3.95A2.89,2.89,0,0,1,30.67,29.6ZM36,28.82a1.47,1.47,0,0,0-1.51-1.6,2.09,2.09,0,0,0-2,2.17A1.47,1.47,0,0,0,34,31,2.09,2.09,0,0,0,36,28.82Z"/></g></g></svg>