<svg width="112" height="120" viewBox="0 0 112 120" fill="none" xmlns="http://www.w3.org/2000/svg">
<path d="M27.3469 94.7849C27.2928 94.3284 27.0736 93.9739 26.6891 93.7216C26.3046 93.4693 25.8331 93.3432 25.2744 93.3432C24.8659 93.3432 24.5085 93.4093 24.2022 93.5414C23.8988 93.6736 23.6615 93.8553 23.4903 94.0866C23.3221 94.3178 23.238 94.5807 23.238 94.875C23.238 95.1213 23.2966 95.333 23.4137 95.5103C23.5339 95.6845 23.6871 95.8301 23.8733 95.9473C24.0595 96.0614 24.2547 96.156 24.459 96.2311C24.6632 96.3032 24.8509 96.3618 25.0221 96.4068L25.9592 96.6591C26.1995 96.7222 26.4668 96.8093 26.7612 96.9204C27.0585 97.0316 27.3424 97.1832 27.6127 97.3755C27.886 97.5647 28.1113 97.808 28.2885 98.1053C28.4657 98.4027 28.5543 98.7676 28.5543 99.2001C28.5543 99.6987 28.4237 100.149 28.1623 100.552C27.904 100.954 27.5256 101.274 27.027 101.511C26.5314 101.749 25.9292 101.867 25.2204 101.867C24.5596 101.867 23.9874 101.761 23.5038 101.547C23.0233 101.334 22.6448 101.037 22.3685 100.655C22.0952 100.274 21.9405 99.8309 21.9044 99.3263H23.0578C23.0878 99.6747 23.205 99.963 23.4092 100.191C23.6165 100.417 23.8778 100.585 24.1932 100.696C24.5115 100.804 24.8539 100.858 25.2204 100.858C25.6469 100.858 26.0298 100.789 26.3692 100.651C26.7086 100.51 26.9774 100.314 27.1757 100.065C27.3739 99.8128 27.473 99.5185 27.473 99.1821C27.473 98.8757 27.3874 98.6264 27.2162 98.4342C27.045 98.242 26.8198 98.0858 26.5404 97.9657C26.2611 97.8455 25.9592 97.7404 25.6349 97.6503L24.4995 97.3259C23.7787 97.1187 23.208 96.8228 22.7875 96.4384C22.367 96.0539 22.1567 95.5508 22.1567 94.9291C22.1567 94.4125 22.2964 93.9619 22.5757 93.5775C22.8581 93.19 23.2365 92.8897 23.7111 92.6764C24.1886 92.4601 24.7218 92.352 25.3105 92.352C25.9052 92.352 26.4338 92.4586 26.8963 92.6719C27.3589 92.8821 27.7253 93.1705 27.9956 93.5369C28.269 93.9034 28.4131 94.3193 28.4282 94.7849H27.3469ZM34.6083 98.8757V94.7849H35.6716V101.705H34.6083V100.534H34.5363C34.3741 100.885 34.1218 101.184 33.7794 101.43C33.437 101.674 33.0044 101.795 32.4818 101.795C32.0493 101.795 31.6649 101.701 31.3285 101.511C30.9921 101.319 30.7278 101.031 30.5355 100.646C30.3433 100.259 30.2472 99.7708 30.2472 99.1821V94.7849H31.3104V99.11C31.3104 99.6146 31.4516 100.017 31.7339 100.317C32.0193 100.618 32.3827 100.768 32.8242 100.768C33.0885 100.768 33.3574 100.7 33.6307 100.565C33.907 100.43 34.1383 100.223 34.3245 99.9435C34.5137 99.6642 34.6083 99.3082 34.6083 98.8757ZM37.619 104.3V94.7849H38.6462V95.8842H38.7724C38.8505 95.7641 38.9586 95.6109 39.0968 95.4247C39.2379 95.2354 39.4392 95.0672 39.7005 94.9201C39.9648 94.7699 40.3222 94.6948 40.7728 94.6948C41.3554 94.6948 41.8691 94.8405 42.3136 95.1318C42.7581 95.4232 43.105 95.8361 43.3543 96.3708C43.6036 96.9054 43.7282 97.5361 43.7282 98.263C43.7282 98.9959 43.6036 99.6311 43.3543 100.169C43.105 100.703 42.7596 101.118 42.3181 101.412C41.8766 101.704 41.3675 101.849 40.7908 101.849C40.3463 101.849 39.9903 101.776 39.723 101.628C39.4557 101.478 39.25 101.309 39.1058 101.119C38.9616 100.927 38.8505 100.768 38.7724 100.642H38.6823V104.3H37.619ZM38.6643 98.245C38.6643 98.7676 38.7409 99.2287 38.894 99.6281C39.0472 100.025 39.271 100.335 39.5653 100.561C39.8597 100.783 40.2201 100.894 40.6466 100.894C41.0911 100.894 41.4621 100.777 41.7594 100.543C42.0598 100.305 42.285 99.987 42.4352 99.5876C42.5884 99.1851 42.665 98.7376 42.665 98.245C42.665 97.7584 42.5899 97.3199 42.4397 96.9294C42.2926 96.536 42.0688 96.2251 41.7684 95.9968C41.4711 95.7656 41.0971 95.6499 40.6466 95.6499C40.2141 95.6499 39.8507 95.7595 39.5563 95.9788C39.262 96.1951 39.0397 96.4984 38.8895 96.8889C38.7394 97.2763 38.6643 97.7284 38.6643 98.245ZM48.2516 101.849C47.5848 101.849 47.0096 101.702 46.5261 101.408C46.0455 101.11 45.6746 100.696 45.4132 100.164C45.1549 99.6296 45.0258 99.0079 45.0258 98.2991C45.0258 97.5902 45.1549 96.9655 45.4132 96.4248C45.6746 95.8812 46.038 95.4577 46.5035 95.1543C46.9721 94.848 47.5187 94.6948 48.1435 94.6948C48.5039 94.6948 48.8598 94.7549 49.2112 94.875C49.5626 94.9951 49.8825 95.1904 50.1709 95.4607C50.4592 95.728 50.689 96.0824 50.8602 96.524C51.0314 96.9655 51.117 97.5091 51.117 98.1549V98.6054H45.7827V97.6863H50.0357C50.0357 97.2959 49.9576 96.9475 49.8014 96.6411C49.6482 96.3347 49.429 96.0929 49.1437 95.9157C48.8613 95.7385 48.5279 95.6499 48.1435 95.6499C47.72 95.6499 47.3535 95.755 47.0442 95.9653C46.7378 96.1725 46.502 96.4429 46.3368 96.7763C46.1716 97.1096 46.089 97.4671 46.089 97.8485V98.4612C46.089 98.9839 46.1791 99.4269 46.3594 99.7903C46.5426 100.151 46.7964 100.426 47.1208 100.615C47.4451 100.801 47.8221 100.894 48.2516 100.894C48.5309 100.894 48.7832 100.855 49.0085 100.777C49.2368 100.696 49.4335 100.576 49.5987 100.417C49.7639 100.254 49.8915 100.053 49.9816 99.8128L51.0089 100.101C50.9007 100.45 50.719 100.756 50.4637 101.02C50.2084 101.282 49.893 101.486 49.5176 101.633C49.1422 101.777 48.7202 101.849 48.2516 101.849ZM52.7344 101.705V94.7849H53.7616V95.8301H53.8337C53.9598 95.4877 54.1881 95.2099 54.5185 94.9966C54.8489 94.7834 55.2213 94.6768 55.6358 94.6768C55.7139 94.6768 55.8115 94.6783 55.9287 94.6813C56.0458 94.6843 56.1344 94.6888 56.1945 94.6948V95.7761C56.1584 95.7671 56.0758 95.7535 55.9467 95.7355C55.8205 95.7145 55.6869 95.704 55.5457 95.704C55.2093 95.704 54.909 95.7746 54.6447 95.9157C54.3833 96.0539 54.1761 96.2461 54.0229 96.4924C53.8727 96.7357 53.7977 97.0135 53.7977 97.3259V101.705H52.7344ZM64.5192 98.8217H65.7447L66.7719 100.173L67.0422 100.534L68.574 102.57H67.3486L66.3394 101.219L66.0871 100.876L64.5192 98.8217ZM68.9524 97.0916C68.9524 98.0648 68.7767 98.9058 68.4253 99.6146C68.0739 100.323 67.5918 100.87 66.9791 101.255C66.3664 101.639 65.6666 101.831 64.8796 101.831C64.0927 101.831 63.3929 101.639 62.7802 101.255C62.1674 100.87 61.6854 100.323 61.3339 99.6146C60.9825 98.9058 60.8068 98.0648 60.8068 97.0916C60.8068 96.1185 60.9825 95.2775 61.3339 94.5686C61.6854 93.8598 62.1674 93.3132 62.7802 92.9287C63.3929 92.5442 64.0927 92.352 64.8796 92.352C65.6666 92.352 66.3664 92.5442 66.9791 92.9287C67.5918 93.3132 68.0739 93.8598 68.4253 94.5686C68.7767 95.2775 68.9524 96.1185 68.9524 97.0916ZM67.8712 97.0916C67.8712 96.2927 67.7375 95.6184 67.4702 95.0687C67.2059 94.5191 66.847 94.1031 66.3934 93.8208C65.9429 93.5384 65.4383 93.3973 64.8796 93.3973C64.321 93.3973 63.8149 93.5384 63.3613 93.8208C62.9108 94.1031 62.5519 94.5191 62.2846 95.0687C62.0203 95.6184 61.8881 96.2927 61.8881 97.0916C61.8881 97.8906 62.0203 98.5649 62.2846 99.1145C62.5519 99.6642 62.9108 100.08 63.3613 100.362C63.8149 100.645 64.321 100.786 64.8796 100.786C65.4383 100.786 65.9429 100.645 66.3934 100.362C66.847 100.08 67.2059 99.6642 67.4702 99.1145C67.7375 98.5649 67.8712 97.8906 67.8712 97.0916ZM75.0482 98.8757V94.7849H76.1114V101.705H75.0482V100.534H74.9761C74.8139 100.885 74.5616 101.184 74.2192 101.43C73.8768 101.674 73.4443 101.795 72.9216 101.795C72.4891 101.795 72.1047 101.701 71.7683 101.511C71.4319 101.319 71.1676 101.031 70.9753 100.646C70.7831 100.259 70.687 99.7708 70.687 99.1821V94.7849H71.7503V99.11C71.7503 99.6146 71.8914 100.017 72.1738 100.317C72.4591 100.618 72.8225 100.768 73.264 100.768C73.5284 100.768 73.7972 100.7 74.0705 100.565C74.3468 100.43 74.5781 100.223 74.7643 99.9435C74.9535 99.6642 75.0482 99.3082 75.0482 98.8757ZM78.0588 101.705V94.7849H79.1221V101.705H78.0588ZM78.5995 93.6315C78.3922 93.6315 78.2135 93.5609 78.0633 93.4198C77.9162 93.2786 77.8426 93.1089 77.8426 92.9107C77.8426 92.7124 77.9162 92.5427 78.0633 92.4016C78.2135 92.2604 78.3922 92.1898 78.5995 92.1898C78.8067 92.1898 78.9839 92.2604 79.1311 92.4016C79.2813 92.5427 79.3564 92.7124 79.3564 92.9107C79.3564 93.1089 79.2813 93.2786 79.1311 93.4198C78.9839 93.5609 78.8067 93.6315 78.5995 93.6315ZM84.0791 94.7849V95.686H80.4928V94.7849H84.0791ZM81.5381 93.1269H82.6013V99.7227C82.6013 100.023 82.6449 100.248 82.732 100.399C82.8221 100.546 82.9362 100.645 83.0744 100.696C83.2156 100.744 83.3642 100.768 83.5204 100.768C83.6376 100.768 83.7337 100.762 83.8088 100.75C83.8839 100.735 83.9439 100.723 83.989 100.714L84.2052 101.669C84.1331 101.696 84.0325 101.723 83.9034 101.75C83.7742 101.78 83.6105 101.795 83.4123 101.795C83.1119 101.795 82.8176 101.731 82.5293 101.601C82.2439 101.472 82.0066 101.276 81.8174 101.011C81.6312 100.747 81.5381 100.414 81.5381 100.011V93.1269ZM88.5056 101.849C87.8388 101.849 87.2636 101.702 86.78 101.408C86.2995 101.11 85.9285 100.696 85.6672 100.164C85.4089 99.6296 85.2798 99.0079 85.2798 98.2991C85.2798 97.5902 85.4089 96.9655 85.6672 96.4248C85.9285 95.8812 86.2919 95.4577 86.7575 95.1543C87.2261 94.848 87.7727 94.6948 88.3974 94.6948C88.7579 94.6948 89.1138 94.7549 89.4652 94.875C89.8166 94.9951 90.1365 95.1904 90.4248 95.4607C90.7132 95.728 90.9429 96.0824 91.1142 96.524C91.2854 96.9655 91.371 97.5091 91.371 98.1549V98.6054H86.0366V97.6863H90.2897C90.2897 97.2959 90.2116 96.9475 90.0554 96.6411C89.9022 96.3347 89.683 96.0929 89.3976 95.9157C89.1153 95.7385 88.7819 95.6499 88.3974 95.6499C87.9739 95.6499 87.6075 95.755 87.2981 95.9653C86.9918 96.1725 86.756 96.4429 86.5908 96.7763C86.4256 97.1096 86.343 97.4671 86.343 97.8485V98.4612C86.343 98.9839 86.4331 99.4269 86.6133 99.7903C86.7965 100.151 87.0503 100.426 87.3747 100.615C87.6991 100.801 88.0761 100.894 88.5056 100.894C88.7849 100.894 89.0372 100.855 89.2625 100.777C89.4907 100.696 89.6875 100.576 89.8527 100.417C90.0179 100.254 90.1455 100.053 90.2356 99.8128L91.2628 100.101C91.1547 100.45 90.973 100.756 90.7177 101.02C90.4624 101.282 90.147 101.486 89.7716 101.633C89.3961 101.777 88.9741 101.849 88.5056 101.849Z" fill="white"/>
<path d="M31.3478 112.316C31.3478 113.289 31.1721 114.13 30.8207 114.839C30.4693 115.548 29.9872 116.095 29.3745 116.479C28.7618 116.864 28.062 117.056 27.275 117.056C26.4881 117.056 25.7883 116.864 25.1755 116.479C24.5628 116.095 24.0807 115.548 23.7293 114.839C23.3779 114.13 23.2022 113.289 23.2022 112.316C23.2022 111.343 23.3779 110.502 23.7293 109.793C24.0807 109.084 24.5628 108.538 25.1755 108.153C25.7883 107.769 26.4881 107.577 27.275 107.577C28.062 107.577 28.7618 107.769 29.3745 108.153C29.9872 108.538 30.4693 109.084 30.8207 109.793C31.1721 110.502 31.3478 111.343 31.3478 112.316ZM30.2666 112.316C30.2666 111.517 30.1329 110.843 29.8656 110.293C29.6013 109.744 29.2423 109.328 28.7888 109.045C28.3383 108.763 27.8337 108.622 27.275 108.622C26.7164 108.622 26.2103 108.763 25.7567 109.045C25.3062 109.328 24.9473 109.744 24.68 110.293C24.4156 110.843 24.2835 111.517 24.2835 112.316C24.2835 113.115 24.4156 113.789 24.68 114.339C24.9473 114.889 25.3062 115.305 25.7567 115.587C26.2103 115.869 26.7164 116.011 27.275 116.011C27.8337 116.011 28.3383 115.869 28.7888 115.587C29.2423 115.305 29.6013 114.889 29.8656 114.339C30.1329 113.789 30.2666 113.115 30.2666 112.316ZM33.0824 119.525V110.01H34.1096V111.109H34.2358C34.3138 110.989 34.422 110.835 34.5601 110.649C34.7013 110.46 34.9025 110.292 35.1639 110.145C35.4282 109.994 35.7856 109.919 36.2361 109.919C36.8188 109.919 37.3324 110.065 37.7769 110.356C38.2215 110.648 38.5684 111.061 38.8177 111.595C39.067 112.13 39.1916 112.761 39.1916 113.488C39.1916 114.22 39.067 114.856 38.8177 115.393C38.5684 115.928 38.223 116.342 37.7814 116.637C37.3399 116.928 36.8308 117.074 36.2541 117.074C35.8096 117.074 35.4537 117 35.1864 116.853C34.9191 116.703 34.7133 116.533 34.5691 116.344C34.425 116.152 34.3138 115.993 34.2358 115.866H34.1456V119.525H33.0824ZM34.1276 113.47C34.1276 113.992 34.2042 114.453 34.3574 114.853C34.5106 115.249 34.7343 115.56 35.0287 115.785C35.323 116.008 35.6835 116.119 36.11 116.119C36.5545 116.119 36.9254 116.002 37.2228 115.767C37.5231 115.53 37.7484 115.212 37.8986 114.812C38.0518 114.41 38.1284 113.962 38.1284 113.47C38.1284 112.983 38.0533 112.545 37.9031 112.154C37.7559 111.761 37.5322 111.45 37.2318 111.221C36.9344 110.99 36.5605 110.875 36.11 110.875C35.6775 110.875 35.314 110.984 35.0197 111.203C34.7253 111.42 34.5031 111.723 34.3529 112.113C34.2027 112.501 34.1276 112.953 34.1276 113.47ZM43.715 117.074C43.0482 117.074 42.473 116.927 41.9894 116.632C41.5089 116.335 41.1379 115.92 40.8766 115.389C40.6183 114.854 40.4891 114.232 40.4891 113.524C40.4891 112.815 40.6183 112.19 40.8766 111.649C41.1379 111.106 41.5013 110.682 41.9669 110.379C42.4354 110.073 42.9821 109.919 43.6068 109.919C43.9673 109.919 44.3232 109.979 44.6746 110.1C45.026 110.22 45.3459 110.415 45.6342 110.685C45.9226 110.953 46.1523 111.307 46.3235 111.749C46.4947 112.19 46.5803 112.734 46.5803 113.379V113.83H41.246V112.911H45.4991C45.4991 112.52 45.421 112.172 45.2648 111.866C45.1116 111.559 44.8924 111.318 44.607 111.14C44.3247 110.963 43.9913 110.875 43.6068 110.875C43.1833 110.875 42.8169 110.98 42.5075 111.19C42.2012 111.397 41.9654 111.667 41.8002 112.001C41.635 112.334 41.5524 112.692 41.5524 113.073V113.686C41.5524 114.208 41.6425 114.651 41.8227 115.015C42.0059 115.375 42.2597 115.65 42.5841 115.839C42.9085 116.026 43.2855 116.119 43.715 116.119C43.9943 116.119 44.2466 116.08 44.4719 116.002C44.7001 115.92 44.8969 115.8 45.0621 115.641C45.2272 115.479 45.3549 115.278 45.445 115.037L46.4722 115.326C46.3641 115.674 46.1824 115.981 45.9271 116.245C45.6718 116.506 45.3564 116.71 44.981 116.858C44.6055 117.002 44.1835 117.074 43.715 117.074ZM48.1978 116.93V110.01H49.225V111.055H49.2971C49.4232 110.712 49.6515 110.435 49.9819 110.221C50.3123 110.008 50.6847 109.901 51.0992 109.901C51.1773 109.901 51.2749 109.903 51.392 109.906C51.5092 109.909 51.5978 109.913 51.6579 109.919V111.001C51.6218 110.992 51.5392 110.978 51.4101 110.96C51.2839 110.939 51.1503 110.929 51.0091 110.929C50.6727 110.929 50.3723 110.999 50.108 111.14C49.8467 111.279 49.6395 111.471 49.4863 111.717C49.3361 111.96 49.261 112.238 49.261 112.551V116.93H48.1978ZM54.9546 117.092C54.5161 117.092 54.1181 117.009 53.7607 116.844C53.4033 116.676 53.1195 116.434 52.9092 116.119C52.699 115.8 52.5938 115.416 52.5938 114.965C52.5938 114.569 52.6719 114.248 52.8281 114.001C52.9843 113.752 53.193 113.557 53.4544 113.416C53.7157 113.274 54.004 113.169 54.3194 113.1C54.6378 113.028 54.9576 112.971 55.279 112.929C55.6995 112.875 56.0404 112.834 56.3017 112.807C56.566 112.777 56.7583 112.728 56.8784 112.659C57.0015 112.59 57.0631 112.469 57.0631 112.298V112.262C57.0631 111.818 56.9415 111.472 56.6982 111.226C56.4579 110.98 56.093 110.857 55.6034 110.857C55.0958 110.857 54.6978 110.968 54.4095 111.19C54.1211 111.412 53.9184 111.649 53.8013 111.902L52.7921 111.541C52.9723 111.121 53.2126 110.793 53.5129 110.559C53.8163 110.322 54.1467 110.157 54.5041 110.064C54.8645 109.967 55.2189 109.919 55.5673 109.919C55.7896 109.919 56.0449 109.946 56.3333 110C56.6246 110.052 56.9054 110.158 57.1758 110.32C57.4491 110.483 57.6758 110.727 57.8561 111.055C58.0363 111.382 58.1264 111.821 58.1264 112.37V116.93H57.0631V115.993H57.0091C56.937 116.143 56.8168 116.303 56.6486 116.475C56.4804 116.646 56.2567 116.792 55.9773 116.912C55.698 117.032 55.3571 117.092 54.9546 117.092ZM55.1168 116.137C55.5373 116.137 55.8917 116.054 56.1801 115.889C56.4714 115.724 56.6907 115.511 56.8379 115.249C56.988 114.988 57.0631 114.713 57.0631 114.425V113.452C57.0181 113.506 56.9189 113.555 56.7658 113.6C56.6156 113.642 56.4414 113.68 56.2431 113.713C56.0479 113.743 55.8572 113.77 55.671 113.794C55.4878 113.815 55.3391 113.833 55.2249 113.848C54.9486 113.884 54.6903 113.943 54.45 114.024C54.2127 114.102 54.0205 114.22 53.8733 114.38C53.7292 114.536 53.6571 114.749 53.6571 115.019C53.6571 115.389 53.7938 115.668 54.0671 115.857C54.3434 116.044 54.6933 116.137 55.1168 116.137ZM63.0766 110.01V110.911H59.4904V110.01H63.0766ZM60.5356 108.352H61.5989V114.947C61.5989 115.248 61.6424 115.473 61.7295 115.623C61.8196 115.77 61.9338 115.869 62.0719 115.92C62.2131 115.969 62.3618 115.993 62.5179 115.993C62.6351 115.993 62.7312 115.987 62.8063 115.975C62.8814 115.96 62.9414 115.948 62.9865 115.939L63.2028 116.894C63.1307 116.921 63.03 116.948 62.9009 116.975C62.7717 117.005 62.6081 117.02 62.4098 117.02C62.1095 117.02 61.8151 116.955 61.5268 116.826C61.2414 116.697 61.0042 116.5 60.8149 116.236C60.6287 115.972 60.5356 115.638 60.5356 115.236V108.352ZM64.676 116.93V110.01H65.7393V116.93H64.676ZM65.2166 108.856C65.0094 108.856 64.8307 108.786 64.6805 108.644C64.5333 108.503 64.4597 108.334 64.4597 108.135C64.4597 107.937 64.5333 107.767 64.6805 107.626C64.8307 107.485 65.0094 107.414 65.2166 107.414C65.4239 107.414 65.6011 107.485 65.7483 107.626C65.8984 107.767 65.9735 107.937 65.9735 108.135C65.9735 108.334 65.8984 108.503 65.7483 108.644C65.6011 108.786 65.4239 108.856 65.2166 108.856ZM70.498 117.074C69.8733 117.074 69.3251 116.925 68.8536 116.628C68.385 116.33 68.0186 115.914 67.7543 115.38C67.4929 114.845 67.3623 114.22 67.3623 113.506C67.3623 112.785 67.4929 112.156 67.7543 111.618C68.0186 111.08 68.385 110.663 68.8536 110.365C69.3251 110.068 69.8733 109.919 70.498 109.919C71.1227 109.919 71.6694 110.068 72.1379 110.365C72.6095 110.663 72.9759 111.08 73.2372 111.618C73.5016 112.156 73.6337 112.785 73.6337 113.506C73.6337 114.22 73.5016 114.845 73.2372 115.38C72.9759 115.914 72.6095 116.33 72.1379 116.628C71.6694 116.925 71.1227 117.074 70.498 117.074ZM70.498 116.119C70.9726 116.119 71.363 115.997 71.6694 115.754C71.9757 115.511 72.2025 115.191 72.3497 114.794C72.4969 114.398 72.5705 113.968 72.5705 113.506C72.5705 113.043 72.4969 112.612 72.3497 112.213C72.2025 111.813 71.9757 111.49 71.6694 111.244C71.363 110.998 70.9726 110.875 70.498 110.875C70.0234 110.875 69.633 110.998 69.3266 111.244C69.0203 111.49 68.7935 111.813 68.6463 112.213C68.4991 112.612 68.4256 113.043 68.4256 113.506C68.4256 113.968 68.4991 114.398 68.6463 114.794C68.7935 115.191 69.0203 115.511 69.3266 115.754C69.633 115.997 70.0234 116.119 70.498 116.119ZM76.32 112.767V116.93H75.2568V110.01H76.284V111.091H76.3741C76.5363 110.739 76.7826 110.457 77.1129 110.244C77.4433 110.028 77.8698 109.919 78.3925 109.919C78.861 109.919 79.271 110.016 79.6224 110.208C79.9738 110.397 80.2472 110.685 80.4424 111.073C80.6376 111.457 80.7352 111.944 80.7352 112.532V116.93H79.672V112.605C79.672 112.061 79.5308 111.637 79.2485 111.334C78.9661 111.028 78.5787 110.875 78.0861 110.875C77.7467 110.875 77.4433 110.948 77.176 111.095C76.9117 111.242 76.703 111.457 76.5498 111.74C76.3966 112.022 76.32 112.364 76.32 112.767ZM87.5799 111.559L86.6248 111.83C86.5647 111.67 86.4761 111.516 86.359 111.366C86.2449 111.212 86.0887 111.086 85.8905 110.987C85.6922 110.888 85.4384 110.838 85.1291 110.838C84.7055 110.838 84.3526 110.936 84.0703 111.131C83.791 111.324 83.6513 111.568 83.6513 111.866C83.6513 112.13 83.7474 112.339 83.9396 112.492C84.1319 112.645 84.4322 112.773 84.8407 112.875L85.8679 113.127C86.4867 113.277 86.9477 113.507 87.2511 113.817C87.5544 114.123 87.7061 114.518 87.7061 115.001C87.7061 115.398 87.592 115.752 87.3637 116.065C87.1384 116.377 86.8231 116.623 86.4176 116.804C86.0121 116.984 85.5405 117.074 85.0029 117.074C84.2971 117.074 83.7129 116.921 83.2503 116.614C82.7878 116.308 82.4949 115.86 82.3718 115.272L83.381 115.019C83.4771 115.392 83.6588 115.671 83.9261 115.857C84.1964 116.044 84.5494 116.137 84.9849 116.137C85.4805 116.137 85.8739 116.032 86.1653 115.821C86.4596 115.608 86.6068 115.353 86.6068 115.055C86.6068 114.815 86.5227 114.614 86.3545 114.452C86.1863 114.287 85.928 114.163 85.5796 114.082L84.4262 113.812C83.7925 113.662 83.3269 113.429 83.0296 113.114C82.7352 112.795 82.588 112.397 82.588 111.92C82.588 111.529 82.6977 111.184 82.9169 110.884C83.1392 110.583 83.4411 110.347 83.8225 110.176C84.207 110.005 84.6425 109.919 85.1291 109.919C85.8139 109.919 86.3515 110.07 86.742 110.37C87.1354 110.67 87.4148 111.067 87.5799 111.559Z" fill="white"/>
<path d="M32.4426 24.1117C32.4426 30.2317 32.4226 36.3517 32.4536 42.4717C32.5441 43.4962 32.3147 44.5235 31.7969 45.4122C31.2792 46.3009 30.4985 47.0072 29.5626 47.4337C27.4926 48.4167 25.6836 47.7786 24.0436 46.3526C19.9436 42.7826 15.8206 39.2307 11.7256 35.6527C11.4988 35.4314 11.2291 35.2586 10.9332 35.1451C10.6373 35.0316 10.3213 34.9798 10.0046 34.9927C8.64562 35.0387 7.28462 35.0266 5.92462 34.9996C5.28835 35.0277 4.65299 34.9266 4.05693 34.7023C3.46087 34.4779 2.91649 34.1349 2.45671 33.6942C1.99692 33.2535 1.63127 32.7241 1.38186 32.138C1.13245 31.552 1.00447 30.9215 1.00563 30.2847C0.912628 26.2067 0.918623 22.1236 1.00062 18.0456C1.00506 17.4088 1.13516 16.7792 1.38347 16.1927C1.63177 15.6063 1.9934 15.0746 2.4476 14.6282C2.9018 14.1818 3.43964 13.8294 4.0303 13.5913C4.62096 13.3532 5.25282 13.2341 5.88963 13.2407C7.2483 13.192 8.60796 13.192 9.96863 13.2407C10.3036 13.2574 10.6385 13.2055 10.9527 13.088C11.2669 12.9705 11.5537 12.79 11.7956 12.5576C15.8616 9.0026 19.9676 5.49265 24.0236 1.92565C24.7344 1.18198 25.6609 0.680324 26.6721 0.491564C27.6834 0.302804 28.7284 0.436471 29.6596 0.873644C31.7226 1.80464 32.4666 3.5467 32.4546 5.7517C32.4206 11.8717 32.4426 17.9917 32.4426 24.1117Z" fill="white"/>
<path d="M42.1324 22.9497C42.1159 26.1112 41.0725 29.1816 39.1594 31.6986C38.9887 31.9949 38.7579 32.2524 38.4818 32.4544C38.2058 32.6564 37.8906 32.7985 37.5565 32.8715C37.2224 32.9446 36.8766 32.947 36.5415 32.8786C36.2064 32.8103 35.8892 32.6726 35.6104 32.4746C34.4304 31.6356 34.3104 30.1746 35.2954 28.7806C36.4591 27.2731 37.1471 25.4531 37.2718 23.5528C37.3965 21.6525 36.9521 19.7583 35.9954 18.1117C35.1954 16.5747 35.4804 15.1916 36.7714 14.4876C38.0454 13.7936 39.3964 14.3006 40.2504 15.8006C41.4734 17.9856 42.121 20.4457 42.1324 22.9497Z" fill="white"/>
<path d="M61.4397 27.4562C61.4397 31.0162 58.7897 33.5051 54.4537 33.5051C51.1347 33.5051 48.7257 32.0052 47.7617 29.1692L50.8677 27.9111C51.0683 28.7127 51.5406 29.4199 52.2041 29.9122C52.8677 30.4046 53.6815 30.6516 54.5067 30.6112C54.9491 30.6481 55.3944 30.5923 55.814 30.4471C56.2335 30.302 56.6182 30.0708 56.9432 29.7684C57.2683 29.4661 57.5266 29.0992 57.7017 28.6912C57.8767 28.2832 57.9646 27.8431 57.9597 27.3992C57.9631 26.9464 57.8719 26.4978 57.6919 26.0823C57.5119 25.6667 57.2472 25.2934 56.9146 24.9861C56.5821 24.6787 56.189 24.4442 55.7606 24.2975C55.3322 24.1508 54.8779 24.0952 54.4267 24.1342H49.4757L49.9837 14.5781H60.2087V17.2542H52.9017L52.6607 21.4541H54.5337C58.7097 21.4611 61.4397 23.8162 61.4397 27.4562Z" fill="white"/>
<path d="M76.937 28.156C76.937 31.341 74.126 33.509 70.218 33.509C66.337 33.509 63.5 31.341 63.5 28.156C63.4987 27.0744 63.8434 26.0208 64.4838 25.149C65.1241 24.2773 66.0265 23.6332 67.059 23.311C66.2192 22.99 65.5002 22.4156 65.0015 21.6675C64.5029 20.9194 64.2493 20.0346 64.276 19.136C64.276 16.436 66.417 14.291 70.218 14.291C73.993 14.291 76.187 16.378 76.187 19.162C76.2013 20.0763 75.9271 20.9719 75.4035 21.7216C74.8799 22.4712 74.1334 23.0368 73.27 23.338C74.3137 23.6475 75.2317 24.2813 75.8911 25.1476C76.5504 26.0138 76.9167 27.0676 76.937 28.156ZM73.537 27.728C73.4609 26.9004 73.0783 26.1311 72.4643 25.5709C71.8503 25.0108 71.0491 24.7002 70.218 24.7002C69.3869 24.7002 68.5857 25.0108 67.9717 25.5709C67.3577 26.1311 66.9751 26.9004 66.899 27.728C66.9751 28.5557 67.3577 29.325 67.9717 29.8851C68.5857 30.4453 69.3869 30.7559 70.218 30.7559C71.0491 30.7559 71.8503 30.4453 72.4643 29.8851C73.0783 29.325 73.4609 28.5557 73.537 27.728ZM67.515 19.5901C67.5589 20.2773 67.8628 20.9219 68.365 21.3931C68.8671 21.8642 69.5299 22.1265 70.2185 22.1265C70.9071 22.1265 71.5699 21.8642 72.0721 21.3931C72.5742 20.9219 72.8782 20.2773 72.922 19.5901C72.8782 18.9029 72.5742 18.2581 72.0721 17.787C71.5699 17.3158 70.9071 17.0536 70.2185 17.0536C69.5299 17.0536 68.8671 17.3158 68.365 17.787C67.8628 18.2581 67.5589 18.9029 67.515 19.5901Z" fill="white"/>
<path d="M93.6887 13.6172V33.1842H90.5297V31.3901C89.9667 32.0753 89.254 32.6224 88.4465 32.989C87.639 33.3557 86.7581 33.5322 85.8717 33.5051C81.8307 33.5051 78.8867 30.3472 78.8867 26.1442C78.8867 21.9152 81.7507 18.7572 85.7867 18.7572C86.6264 18.7347 87.4614 18.89 88.2369 19.2128C89.0124 19.5356 89.7109 20.0185 90.2867 20.6301V13.6172H93.6887ZM90.4227 26.1442C90.4704 25.5815 90.3992 25.015 90.2136 24.4817C90.028 23.9483 89.7322 23.46 89.3455 23.0485C88.9588 22.6369 88.4898 22.3115 87.969 22.0931C87.4482 21.8748 86.8873 21.7684 86.3227 21.7811C85.2238 21.866 84.1973 22.3625 83.4485 23.1714C82.6997 23.9802 82.2838 25.0419 82.2838 26.1442C82.2838 27.2464 82.6997 28.3081 83.4485 29.1169C84.1973 29.9258 85.2238 30.4223 86.3227 30.5072C86.8867 30.5179 87.4467 30.4102 87.9665 30.1912C88.4864 29.9721 88.9545 29.6466 89.3408 29.2355C89.7271 28.8244 90.023 28.3369 90.2093 27.8044C90.3957 27.272 90.4684 26.7064 90.4227 26.1442Z" fill="white"/>
<path d="M111.059 27.938C111.059 31.096 108.865 33.184 105.01 33.184H97.1406V14.584H105.251C108.49 14.584 110.417 16.3769 110.417 19.1069C110.415 19.979 110.168 20.8331 109.705 21.5715C109.241 22.31 108.579 22.903 107.794 23.283C108.76 23.6136 109.597 24.2424 110.184 25.0789C110.771 25.9153 111.077 26.9164 111.059 27.938ZM104.288 17.3379H100.513V22.209H104.234C104.58 22.2497 104.931 22.2174 105.263 22.1141C105.596 22.0109 105.904 21.8389 106.166 21.6095C106.429 21.38 106.64 21.0982 106.787 20.782C106.933 20.4658 107.012 20.1224 107.018 19.7739C107.018 18.3279 106.104 17.3379 104.288 17.3379ZM107.66 27.6969C107.66 25.9569 106.402 24.9659 104.502 24.9659H100.513V30.4269H104.528C106.509 30.4269 107.66 29.4369 107.66 27.6969Z" fill="white"/>
</svg>
