<svg xmlns="http://www.w3.org/2000/svg" viewBox="0 0 81.16 102.98"><defs><style>.cls-1,.cls-2{fill:#161616;}.cls-2{font-size:10.7px;font-family:Biennale-Regular, Biennale;}.cls-3{fill:#ff7900;}</style></defs><g id="Layer_2" data-name="Layer 2"><g id="Layer_1-2" data-name="Layer 1"><path class="cls-1" d="M71.72,81.16H9.44A9.45,9.45,0,0,1,0,71.72V9.44A9.46,9.46,0,0,1,9.44,0H71.72a9.46,9.46,0,0,1,9.44,9.44V71.72A9.45,9.45,0,0,1,71.72,81.16ZM9.44.76A8.68,8.68,0,0,0,.76,9.44V71.72a8.69,8.69,0,0,0,8.68,8.69H71.72a8.69,8.69,0,0,0,8.68-8.69V9.44A8.68,8.68,0,0,0,71.72.76Z"/><text class="cls-2" transform="translate(13.47 100.3)">Twin Motor</text><path class="cls-1" d="M20.54,20.9c.32.06.81.15,1.29.27a.87.87,0,0,0,.8-.19,10.21,10.21,0,0,1,2.84-1.64.82.82,0,0,0,.55-.59c.71-2.19.71-2.19,3-2.19h2.67a1.32,1.32,0,0,1,1.47,1.08,2.62,2.62,0,0,0,1.91,2.15,5,5,0,0,1,1.72,1.08,1.12,1.12,0,0,0,1.2.25l.3-.07c1.51-.33,1.78-.21,2.56,1.13.52.89,1,1.78,1.55,2.69a1.37,1.37,0,0,1-.23,2,2.47,2.47,0,0,0-.84,2.46,6.42,6.42,0,0,1-.07,2.35,1,1,0,0,0,.29.89c1.49,1.66,1.48,1.67.36,3.58l-1.31,2.26a1.36,1.36,0,0,1-1.75.79,2.56,2.56,0,0,0-2.71.54,3.46,3.46,0,0,1-1.34.77,2.15,2.15,0,0,0-1.54,1.71c-.33,1.21-.67,1.38-1.93,1.38H28a1.41,1.41,0,0,1-1.59-1.18,2.37,2.37,0,0,0-1.68-2,6,6,0,0,1-2-1.22.92.92,0,0,0-.9-.21c-2.18.48-2.19.46-3.33-1.51l-1.28-2.2a1.4,1.4,0,0,1,.21-2,2.44,2.44,0,0,0,.86-2.45,6.25,6.25,0,0,1,.08-2.47.74.74,0,0,0-.24-.72c-1.69-1.76-1.46-1.91-.37-3.73.44-.74.86-1.51,1.29-2.26A1.49,1.49,0,0,1,20.54,20.9Zm5.51,9.18a3.73,3.73,0,1,0,7.45,0,3.73,3.73,0,0,0-7.45,0Z"/><path class="cls-3" d="M22.81,50c-.37.39-.72.8-1.11,1.17a1.37,1.37,0,0,1-2,0,1.38,1.38,0,0,1,0-2q1.8-1.84,3.65-3.65a1.37,1.37,0,0,1,2.05,0c1.24,1.21,2.47,2.45,3.69,3.69a1.39,1.39,0,1,1-2,2c-.42-.39-.79-.84-1.19-1.28a.74.74,0,0,0-.15.63c0,2.63,0,5.26,0,7.89,0,.5.1.66.64.66,3,0,6,0,9,0a1.39,1.39,0,0,1,1.38,2.06,1.46,1.46,0,0,1-1.41.74h-6c-1.28,0-2.57,0-3.85,0A2.33,2.33,0,0,1,23,59.38q0-4.32,0-8.64v-.66Z"/><path class="cls-3" d="M55.66,30.83V27.5c0-1.68,0-3.36,0-5,0-.52-.09-.7-.66-.69-3,0-6,0-8.95,0a1.4,1.4,0,0,1-1.45-2,1.3,1.3,0,0,1,1.23-.8c3.48,0,7,0,10.44,0a2.27,2.27,0,0,1,2.18,2.46c0,2.86,0,5.72,0,8.58v.82a6,6,0,0,0,1.19-1.07,1.45,1.45,0,0,1,2.1-.17,1.42,1.42,0,0,1-.11,2.14c-1.15,1.17-2.3,2.33-3.47,3.48a1.42,1.42,0,0,1-2.23,0q-1.74-1.73-3.47-3.48a1.41,1.41,0,1,1,2-2c.37.37.71.76,1.06,1.14Z"/><path class="cls-1" d="M51.64,55.92a5.13,5.13,0,1,1,5.19-5.07A5.14,5.14,0,0,1,51.64,55.92ZM54,50.81a2.32,2.32,0,1,0-2.34,2.31A2.32,2.32,0,0,0,54,50.81Z"/><path class="cls-1" d="M51.7,37.27c.68,0,1.37,0,2,0a1.34,1.34,0,0,1,1.31,1c.27.76.53,1.53.76,2.3a1.4,1.4,0,1,1-2.65.85c-.47-1.33-.47-1.31-1.89-1.33-.45,0-.68.11-.77.56a5.71,5.71,0,0,1-.3.88,1.41,1.41,0,0,1-1.78.93,1.39,1.39,0,0,1-.87-1.76c.25-.83.52-1.65.82-2.47a1.33,1.33,0,0,1,1.33-.93c.66,0,1.33,0,2,0Z"/><path class="cls-1" d="M51.67,64.32c-.62,0-1.24,0-1.86,0a1.4,1.4,0,0,1-1.48-1.07c-.27-.78-.54-1.57-.77-2.36a1.34,1.34,0,0,1,.89-1.72A1.39,1.39,0,0,1,50.2,60c0,.08,0,.16.08.24.57,1.52.1,1.17,1.71,1.25.54,0,.87-.09.95-.67a4.16,4.16,0,0,1,.3-.88,1.42,1.42,0,0,1,1.55-.87,1.31,1.31,0,0,1,1.11,1.43,11.47,11.47,0,0,1-1,3.16,1.25,1.25,0,0,1-1.21.62Z"/><path class="cls-1" d="M60.91,60c-.78-.17-1.74-.34-2.67-.59a1.34,1.34,0,0,1-.93-1.57,1.39,1.39,0,0,1,1.49-1.12,11.13,11.13,0,0,1,1.28.25c.27.06.49,0,.6-.26l.06-.11c.74-1.26.74-1.26-.2-2.4a1.41,1.41,0,0,1,.06-2,1.4,1.4,0,0,1,2,.21c.53.57,1,1.17,1.56,1.76a1.41,1.41,0,0,1,.19,1.77c-.65,1.14-1.3,2.27-2,3.39A1.43,1.43,0,0,1,60.91,60Z"/><path class="cls-1" d="M46.12,43.47a1.4,1.4,0,0,1-1.54,1.41l-.3-.06c-1.35-.25-1.33-.24-2.06.94-.25.4-.27.68.1,1a5.21,5.21,0,0,1,.69.79,1.43,1.43,0,0,1-.18,1.87,1.37,1.37,0,0,1-1.91,0c-.63-.66-1.23-1.34-1.81-2A1.31,1.31,0,0,1,39,45.78c.67-1.16,1.32-2.33,2-3.49a1.34,1.34,0,0,1,1.54-.66l2.37.47A1.41,1.41,0,0,1,46.12,43.47Z"/><path class="cls-1" d="M61.48,49.79a1.4,1.4,0,0,1-1.06-2.26,9,9,0,0,1,.83-.92.48.48,0,0,0,.06-.66c-.76-1.37-.75-1.37-2.32-1.1a1.39,1.39,0,0,1-1.66-1,1.37,1.37,0,0,1,1-1.66c.89-.22,1.78-.4,2.68-.55a1.34,1.34,0,0,1,1.4.72c.66,1.12,1.31,2.25,1.95,3.38a1.41,1.41,0,0,1-.18,1.78l-1.6,1.81A1.45,1.45,0,0,1,61.48,49.79Z"/><path class="cls-1" d="M42.47,60A1.49,1.49,0,0,1,41,59.28c-.66-1.12-1.32-2.25-2-3.39a1.36,1.36,0,0,1,.2-1.81c.51-.59,1-1.19,1.56-1.76a1.39,1.39,0,0,1,2-.15,1.43,1.43,0,0,1,0,2c-1,1.18-1,1.17-.19,2.46a.55.55,0,0,0,.7.32,7.92,7.92,0,0,1,1.27-.25,1.39,1.39,0,0,1,1.43,1,1.32,1.32,0,0,1-.85,1.6C44.25,59.65,43.23,59.83,42.47,60Z"/></g></g></svg>