<svg width="53" height="44" viewBox="0 0 53 44" fill="none" xmlns="http://www.w3.org/2000/svg">
<path d="M10.9466 26.2902C8.62712 25.6918 6.5761 24.3311 5.12289 22.4269C3.66969 20.5227 2.89864 18.1853 2.93356 15.7902C3.62421 16.1096 4.33389 16.3862 5.05856 16.6183C5.78644 16.8501 6.54671 16.9638 7.31055 16.9552C7.39355 16.7622 7.22856 16.7153 7.13556 16.6403C5.27183 15.2282 3.92916 13.2376 3.31787 10.9806C2.70659 8.72368 2.8612 6.32776 3.75754 4.16812C4.30554 2.74312 4.28957 2.75813 5.28757 3.85513C10.1277 9.34913 16.8246 12.8643 24.0956 13.7272C24.6536 13.7972 25.2175 13.8203 25.7705 13.9123C26.2145 13.9863 26.2915 13.8873 26.2195 13.4313C25.7665 10.8106 26.2933 8.11451 27.6996 5.85708C28.5347 4.53761 29.6502 3.41831 30.9669 2.57876C32.2836 1.73922 33.769 1.20014 35.3177 0.999663C36.8663 0.799186 38.4401 0.942015 39.9271 1.41861C41.4142 1.8952 42.778 2.69366 43.9215 3.75699C44.0694 3.92933 44.2654 4.0537 44.4844 4.11392C44.7034 4.17414 44.9353 4.16736 45.1505 4.09488C47.0753 3.63083 48.9295 2.91178 50.6635 1.95621C50.7775 1.89221 50.9055 1.85601 51.1385 1.75601C50.3725 4.07847 48.8537 6.07911 46.8225 7.44107C48.7935 7.21414 50.72 6.69672 52.5396 5.90591C51.8202 7.07723 50.9579 8.15453 49.9726 9.11294C49.3096 9.81884 48.5764 10.4558 47.7845 11.0133C47.6203 11.1241 47.4904 11.2783 47.4095 11.4591C47.3285 11.6399 47.2998 11.84 47.3265 12.0363C47.2345 23.0063 42.8616 31.8032 33.8376 38.1232C29.6266 40.9851 24.7121 42.6384 19.6276 42.904C14.4935 43.3254 9.33617 42.4415 4.63556 40.3341C3.33871 39.7711 2.09955 39.0833 0.935547 38.2809C6.45028 38.8542 11.976 37.3021 16.3856 33.9411C15.5756 33.7941 14.8735 33.7143 14.1975 33.5353C12.5288 33.1275 10.9833 32.3223 9.6926 31.1886C8.4019 30.055 7.40425 28.6263 6.78455 27.0241C6.59355 26.5741 6.72757 26.4823 7.17557 26.5373C8.43612 26.7166 9.72017 26.6324 10.9466 26.2902Z" fill="white"/>
</svg>
