<svg width="83" height="138" viewBox="0 0 83 138" fill="none" xmlns="http://www.w3.org/2000/svg">
<path d="M29.5006 82.8341C21.7696 82.8365 14.3536 79.771 8.88049 74.3109C3.40739 68.8507 0.324488 61.442 0.308594 53.711C0.41568 50.3255 1.23912 47.0011 2.72461 43.957C7.06661 34.233 13.2826 25.709 19.9546 17.505C21.8312 15.321 24.4498 13.909 27.3056 13.541C29.0513 13.2213 30.8444 13.2689 32.5706 13.6808C34.2969 14.0926 35.9183 14.8597 37.3316 15.9331C37.6984 16.1607 38.0149 16.4607 38.2618 16.8148C38.5087 17.1689 38.6808 17.5697 38.7675 17.9925C38.8543 18.4154 38.8539 18.8516 38.7664 19.2743C38.6789 19.697 38.5061 20.0973 38.2586 20.451C38.0138 20.8044 37.7012 21.1056 37.3391 21.337C36.9769 21.5685 36.5723 21.7256 36.1488 21.7993C35.7253 21.873 35.2915 21.8617 34.8724 21.7662C34.4533 21.6707 34.0573 21.4929 33.7076 21.243C29.6836 18.8 26.5246 19.3821 23.6316 23.1151C18.445 29.804 13.7538 36.8627 9.59558 44.2351C0.853581 59.7301 14.3776 77.167 30.4816 76.41C41.4606 75.894 51.0346 67.033 52.1116 56.057C52.3246 53.889 53.2426 52.728 54.9296 52.495C55.6512 52.3817 56.3897 52.5201 57.0212 52.8871C57.6527 53.254 58.1387 53.827 58.3976 54.51C58.6566 55.3896 58.6852 56.3212 58.4806 57.2151C57.9452 61.6245 56.4046 65.8521 53.9773 69.5721C51.55 73.2921 48.3009 76.405 44.4806 78.671C39.9714 81.4244 34.7839 82.8662 29.5006 82.8341Z" fill="white"/>
<path d="M63.0776 47.1248C57.8398 47.1499 52.8035 45.1076 49.0626 41.4414C45.3217 37.7752 43.1782 32.7811 43.0977 27.5438C43.1639 25.126 43.7463 22.7502 44.8057 20.5758C47.6752 14.3946 51.4252 8.66172 55.9387 3.55581C56.7935 2.56429 57.8508 1.7674 59.0395 1.21877C60.2281 0.670138 61.5205 0.382438 62.8297 0.375142C64.1388 0.367847 65.4343 0.641184 66.629 1.17653C67.8237 1.71188 68.8898 2.49686 69.7557 3.47878C74.2739 8.64819 78.0634 14.4117 81.0187 20.6088C86.1927 31.5328 78.2987 44.7849 66.3757 46.8089C65.2906 47.0307 64.1851 47.1366 63.0776 47.1248ZM62.9327 40.6839C72.1127 40.7709 79.4127 30.6759 74.6857 22.1579C71.963 17.2368 68.8362 12.5502 65.3376 8.14675C65.0676 7.75441 64.7071 7.43288 64.2867 7.20913C63.8662 6.98537 63.3981 6.86603 62.9219 6.86123C62.4456 6.85642 61.9752 6.96632 61.5503 7.18154C61.1254 7.39676 60.7585 7.71098 60.4807 8.0978C56.6502 12.6534 53.386 17.6566 50.7596 22.9978C49.8675 24.7183 49.4577 26.6482 49.5737 28.5828C49.9046 31.8968 51.4545 34.9699 53.9229 37.2058C56.3913 39.4418 59.6022 40.6813 62.9327 40.6839Z" fill="white"/>
<path d="M14.4886 119.211L11.9656 109.984H13.101L15.0293 117.499H15.1194L17.0837 109.984H18.3452L20.3095 117.499H20.3996L22.3279 109.984H23.4632L20.9402 119.211H19.7869L17.7505 111.858H17.6784L15.642 119.211H14.4886ZM26.9684 119.355C26.3016 119.355 25.7264 119.208 25.2428 118.914C24.7623 118.616 24.3913 118.202 24.13 117.67C23.8717 117.135 23.7426 116.514 23.7426 115.805C23.7426 115.096 23.8717 114.471 24.13 113.931C24.3913 113.387 24.7548 112.964 25.2203 112.66C25.6889 112.354 26.2355 112.201 26.8602 112.201C27.2207 112.201 27.5766 112.261 27.928 112.381C28.2794 112.501 28.5993 112.696 28.8876 112.967C29.176 113.234 29.4058 113.588 29.577 114.03C29.7482 114.471 29.8338 115.015 29.8338 115.661V116.111H24.4995V115.192H28.7525C28.7525 114.802 28.6744 114.453 28.5182 114.147C28.365 113.841 28.1458 113.599 27.8604 113.422C27.5781 113.244 27.2447 113.156 26.8602 113.156C26.4367 113.156 26.0703 113.261 25.7609 113.471C25.4546 113.678 25.2188 113.949 25.0536 114.282C24.8884 114.616 24.8058 114.973 24.8058 115.354V115.967C24.8058 116.49 24.8959 116.933 25.0761 117.296C25.2593 117.657 25.5131 117.931 25.8375 118.121C26.1619 118.307 26.5389 118.4 26.9684 118.4C27.2477 118.4 27.5 118.361 27.7253 118.283C27.9535 118.202 28.1503 118.082 28.3155 117.922C28.4807 117.76 28.6083 117.559 28.6984 117.319L29.7256 117.607C29.6175 117.955 29.4358 118.262 29.1805 118.526C28.9252 118.787 28.6098 118.992 28.2344 119.139C27.8589 119.283 27.4369 119.355 26.9684 119.355ZM34.4607 112.291V113.192H30.8745V112.291H34.4607ZM31.9197 110.633H32.983V117.229C32.983 117.529 33.0265 117.754 33.1136 117.904C33.2037 118.052 33.3179 118.151 33.456 118.202C33.5972 118.25 33.7459 118.274 33.9021 118.274C34.0192 118.274 34.1153 118.268 34.1904 118.256C34.2655 118.241 34.3256 118.229 34.3706 118.22L34.5869 119.175C34.5148 119.202 34.4142 119.229 34.285 119.256C34.1559 119.286 33.9922 119.301 33.7939 119.301C33.4936 119.301 33.1992 119.236 32.9109 119.107C32.6256 118.978 32.3883 118.781 32.1991 118.517C32.0128 118.253 31.9197 117.919 31.9197 117.517V110.633ZM42.2414 119.337C41.6347 119.337 41.1121 119.226 40.6736 119.004C40.2351 118.781 39.8972 118.477 39.6599 118.089C39.4226 117.702 39.304 117.259 39.304 116.76C39.304 116.376 39.3851 116.035 39.5472 115.737C39.7124 115.437 39.9392 115.159 40.2275 114.904C40.5189 114.646 40.8538 114.387 41.2322 114.129L42.5658 113.138C42.8271 112.967 43.0359 112.783 43.1921 112.588C43.3512 112.393 43.4308 112.138 43.4308 111.822C43.4308 111.588 43.3272 111.361 43.12 111.142C42.9157 110.923 42.6469 110.813 42.3135 110.813C42.0792 110.813 41.872 110.873 41.6918 110.993C41.5146 111.11 41.3749 111.261 41.2728 111.444C41.1737 111.624 41.1241 111.81 41.1241 112.002C41.1241 112.219 41.1827 112.438 41.2998 112.66C41.42 112.879 41.5716 113.105 41.7549 113.336C41.9411 113.564 42.1333 113.799 42.3315 114.039L46.5665 119.211H45.287L41.7909 114.994C41.4665 114.603 41.1722 114.249 40.9079 113.931C40.6435 113.612 40.4333 113.298 40.2771 112.989C40.1209 112.68 40.0428 112.345 40.0428 111.984C40.0428 111.57 40.1344 111.206 40.3177 110.894C40.5039 110.579 40.7637 110.334 41.0971 110.16C41.4335 109.983 41.8269 109.894 42.2775 109.894C42.74 109.894 43.138 109.984 43.4714 110.164C43.8048 110.341 44.0616 110.577 44.2418 110.872C44.422 111.163 44.5121 111.48 44.5121 111.822C44.5121 112.264 44.4025 112.647 44.1832 112.971C43.964 113.295 43.6651 113.597 43.2867 113.877L41.4485 115.246C41.034 115.553 40.7532 115.85 40.606 116.138C40.4588 116.427 40.3852 116.634 40.3852 116.76C40.3852 117.048 40.4603 117.317 40.6105 117.566C40.7607 117.816 40.9724 118.017 41.2458 118.17C41.5191 118.323 41.839 118.4 42.2054 118.4C42.5538 118.4 42.8932 118.326 43.2236 118.179C43.554 118.029 43.8528 117.813 44.1201 117.53C44.3905 117.248 44.6037 116.909 44.7599 116.512C44.9191 116.116 44.9987 115.67 44.9987 115.174H46.0259C46.0259 115.787 45.9553 116.287 45.8142 116.674C45.673 117.062 45.5138 117.365 45.3366 117.585C45.1594 117.804 45.0167 117.967 44.9086 118.076C44.8725 118.121 44.8395 118.166 44.8095 118.211C44.7794 118.256 44.7464 118.301 44.7103 118.346C44.413 118.679 44.0376 118.929 43.584 119.094C43.1305 119.256 42.6829 119.337 42.2414 119.337ZM54.3033 119.211H51.4559V109.984H54.4295C55.3245 109.984 56.0904 110.169 56.7272 110.538C57.3639 110.905 57.852 111.432 58.1914 112.12C58.5308 112.804 58.7005 113.624 58.7005 114.579C58.7005 115.541 58.5293 116.368 58.1869 117.062C57.8445 117.753 57.3459 118.284 56.6911 118.657C56.0364 119.026 55.2404 119.211 54.3033 119.211ZM52.5733 118.22H54.2312C54.9941 118.22 55.6264 118.073 56.128 117.778C56.6296 117.484 57.0035 117.065 57.2498 116.521C57.4961 115.978 57.6192 115.33 57.6192 114.579C57.6192 113.835 57.4976 113.193 57.2543 112.656C57.011 112.115 56.6476 111.701 56.164 111.412C55.6804 111.121 55.0782 110.975 54.3574 110.975H52.5733V118.22ZM60.4306 119.211V112.291H61.4578V113.336H61.5299C61.656 112.994 61.8843 112.716 62.2147 112.503C62.5451 112.289 62.9175 112.183 63.332 112.183C63.4101 112.183 63.5077 112.184 63.6248 112.187C63.742 112.19 63.8306 112.195 63.8907 112.201V113.282C63.8546 113.273 63.772 113.259 63.6429 113.241C63.5167 113.22 63.3831 113.21 63.2419 113.21C62.9055 113.21 62.6051 113.28 62.3408 113.422C62.0795 113.56 61.8723 113.752 61.7191 113.998C61.5689 114.242 61.4938 114.519 61.4938 114.832V119.211H60.4306ZM66.0464 121.806C65.8662 121.806 65.7055 121.791 65.5644 121.761C65.4232 121.734 65.3256 121.707 65.2715 121.68L65.5419 120.743C65.8002 120.809 66.0284 120.833 66.2267 120.815C66.4249 120.797 66.6006 120.708 66.7538 120.549C66.91 120.393 67.0526 120.139 67.1818 119.788L67.38 119.247L64.821 112.291H65.9744L67.8846 117.805H67.9567L69.867 112.291H71.0203L68.0829 120.22C67.9507 120.578 67.787 120.873 67.5918 121.108C67.3965 121.345 67.1698 121.521 66.9115 121.635C66.6562 121.749 66.3678 121.806 66.0464 121.806Z" fill="white"/>
<path d="M25.805 134.436L23.282 125.209H24.4174L26.3457 132.724H26.4358L28.4001 125.209H29.6616L31.6259 132.724H31.716L33.6443 125.209H34.7796L32.2566 134.436H31.1033L29.0669 127.083H28.9948L26.9584 134.436H25.805ZM37.4198 134.598C36.9812 134.598 36.5833 134.515 36.2258 134.35C35.8684 134.182 35.5846 133.94 35.3743 133.625C35.1641 133.306 35.059 132.922 35.059 132.471C35.059 132.075 35.1371 131.753 35.2932 131.507C35.4494 131.258 35.6582 131.063 35.9195 130.921C36.1808 130.78 36.4691 130.675 36.7845 130.606C37.1029 130.534 37.4228 130.477 37.7441 130.435C38.1646 130.381 38.5055 130.34 38.7668 130.313C39.0312 130.283 39.2234 130.234 39.3435 130.164C39.4667 130.095 39.5282 129.975 39.5282 129.804V129.768C39.5282 129.324 39.4066 128.978 39.1633 128.732C38.923 128.486 38.5581 128.362 38.0685 128.362C37.5609 128.362 37.163 128.473 36.8746 128.696C36.5863 128.918 36.3835 129.155 36.2664 129.408L35.2572 129.047C35.4374 128.627 35.6777 128.299 35.978 128.065C36.2814 127.828 36.6118 127.663 36.9692 127.569C37.3296 127.473 37.6841 127.425 38.0325 127.425C38.2547 127.425 38.51 127.452 38.7984 127.506C39.0897 127.557 39.3706 127.664 39.6409 127.826C39.9142 127.988 40.141 128.233 40.3212 128.561C40.5014 128.888 40.5915 129.327 40.5915 129.876V134.436H39.5282V133.498H39.4742C39.4021 133.649 39.282 133.809 39.1138 133.981C38.9456 134.152 38.7218 134.297 38.4425 134.418C38.1631 134.538 37.8222 134.598 37.4198 134.598ZM37.5819 133.643C38.0024 133.643 38.3569 133.56 38.6452 133.395C38.9365 133.23 39.1558 133.016 39.303 132.755C39.4532 132.494 39.5282 132.219 39.5282 131.931V130.957C39.4832 131.011 39.3841 131.061 39.2309 131.106C39.0807 131.148 38.9065 131.186 38.7083 131.219C38.513 131.249 38.3223 131.276 38.1361 131.3C37.9529 131.321 37.8042 131.339 37.6901 131.354C37.4137 131.39 37.1554 131.449 36.9152 131.53C36.6779 131.608 36.4856 131.726 36.3385 131.886C36.1943 132.042 36.1222 132.255 36.1222 132.525C36.1222 132.895 36.2589 133.174 36.5322 133.363C36.8085 133.549 37.1584 133.643 37.5819 133.643ZM47.434 129.065L46.4788 129.336C46.4188 129.176 46.3302 129.022 46.213 128.871C46.0989 128.718 45.9427 128.592 45.7445 128.493C45.5462 128.394 45.2924 128.344 44.9831 128.344C44.5596 128.344 44.2067 128.442 43.9243 128.637C43.645 128.829 43.5053 129.074 43.5053 129.372C43.5053 129.636 43.6014 129.845 43.7937 129.998C43.9859 130.151 44.2862 130.279 44.6947 130.381L45.7219 130.633C46.3407 130.783 46.8017 131.013 47.1051 131.322C47.4084 131.629 47.5601 132.024 47.5601 132.507C47.5601 132.904 47.446 133.258 47.2177 133.571C46.9924 133.883 46.6771 134.129 46.2716 134.309C45.8661 134.49 45.3946 134.58 44.8569 134.58C44.1511 134.58 43.5669 134.427 43.1044 134.12C42.6418 133.814 42.349 133.366 42.2258 132.778L43.235 132.525C43.3311 132.898 43.5128 133.177 43.7801 133.363C44.0505 133.549 44.4034 133.643 44.8389 133.643C45.3345 133.643 45.728 133.537 46.0193 133.327C46.3136 133.114 46.4608 132.859 46.4608 132.561C46.4608 132.321 46.3767 132.12 46.2085 131.958C46.0403 131.792 45.782 131.669 45.4336 131.588L44.2802 131.318C43.6465 131.168 43.1809 130.935 42.8836 130.62C42.5892 130.301 42.4421 129.903 42.4421 129.426C42.4421 129.035 42.5517 128.69 42.771 128.389C42.9932 128.089 43.2951 127.853 43.6765 127.682C44.061 127.511 44.4965 127.425 44.9831 127.425C45.6679 127.425 46.2055 127.575 46.596 127.876C46.9894 128.176 47.2688 128.573 47.434 129.065ZM52.1702 127.515V128.416H48.584V127.515H52.1702ZM49.6292 125.857H50.6924V132.453C50.6924 132.754 50.736 132.979 50.8231 133.129C50.9132 133.276 51.0273 133.375 51.1655 133.426C51.3067 133.474 51.4553 133.498 51.6115 133.498C51.7287 133.498 51.8248 133.492 51.8999 133.48C51.975 133.465 52.035 133.453 52.0801 133.444L52.2963 134.4C52.2243 134.427 52.1236 134.454 51.9945 134.481C51.8653 134.511 51.7016 134.526 51.5034 134.526C51.2031 134.526 50.9087 134.461 50.6204 134.332C50.335 134.203 50.0977 134.006 49.9085 133.742C49.7223 133.477 49.6292 133.144 49.6292 132.742V125.857ZM56.5967 134.58C55.9299 134.58 55.3547 134.433 54.8711 134.138C54.3906 133.841 54.0196 133.426 53.7583 132.895C53.5 132.36 53.3709 131.738 53.3709 131.03C53.3709 130.321 53.5 129.696 53.7583 129.155C54.0196 128.612 54.3831 128.188 54.8486 127.885C55.3172 127.578 55.8638 127.425 56.4885 127.425C56.849 127.425 57.2049 127.485 57.5563 127.605C57.9077 127.726 58.2276 127.921 58.5159 128.191C58.8043 128.458 59.0341 128.813 59.2053 129.254C59.3765 129.696 59.4621 130.24 59.4621 130.885V131.336H54.1278V130.417H58.3808C58.3808 130.026 58.3027 129.678 58.1465 129.372C57.9933 129.065 57.7741 128.823 57.4887 128.646C57.2064 128.469 56.873 128.38 56.4885 128.38C56.065 128.38 55.6986 128.486 55.3892 128.696C55.0829 128.903 54.8471 129.173 54.6819 129.507C54.5167 129.84 54.4341 130.198 54.4341 130.579V131.192C54.4341 131.714 54.5242 132.157 54.7044 132.521C54.8877 132.881 55.1415 133.156 55.4658 133.345C55.7902 133.531 56.1672 133.625 56.5967 133.625C56.876 133.625 57.1283 133.586 57.3536 133.507C57.5818 133.426 57.7786 133.306 57.9438 133.147C58.109 132.985 58.2366 132.784 58.3267 132.543L59.3539 132.832C59.2458 133.18 59.0641 133.486 58.8088 133.751C58.5535 134.012 58.2381 134.216 57.8627 134.363C57.4872 134.508 57.0652 134.58 56.5967 134.58Z" fill="white"/>
</svg>
