<svg width="85" height="137" viewBox="0 0 85 137" fill="none" xmlns="http://www.w3.org/2000/svg">
<path d="M37.1236 42.6425H11.4716C11.2132 42.6617 10.9534 42.6536 10.6966 42.6185C10.5795 42.6054 10.4661 42.5693 10.363 42.5123C10.2599 42.4552 10.1691 42.3784 10.0958 42.2861C10.0226 42.1938 9.96837 42.0878 9.93623 41.9744C9.9041 41.861 9.89466 41.7424 9.90858 41.6254C9.91148 41.4005 10.0032 41.1859 10.1638 41.0284C10.3243 40.8708 10.5407 40.7831 10.7656 40.7845C11.0496 40.7655 11.3356 40.7725 11.6206 40.7725C28.6446 40.7725 45.6683 40.7725 62.6916 40.7725C63.4387 40.8314 64.1866 40.6692 64.8422 40.3063C65.4979 39.9435 66.0325 39.396 66.3794 38.7317C66.7263 38.0675 66.8704 37.3159 66.7935 36.5705C66.7167 35.825 66.4225 35.1186 65.9473 34.5391C65.4722 33.9596 64.8373 33.5325 64.1214 33.311C63.4054 33.0895 62.6402 33.0834 61.9209 33.2934C61.2015 33.5034 60.5597 33.9202 60.0753 34.492C59.591 35.0638 59.2854 35.7653 59.1966 36.5095C59.1806 36.6635 59.1866 36.8204 59.1666 36.9744C59.168 37.0991 59.1427 37.2226 59.0924 37.3367C59.0422 37.4508 58.9681 37.5528 58.8752 37.6359C58.7823 37.719 58.6727 37.7814 58.5538 37.8188C58.4349 37.8561 58.3094 37.8676 58.1856 37.8525C58.0606 37.8549 57.9366 37.8301 57.8221 37.7798C57.7076 37.7296 57.6055 37.655 57.5227 37.5613C57.44 37.4676 57.3785 37.3569 57.3428 37.2371C57.307 37.1173 57.2978 36.9912 57.3156 36.8675C57.3121 35.8624 57.5844 34.8756 58.103 34.0146C58.6216 33.1536 59.3665 32.4513 60.2566 31.9844C61.2696 31.4148 62.4347 31.1745 63.5904 31.2967C64.7461 31.4189 65.8352 31.8975 66.7066 32.6664C67.5811 33.4231 68.2037 34.4289 68.491 35.5491C68.7783 36.6693 68.7166 37.8504 68.3143 38.9346C67.9119 40.0188 67.1881 40.9543 66.2395 41.6159C65.291 42.2774 64.163 42.6336 63.0066 42.6365C54.3799 42.6492 45.7523 42.6512 37.1236 42.6425Z" fill="white"/>
<path d="M30.2801 49.1792C33.6501 49.1792 37.0201 49.1592 40.3891 49.1852C41.6583 49.1764 42.8934 49.5961 43.8944 50.3765C44.8955 51.1569 45.6039 52.2521 45.9051 53.4851C46.0942 54.2473 46.1227 55.0405 45.989 55.8142C45.8554 56.588 45.5623 57.3255 45.1286 57.98C44.6948 58.6346 44.1297 59.1919 43.4692 59.6165C42.8087 60.0411 42.0671 60.3238 41.2915 60.4467C40.516 60.5696 39.7233 60.5299 38.9639 60.3302C38.2045 60.1306 37.4948 59.7753 36.88 59.2869C36.2651 58.7985 35.7585 58.1876 35.3922 57.4931C35.0259 56.7985 34.8079 56.0355 34.7521 55.2522C34.7121 54.3842 34.9741 53.9682 35.5841 53.9322C36.1941 53.8962 36.5461 54.2912 36.6121 55.1252C36.6609 55.8052 36.8922 56.4597 37.2815 57.0194C37.6709 57.5792 38.2039 58.0236 38.8245 58.3059C39.4452 58.5883 40.1305 58.6982 40.8082 58.6239C41.486 58.5497 42.1313 58.2942 42.6761 57.8842C43.3044 57.4155 43.772 56.7637 44.0149 56.0185C44.2577 55.2732 44.2637 54.471 44.0321 53.7222C43.8014 52.9584 43.3326 52.2883 42.6941 51.8097C42.0556 51.3312 41.2809 51.0692 40.4831 51.0622C37.2691 51.0332 34.0551 51.0502 30.8401 51.0492H20.1091C19.8755 51.0683 19.6404 51.0588 19.4091 51.0212C19.1867 50.9883 18.9846 50.8735 18.8427 50.6991C18.7007 50.5248 18.6292 50.3036 18.6421 50.0791C18.6405 49.8542 18.7254 49.6373 18.8794 49.4733C19.0333 49.3093 19.2445 49.2107 19.4691 49.1982C19.7018 49.1776 19.9356 49.1716 20.1691 49.1802L30.2801 49.1792Z" fill="white"/>
<path d="M30.1621 34.2387H20.132C19.8984 34.2567 19.6636 34.2476 19.432 34.2117C19.2093 34.1813 19.0056 34.0701 18.8598 33.8991C18.7139 33.7282 18.6361 33.5094 18.6411 33.2847C18.6373 33.1671 18.6573 33.05 18.7 32.9404C18.7427 32.8307 18.8071 32.7308 18.8894 32.6467C18.9717 32.5626 19.0703 32.496 19.179 32.451C19.2877 32.406 19.4044 32.3834 19.5221 32.3847C19.7801 32.3647 20.04 32.3737 20.299 32.3737C26.96 32.3737 33.6211 32.3848 40.2821 32.3648C41.0281 32.3986 41.7667 32.2037 42.399 31.8062C43.0312 31.4088 43.527 30.8278 43.82 30.1408C44.1451 29.4992 44.2712 28.7751 44.1822 28.0614C44.0931 27.3476 43.7929 26.6767 43.32 26.1347C42.8459 25.5554 42.2108 25.1296 41.4948 24.911C40.7788 24.6924 40.014 24.6909 39.2971 24.9066C38.5803 25.1223 37.9434 25.5455 37.4669 26.1229C36.9905 26.7003 36.6957 27.4059 36.62 28.1507C36.6105 28.3315 36.5878 28.5114 36.552 28.6888C36.5374 28.8058 36.4994 28.9185 36.4403 29.0205C36.3812 29.1224 36.3021 29.2115 36.2079 29.2823C36.1137 29.3531 36.0062 29.4043 35.8918 29.4327C35.7774 29.4611 35.6585 29.4662 35.5421 29.4477C34.9891 29.3897 34.756 29.0298 34.732 28.4868C34.7346 27.2862 35.1219 26.118 35.8371 25.1536C36.5524 24.1893 37.5578 23.4796 38.706 23.1287C39.7483 22.7775 40.8726 22.7503 41.9307 23.0507C42.9888 23.3512 43.9309 23.9651 44.633 24.8117C45.3923 25.6091 45.8864 26.6219 46.0475 27.7111C46.2086 28.8004 46.0289 29.9126 45.533 30.8957C45.107 31.9108 44.3832 32.7729 43.4572 33.3681C42.5311 33.9633 41.4464 34.2638 40.346 34.2298C36.953 34.2778 33.5571 34.2377 30.1621 34.2387Z" fill="white"/>
<path d="M69.61 51.6359C69.612 51.8431 69.5729 52.0487 69.495 52.2407C69.4171 52.4328 69.302 52.6075 69.1562 52.7548C69.0104 52.9021 68.8368 53.0189 68.6456 53.0988C68.4544 53.1786 68.2493 53.2198 68.042 53.2199C67.6373 53.2155 67.2504 53.053 66.964 52.7671C66.6775 52.4812 66.5142 52.0947 66.509 51.69C66.501 51.4892 66.5331 51.2888 66.6034 51.1006C66.6738 50.9124 66.781 50.7402 66.9187 50.5939C67.0564 50.4476 67.2219 50.3302 67.4055 50.2487C67.5891 50.1671 67.7871 50.123 67.988 50.1189C68.1948 50.1091 68.4015 50.1409 68.5958 50.2123C68.7901 50.2838 68.9682 50.3935 69.1194 50.5349C69.2706 50.6764 69.392 50.8466 69.4762 51.0357C69.5605 51.2248 69.606 51.4289 69.61 51.6359Z" fill="white"/>
<path d="M55.7824 54.6289C56.1871 54.6283 56.5758 54.7869 56.8646 55.0703C57.1535 55.3537 57.3193 55.7393 57.3264 56.1439C57.3363 56.3511 57.3035 56.5581 57.2301 56.7521C57.1567 56.9461 57.0442 57.1229 56.8997 57.2716C56.7551 57.4203 56.5814 57.5377 56.3896 57.6166C56.1977 57.6954 55.9917 57.7339 55.7844 57.7299C55.3733 57.7299 54.979 57.5666 54.6884 57.2759C54.3977 56.9852 54.2344 56.591 54.2344 56.1799C54.2344 55.7688 54.3977 55.3745 54.6884 55.0839C54.979 54.7932 55.3733 54.6299 55.7844 54.6299L55.7824 54.6289Z" fill="white"/>
<path d="M64.4835 61.7802C64.0795 61.7619 63.697 61.5932 63.4109 61.3074C63.1249 61.0215 62.956 60.6391 62.9375 60.2351C62.9425 59.8167 63.1118 59.4171 63.4089 59.1224C63.706 58.8278 64.1071 58.6617 64.5255 58.6602C64.9393 58.6657 65.3338 58.8355 65.6224 59.132C65.9111 59.4285 66.0701 59.8275 66.0645 60.2412C66.0589 60.6549 65.8893 61.0495 65.5928 61.3381C65.2963 61.6268 64.8973 61.7857 64.4835 61.7802Z" fill="white"/>
<path d="M54.2719 64.7115C54.6768 64.7255 55.0604 64.8963 55.3417 65.1877C55.6231 65.4791 55.7802 65.8684 55.7799 66.2735C55.7835 66.4815 55.7455 66.6882 55.668 66.8813C55.5905 67.0744 55.4753 67.25 55.3289 67.3979C55.1825 67.5458 55.0081 67.6628 54.8158 67.7423C54.6235 67.8217 54.4172 67.8619 54.2091 67.8604C54.0011 67.859 53.7954 67.8159 53.6043 67.7337C53.4131 67.6516 53.2404 67.5321 53.0961 67.3822C52.9518 67.2322 52.839 67.055 52.7643 66.8608C52.6895 66.6666 52.6544 66.4595 52.6609 66.2515C52.6647 66.0444 52.7095 65.8399 52.7926 65.6501C52.8758 65.4603 52.9957 65.2889 53.1455 65.1457C53.2953 65.0025 53.4719 64.8905 53.6653 64.816C53.8586 64.7415 54.0648 64.7059 54.2719 64.7115Z" fill="white"/>
<path d="M43.0261 66.8885C43.0217 67.0921 42.9773 67.2928 42.8953 67.4791C42.8134 67.6655 42.6955 67.8339 42.5485 67.9747C42.4014 68.1155 42.2281 68.2261 42.0383 68.2999C41.8486 68.3738 41.6462 68.4094 41.4426 68.405C41.2391 68.4006 41.0384 68.3562 40.852 68.2743C40.6656 68.1923 40.4973 68.0744 40.3564 67.9274C40.2156 67.7803 40.1051 67.607 40.0313 67.4172C39.9575 67.2275 39.9217 67.0251 39.9261 66.8215C39.935 66.4104 40.1068 66.0197 40.4038 65.7353C40.7008 65.4509 41.0986 65.2962 41.5096 65.305C41.9207 65.3139 42.3114 65.4857 42.5958 65.7827C42.8802 66.0797 43.035 66.4775 43.0261 66.8885Z" fill="white"/>
<path d="M34.3409 11.8408C34.5416 11.8369 34.741 11.8736 34.9272 11.9486C35.1133 12.0237 35.2824 12.1357 35.4242 12.2777C35.566 12.4198 35.6776 12.589 35.7523 12.7753C35.827 12.9616 35.8633 13.1612 35.8589 13.3618C35.8611 13.5688 35.8219 13.7741 35.7437 13.9657C35.6655 14.1573 35.5499 14.3314 35.4036 14.4778C35.2573 14.6242 35.0833 14.74 34.8917 14.8183C34.7001 14.8966 34.4948 14.9359 34.2879 14.9339C33.8831 14.9214 33.4987 14.7538 33.2139 14.4658C32.9292 14.1779 32.7659 13.7917 32.7579 13.3869C32.7554 13.18 32.7948 12.9746 32.874 12.7835C32.9531 12.5923 33.0702 12.4192 33.2182 12.2747C33.3662 12.1301 33.5421 12.0171 33.735 11.9425C33.928 11.8679 34.1342 11.8334 34.3409 11.8408Z" fill="white"/>
<path d="M64.4904 20.5752C64.485 20.8832 64.388 21.1824 64.2118 21.435C64.0356 21.6875 63.7881 21.8819 63.501 21.9932C63.2139 22.1046 62.9001 22.1278 62.5997 22.0601C62.2993 21.9924 62.0259 21.8366 61.8143 21.6128C61.6028 21.3891 61.4626 21.1074 61.4118 20.8036C61.3611 20.4999 61.4019 20.188 61.5292 19.9075C61.6564 19.6271 61.8644 19.391 62.1264 19.2292C62.3884 19.0674 62.6927 18.9873 63.0004 18.9992C63.4043 19.0183 63.7852 19.1932 64.063 19.487C64.3408 19.7808 64.494 20.1709 64.4904 20.5752Z" fill="white"/>
<path d="M54.2424 24.6113C54.6607 24.626 55.0564 24.8046 55.344 25.1086C55.6317 25.4127 55.7881 25.8179 55.7794 26.2363C55.7551 26.6439 55.5721 27.0257 55.2696 27.2999C54.9671 27.5742 54.5692 27.7189 54.1612 27.7032C53.7532 27.6875 53.3675 27.5126 53.087 27.2159C52.8064 26.9193 52.6533 26.5246 52.6604 26.1163C52.6863 25.7124 52.8635 25.333 53.1568 25.0541C53.45 24.7751 53.8377 24.617 54.2424 24.6113Z" fill="white"/>
<path d="M55.7794 48.9116C55.7858 49.1173 55.7515 49.3222 55.6784 49.5145C55.6053 49.7068 55.4949 49.8828 55.3535 50.0323C55.2121 50.1818 55.0425 50.3019 54.8545 50.3856C54.6666 50.4693 54.4639 50.5149 54.2582 50.5199C54.0525 50.5249 53.8478 50.4892 53.6559 50.4148C53.4641 50.3403 53.2889 50.2287 53.1404 50.0863C52.9919 49.9439 52.873 49.7735 52.7906 49.5849C52.7083 49.3964 52.664 49.1934 52.6604 48.9876C52.6532 48.5758 52.8091 48.1779 53.0942 47.8806C53.3793 47.5833 53.7704 47.4109 54.1822 47.4009C54.5939 47.3908 54.9929 47.544 55.2922 47.827C55.5914 48.11 55.7665 48.4999 55.7794 48.9116Z" fill="white"/>
<path d="M27.0997 24.5998C26.8927 24.6059 26.6867 24.57 26.4939 24.4946C26.3011 24.4191 26.1254 24.3056 25.9775 24.1607C25.8296 24.0158 25.7125 23.8426 25.6332 23.6513C25.5538 23.4601 25.5138 23.2549 25.5157 23.0478C25.5158 22.7422 25.606 22.4434 25.7752 22.1889C25.9444 21.9344 26.1849 21.7356 26.4666 21.6173C26.7483 21.4989 27.0587 21.4663 27.3589 21.5236C27.659 21.581 27.9356 21.7257 28.1539 21.9395C28.3721 22.1534 28.5224 22.4269 28.5859 22.7258C28.6493 23.0247 28.6231 23.3357 28.5106 23.6198C28.398 23.9039 28.204 24.1485 27.9531 24.3228C27.7021 24.4972 27.4052 24.5935 27.0997 24.5998Z" fill="white"/>
<path d="M48.0253 14.9551C48.0277 15.3602 47.8703 15.7499 47.5873 16.0397C47.3042 16.3295 46.9183 16.496 46.5133 16.5031C46.0957 16.4947 45.6979 16.3234 45.405 16.0258C45.112 15.7281 44.9471 15.3277 44.9453 14.9101C44.9482 14.703 44.9925 14.4986 45.0757 14.309C45.1588 14.1193 45.2792 13.9482 45.4295 13.8058C45.5798 13.6634 45.7572 13.5525 45.951 13.4798C46.1449 13.407 46.3514 13.3738 46.5583 13.3821C46.7588 13.3863 46.9564 13.4306 47.1395 13.5125C47.3225 13.5943 47.4873 13.712 47.6241 13.8587C47.7609 14.0053 47.8668 14.1779 47.9357 14.3662C48.0046 14.5546 48.0351 14.7548 48.0253 14.9551Z" fill="white"/>
<path d="M30.1994 60.9201C30.5064 60.9176 30.8072 61.0059 31.0641 61.1741C31.3209 61.3423 31.5222 61.5828 31.6426 61.8652C31.763 62.1475 31.7971 62.4593 31.7407 62.761C31.6842 63.0628 31.5398 63.3411 31.3254 63.5608C31.1111 63.7806 30.8365 63.9319 30.5362 63.9959C30.236 64.0599 29.9235 64.0335 29.6382 63.9202C29.3529 63.8069 29.1075 63.6117 28.933 63.3592C28.7584 63.1066 28.6626 62.8081 28.6574 62.5011C28.6493 62.2946 28.6833 62.0886 28.7574 61.8957C28.8314 61.7027 28.944 61.5269 29.0883 61.3789C29.2327 61.231 29.4056 61.114 29.5966 61.0351C29.7877 60.9562 29.9928 60.9171 30.1994 60.9201Z" fill="white"/>
<path d="M70.8607 12.8705C70.3957 12.3915 69.9267 11.9215 69.4477 11.4575C61.7113 4.07523 51.3939 0.0124151 40.7012 0.137574C30.0085 0.262733 19.789 4.56597 12.2275 12.1273C4.66601 19.6887 0.362535 29.9081 0.237191 40.6008C0.111848 51.2936 4.17456 61.611 11.5567 69.3475C12.0217 69.8275 12.4907 70.2965 12.9707 70.7605C20.708 78.1381 31.0239 82.197 41.714 82.0698C52.4041 81.9426 62.6205 77.6395 70.1801 70.08C77.7397 62.5204 82.0428 52.3039 82.17 41.6138C82.2972 30.9237 78.2383 20.6078 70.8607 12.8705ZM2.24372 41.1095C2.2403 33.4879 4.47311 26.0328 8.66554 19.6678C12.858 13.3029 18.8257 8.30795 25.8294 5.30176C32.8331 2.29557 40.5649 1.41024 48.0668 2.75562C55.5688 4.10099 62.5111 7.61786 68.0337 12.8705L12.9707 67.9346C6.07944 60.7045 2.23785 51.0977 2.24372 41.1095ZM41.2087 80.0735C31.2204 80.0807 21.6134 76.2393 14.3837 69.3475L69.4477 14.2836C74.7003 19.8061 78.2172 26.7484 79.5626 34.2504C80.908 41.7523 80.0227 49.4841 77.0165 56.4878C74.0104 63.4915 69.0153 69.4593 62.6504 73.6517C56.2855 77.8442 48.8303 80.0769 41.2087 80.0735Z" fill="white"/>
<path d="M0.978928 118.213V117.402L5.95281 109.977H0.924864V108.986H7.28639V109.797L2.3125 117.222H7.34045V118.213H0.978928ZM11.9719 118.357C11.3051 118.357 10.73 118.21 10.2464 117.916C9.76582 117.618 9.39488 117.204 9.13357 116.672C8.87526 116.137 8.74611 115.516 8.74611 114.807C8.74611 114.098 8.87526 113.473 9.13357 112.933C9.39488 112.389 9.75831 111.966 10.2239 111.662C10.6924 111.356 11.2391 111.203 11.8638 111.203C12.2242 111.203 12.5801 111.263 12.9316 111.383C13.283 111.503 13.6029 111.698 13.8912 111.969C14.1795 112.236 14.4093 112.59 14.5805 113.032C14.7517 113.473 14.8373 114.017 14.8373 114.663V115.113H9.50301V114.194H13.756C13.756 113.804 13.6779 113.455 13.5218 113.149C13.3686 112.843 13.1493 112.601 12.864 112.424C12.5816 112.246 12.2483 112.158 11.8638 112.158C11.4403 112.158 11.0739 112.263 10.7645 112.473C10.4581 112.68 10.2224 112.951 10.0572 113.284C9.89197 113.617 9.80937 113.975 9.80937 114.356V114.969C9.80937 115.492 9.89947 115.935 10.0797 116.298C10.2629 116.659 10.5167 116.933 10.8411 117.123C11.1655 117.309 11.5424 117.402 11.9719 117.402C12.2513 117.402 12.5036 117.363 12.7288 117.285C12.9571 117.204 13.1538 117.084 13.319 116.924C13.4842 116.762 13.6119 116.561 13.702 116.321L14.7292 116.609C14.6211 116.957 14.4393 117.264 14.184 117.528C13.9287 117.789 13.6134 117.994 13.2379 118.141C12.8625 118.285 12.4405 118.357 11.9719 118.357ZM16.4547 118.213V111.293H17.4819V112.338H17.554C17.6802 111.996 17.9084 111.718 18.2388 111.504C18.5692 111.291 18.9417 111.185 19.3562 111.185C19.4342 111.185 19.5319 111.186 19.649 111.189C19.7661 111.192 19.8547 111.197 19.9148 111.203V112.284C19.8788 112.275 19.7962 112.261 19.667 112.243C19.5409 112.222 19.4072 112.212 19.266 112.212C18.9297 112.212 18.6293 112.282 18.365 112.424C18.1037 112.562 17.8964 112.754 17.7432 113C17.5931 113.244 17.518 113.521 17.518 113.834V118.213H16.4547ZM23.7759 118.357C23.1511 118.357 22.603 118.208 22.1314 117.911C21.6629 117.614 21.2964 117.198 21.0321 116.663C20.7708 116.128 20.6402 115.504 20.6402 114.789C20.6402 114.068 20.7708 113.439 21.0321 112.901C21.2964 112.363 21.6629 111.946 22.1314 111.649C22.603 111.351 23.1511 111.203 23.7759 111.203C24.4006 111.203 24.9473 111.351 25.4158 111.649C25.8874 111.946 26.2538 112.363 26.5151 112.901C26.7794 113.439 26.9116 114.068 26.9116 114.789C26.9116 115.504 26.7794 116.128 26.5151 116.663C26.2538 117.198 25.8874 117.614 25.4158 117.911C24.9473 118.208 24.4006 118.357 23.7759 118.357ZM23.7759 117.402C24.2504 117.402 24.6409 117.28 24.9473 117.037C25.2536 116.794 25.4804 116.474 25.6276 116.077C25.7747 115.681 25.8483 115.251 25.8483 114.789C25.8483 114.326 25.7747 113.895 25.6276 113.496C25.4804 113.096 25.2536 112.773 24.9473 112.527C24.6409 112.281 24.2504 112.158 23.7759 112.158C23.3013 112.158 22.9109 112.281 22.6045 112.527C22.2981 112.773 22.0714 113.096 21.9242 113.496C21.777 113.895 21.7034 114.326 21.7034 114.789C21.7034 115.251 21.777 115.681 21.9242 116.077C22.0714 116.474 22.2981 116.794 22.6045 117.037C22.9109 117.28 23.3013 117.402 23.7759 117.402ZM32.247 118.213V108.986H35.3647C36.0856 108.986 36.6773 109.109 37.1398 109.355C37.6024 109.599 37.9448 109.934 38.167 110.36C38.3893 110.787 38.5004 111.272 38.5004 111.815C38.5004 112.359 38.3893 112.841 38.167 113.262C37.9448 113.682 37.6039 114.012 37.1443 114.253C36.6848 114.49 36.0976 114.609 35.3827 114.609H32.8597V113.599H35.3467C35.8393 113.599 36.2357 113.527 36.5361 113.383C36.8395 113.239 37.0587 113.035 37.1939 112.77C37.332 112.503 37.4011 112.185 37.4011 111.815C37.4011 111.446 37.332 111.123 37.1939 110.847C37.0557 110.57 36.8349 110.357 36.5316 110.207C36.2282 110.054 35.8273 109.977 35.3287 109.977H33.3643V118.213H32.247ZM36.5902 114.068L38.8608 118.213H37.5633L35.3287 114.068H36.5902ZM43.0452 118.357C42.3784 118.357 41.8032 118.21 41.3196 117.916C40.8391 117.618 40.4681 117.204 40.2068 116.672C39.9485 116.137 39.8193 115.516 39.8193 114.807C39.8193 114.098 39.9485 113.473 40.2068 112.933C40.4681 112.389 40.8315 111.966 41.2971 111.662C41.7657 111.356 42.3123 111.203 42.937 111.203C43.2975 111.203 43.6534 111.263 44.0048 111.383C44.3562 111.503 44.6761 111.698 44.9644 111.969C45.2528 112.236 45.4825 112.59 45.6537 113.032C45.8249 113.473 45.9106 114.017 45.9106 114.663V115.113H40.5762V114.194H44.8293C44.8293 113.804 44.7512 113.455 44.595 113.149C44.4418 112.843 44.2226 112.601 43.9372 112.424C43.6549 112.246 43.3215 112.158 42.937 112.158C42.5135 112.158 42.1471 112.263 41.8377 112.473C41.5314 112.68 41.2956 112.951 41.1304 113.284C40.9652 113.617 40.8826 113.975 40.8826 114.356V114.969C40.8826 115.492 40.9727 115.935 41.1529 116.298C41.3361 116.659 41.5899 116.933 41.9143 117.123C42.2387 117.309 42.6157 117.402 43.0452 117.402C43.3245 117.402 43.5768 117.363 43.8021 117.285C44.0303 117.204 44.2271 117.084 44.3923 116.924C44.5575 116.762 44.6851 116.561 44.7752 116.321L45.8024 116.609C45.6943 116.957 45.5126 117.264 45.2573 117.528C45.002 117.789 44.6866 117.994 44.3112 118.141C43.9357 118.285 43.5137 118.357 43.0452 118.357ZM51.4927 113.762V114.753H47.4559V113.762H51.4927ZM56.2649 118.357C55.5981 118.357 55.023 118.21 54.5394 117.916C54.0588 117.618 53.6879 117.204 53.4266 116.672C53.1683 116.137 53.0391 115.516 53.0391 114.807C53.0391 114.098 53.1683 113.473 53.4266 112.933C53.6879 112.389 54.0513 111.966 54.5169 111.662C54.9854 111.356 55.5321 111.203 56.1568 111.203C56.5172 111.203 56.8731 111.263 57.2246 111.383C57.576 111.503 57.8958 111.698 58.1842 111.969C58.4725 112.236 58.7023 112.59 58.8735 113.032C59.0447 113.473 59.1303 114.017 59.1303 114.663V115.113H53.796V114.194H58.049C58.049 113.804 57.9709 113.455 57.8148 113.149C57.6616 112.843 57.4423 112.601 57.157 112.424C56.8746 112.246 56.5412 112.158 56.1568 112.158C55.7333 112.158 55.3669 112.263 55.0575 112.473C54.7511 112.68 54.5154 112.951 54.3502 113.284C54.185 113.617 54.1024 113.975 54.1024 114.356V114.969C54.1024 115.492 54.1925 115.935 54.3727 116.298C54.5559 116.659 54.8097 116.933 55.1341 117.123C55.4585 117.309 55.8354 117.402 56.2649 117.402C56.5443 117.402 56.7965 117.363 57.0218 117.285C57.2501 117.204 57.4468 117.084 57.612 116.924C57.7772 116.762 57.9049 116.561 57.995 116.321L59.0222 116.609C58.9141 116.957 58.7323 117.264 58.477 117.528C58.2217 117.789 57.9064 117.994 57.5309 118.141C57.1555 118.285 56.7335 118.357 56.2649 118.357ZM61.811 114.05V118.213H60.7477V111.293H61.7749V112.374H61.865C62.0272 112.023 62.2735 111.74 62.6039 111.527C62.9343 111.311 63.3608 111.203 63.8834 111.203C64.352 111.203 64.762 111.299 65.1134 111.491C65.4648 111.68 65.7381 111.969 65.9333 112.356C66.1286 112.74 66.2262 113.227 66.2262 113.816V118.213H65.1629V113.888C65.1629 113.344 65.0218 112.921 64.7394 112.617C64.4571 112.311 64.0696 112.158 63.5771 112.158C63.2377 112.158 62.9343 112.231 62.667 112.378C62.4027 112.526 62.1939 112.74 62.0407 113.023C61.8876 113.305 61.811 113.647 61.811 114.05ZM71.1787 111.293V112.194H67.5924V111.293H71.1787ZM68.6377 109.635H69.7009V116.231C69.7009 116.531 69.7445 116.756 69.8316 116.906C69.9217 117.054 70.0358 117.153 70.174 117.204C70.3152 117.252 70.4638 117.276 70.62 117.276C70.7372 117.276 70.8333 117.27 70.9084 117.258C70.9834 117.243 71.0435 117.231 71.0886 117.222L71.3048 118.177C71.2327 118.204 71.1321 118.231 71.003 118.258C70.8738 118.288 70.7101 118.303 70.5119 118.303C70.2115 118.303 69.9172 118.238 69.6288 118.109C69.3435 117.98 69.1062 117.783 68.917 117.519C68.7308 117.255 68.6377 116.921 68.6377 116.519V109.635ZM72.7781 118.213V111.293H73.8053V112.338H73.8774C74.0035 111.996 74.2318 111.718 74.5622 111.504C74.8926 111.291 75.265 111.185 75.6795 111.185C75.7576 111.185 75.8552 111.186 75.9723 111.189C76.0895 111.192 76.1781 111.197 76.2382 111.203V112.284C76.2021 112.275 76.1195 112.261 75.9904 112.243C75.8642 112.222 75.7306 112.212 75.5894 112.212C75.253 112.212 74.9526 112.282 74.6883 112.424C74.427 112.562 74.2198 112.754 74.0666 113C73.9164 113.244 73.8413 113.521 73.8413 113.834V118.213H72.7781ZM78.394 120.808C78.2137 120.808 78.0531 120.793 77.9119 120.763C77.7707 120.736 77.6731 120.709 77.619 120.682L77.8894 119.745C78.1477 119.811 78.3759 119.835 78.5742 119.817C78.7724 119.799 78.9481 119.71 79.1013 119.551C79.2575 119.395 79.4002 119.141 79.5293 118.79L79.7275 118.249L77.1685 111.293H78.3219L80.2321 116.807H80.3042L82.2145 111.293H83.3678L80.4304 119.222C80.2982 119.58 80.1345 119.875 79.9393 120.11C79.7441 120.347 79.5173 120.523 79.259 120.637C79.0037 120.751 78.7153 120.808 78.394 120.808Z" fill="white"/>
<path d="M23.9524 133.582C23.3277 133.582 22.7796 133.433 22.308 133.136C21.8394 132.838 21.473 132.422 21.2087 131.888C20.9474 131.353 20.8167 130.728 20.8167 130.013C20.8167 129.293 20.9474 128.663 21.2087 128.126C21.473 127.588 21.8394 127.171 22.308 126.873C22.7796 126.576 23.3277 126.427 23.9524 126.427C24.5772 126.427 25.1238 126.576 25.5924 126.873C26.0639 127.171 26.4304 127.588 26.6917 128.126C26.956 128.663 27.0882 129.293 27.0882 130.013C27.0882 130.728 26.956 131.353 26.6917 131.888C26.4304 132.422 26.0639 132.838 25.5924 133.136C25.1238 133.433 24.5772 133.582 23.9524 133.582ZM23.9524 132.627C24.427 132.627 24.8175 132.505 25.1238 132.262C25.4302 132.018 25.657 131.698 25.8041 131.302C25.9513 130.906 26.0249 130.476 26.0249 130.013C26.0249 129.551 25.9513 129.12 25.8041 128.72C25.657 128.321 25.4302 127.998 25.1238 127.752C24.8175 127.505 24.427 127.382 23.9524 127.382C23.4779 127.382 23.0874 127.505 22.7811 127.752C22.4747 127.998 22.2479 128.321 22.1008 128.72C21.9536 129.12 21.88 129.551 21.88 130.013C21.88 130.476 21.9536 130.906 22.1008 131.302C22.2479 131.698 22.4747 132.018 22.7811 132.262C23.0874 132.505 23.4779 132.627 23.9524 132.627ZM31.7928 126.517V127.418H28.0624V126.517H31.7928ZM29.1797 133.438V125.562C29.1797 125.166 29.2729 124.835 29.4591 124.571C29.6453 124.307 29.8871 124.108 30.1844 123.976C30.4818 123.844 30.7957 123.778 31.1261 123.778C31.3874 123.778 31.6006 123.799 31.7658 123.841C31.931 123.883 32.0541 123.922 32.1352 123.958L31.8289 124.877C31.7748 124.859 31.6997 124.837 31.6036 124.81C31.5105 124.783 31.3874 124.769 31.2342 124.769C30.8828 124.769 30.629 124.858 30.4728 125.035C30.3196 125.212 30.243 125.472 30.243 125.814V133.438H29.1797ZM39.8427 133.438H36.9954V124.211H39.9689C40.8639 124.211 41.6298 124.395 42.2666 124.765C42.9033 125.131 43.3914 125.658 43.7308 126.346C44.0702 127.031 44.2399 127.851 44.2399 128.806C44.2399 129.767 44.0687 130.595 43.7263 131.288C43.3839 131.979 42.8853 132.511 42.2306 132.883C41.5758 133.253 40.7798 133.438 39.8427 133.438ZM38.1127 132.446H39.7706C40.5335 132.446 41.1658 132.299 41.6674 132.005C42.169 131.71 42.5429 131.291 42.7892 130.748C43.0355 130.204 43.1587 129.557 43.1587 128.806C43.1587 128.061 43.037 127.42 42.7937 126.882C42.5504 126.342 42.187 125.927 41.7034 125.639C41.2199 125.347 40.6176 125.202 39.8968 125.202H38.1127V132.446ZM50.3311 130.608V126.517H51.3944V133.438H50.3311V132.266H50.259C50.0969 132.618 49.8446 132.916 49.5022 133.163C49.1597 133.406 48.7272 133.528 48.2046 133.528C47.7721 133.528 47.3877 133.433 47.0513 133.244C46.7149 133.052 46.4505 132.763 46.2583 132.379C46.0661 131.991 45.97 131.503 45.97 130.915V126.517H47.0332V130.842C47.0332 131.347 47.1744 131.75 47.4567 132.05C47.7421 132.35 48.1055 132.5 48.547 132.5C48.8113 132.5 49.0802 132.433 49.3535 132.298C49.6298 132.162 49.8611 131.955 50.0473 131.676C50.2365 131.397 50.3311 131.041 50.3311 130.608ZM58.2436 128.067L57.2885 128.337C57.2284 128.178 57.1398 128.024 57.0227 127.873C56.9085 127.72 56.7523 127.594 56.5541 127.495C56.3559 127.396 56.1021 127.346 55.7927 127.346C55.3692 127.346 55.0163 127.444 54.734 127.639C54.4546 127.831 54.315 128.076 54.315 128.374C54.315 128.638 54.4111 128.847 54.6033 129C54.7955 129.153 55.0959 129.281 55.5044 129.383L56.5316 129.635C57.1503 129.785 57.6114 130.015 57.9147 130.324C58.2181 130.631 58.3698 131.026 58.3698 131.509C58.3698 131.906 58.2556 132.26 58.0274 132.572C57.8021 132.885 57.4867 133.131 57.0812 133.311C56.6758 133.492 56.2042 133.582 55.6666 133.582C54.9607 133.582 54.3765 133.428 53.914 133.122C53.4514 132.816 53.1586 132.368 53.0355 131.78L54.0446 131.527C54.1408 131.9 54.3225 132.179 54.5898 132.365C54.8601 132.551 55.213 132.645 55.6485 132.645C56.1441 132.645 56.5376 132.539 56.8289 132.329C57.1233 132.116 57.2705 131.861 57.2705 131.563C57.2705 131.323 57.1864 131.122 57.0182 130.96C56.85 130.794 56.5917 130.671 56.2432 130.59L55.0899 130.32C54.4561 130.17 53.9906 129.937 53.6932 129.621C53.3989 129.303 53.2517 128.905 53.2517 128.428C53.2517 128.037 53.3613 127.692 53.5806 127.391C53.8029 127.091 54.1047 126.855 54.4862 126.684C54.8706 126.513 55.3061 126.427 55.7927 126.427C56.4775 126.427 57.0152 126.577 57.4056 126.878C57.7991 127.178 58.0784 127.575 58.2436 128.067ZM62.9798 126.517V127.418H59.3936V126.517H62.9798ZM60.4388 124.859H61.5021V131.455C61.5021 131.756 61.5456 131.981 61.6327 132.131C61.7229 132.278 61.837 132.377 61.9751 132.428C62.1163 132.476 62.265 132.5 62.4212 132.5C62.5383 132.5 62.6344 132.494 62.7095 132.482C62.7846 132.467 62.8447 132.455 62.8897 132.446L63.106 133.401C63.0339 133.428 62.9333 133.456 62.8041 133.483C62.675 133.513 62.5113 133.528 62.313 133.528C62.0127 133.528 61.7183 133.463 61.43 133.334C61.1447 133.205 60.9074 133.008 60.7182 132.744C60.5319 132.479 60.4388 132.146 60.4388 131.743V124.859Z" fill="white"/>
</svg>
